<svg xmlns="http://www.w3.org/2000/svg" width="16" height="16" viewBox="0 0 16 16" fill="none">
  <path fill-rule="evenodd" clip-rule="evenodd" d="M1.5 5.66659C1.5 3.54949 3.21624 1.83325 5.33333 1.83325H10.6667C12.7838 1.83325 14.5 3.54949 14.5 5.66659V10.9999C14.5 13.117 12.7838 14.8333 10.6667 14.8333H5.33333C3.21624 14.8333 1.5 13.117 1.5 10.9999V5.66659ZM5.33333 2.83325C3.76853 2.83325 2.5 4.10178 2.5 5.66659V10.9999C2.5 12.5647 3.76853 13.8333 5.33333 13.8333H10.6667C12.2315 13.8333 13.5 12.5647 13.5 10.9999V5.66659C13.5 4.10178 12.2315 2.83325 10.6667 2.83325H5.33333Z" fill="#86898C"/>
  <path fill-rule="evenodd" clip-rule="evenodd" d="M14 6.1665H2V5.1665H14V6.1665Z" fill="#86898C"/>
  <path fill-rule="evenodd" clip-rule="evenodd" d="M11 0.833252C10.7239 0.833252 10.5 1.05711 10.5 1.33325L10.5 3.33325C10.5 3.60939 10.7239 3.83325 11 3.83325C11.2761 3.83325 11.5 3.60939 11.5 3.33325L11.5 1.33325C11.5 1.05711 11.2761 0.833252 11 0.833252Z" fill="#86898C"/>
  <path fill-rule="evenodd" clip-rule="evenodd" d="M5 0.833252C4.72386 0.833252 4.5 1.05711 4.5 1.33325L4.5 3.33325C4.5 3.60939 4.72386 3.83325 5 3.83325C5.27614 3.83325 5.5 3.60939 5.5 3.33325L5.5 1.33325C5.5 1.05711 5.27614 0.833252 5 0.833252Z" fill="#86898C"/>
  <path fill-rule="evenodd" clip-rule="evenodd" d="M3.83337 8.33325C3.83337 8.60939 4.05723 8.83325 4.33337 8.83325H5.00004C5.27618 8.83325 5.50004 8.60939 5.50004 8.33325C5.50004 8.05711 5.27618 7.83325 5.00004 7.83325H4.33337C4.05723 7.83325 3.83337 8.05711 3.83337 8.33325Z" fill="#86898C"/>
  <path fill-rule="evenodd" clip-rule="evenodd" d="M7.16675 8.33325C7.16675 8.60939 7.39061 8.83325 7.66675 8.83325H8.33341C8.60956 8.83325 8.83341 8.60939 8.83341 8.33325C8.83341 8.05711 8.60956 7.83325 8.33341 7.83325H7.66675C7.39061 7.83325 7.16675 8.05711 7.16675 8.33325Z" fill="#86898C"/>
  <path fill-rule="evenodd" clip-rule="evenodd" d="M10.5 8.33325C10.5 8.60939 10.7239 8.83325 11 8.83325H11.6667C11.9428 8.83325 12.1667 8.60939 12.1667 8.33325C12.1667 8.05711 11.9428 7.83325 11.6667 7.83325H11C10.7239 7.83325 10.5 8.05711 10.5 8.33325Z" fill="#86898C"/>
  <path fill-rule="evenodd" clip-rule="evenodd" d="M3.83337 11C3.83337 11.2761 4.05723 11.5 4.33337 11.5H5.00004C5.27618 11.5 5.50004 11.2761 5.50004 11C5.50004 10.7239 5.27618 10.5 5.00004 10.5H4.33337C4.05723 10.5 3.83337 10.7239 3.83337 11Z" fill="#86898C"/>
  <path fill-rule="evenodd" clip-rule="evenodd" d="M7.16675 11C7.16675 11.2761 7.39061 11.5 7.66675 11.5H8.33341C8.60956 11.5 8.83341 11.2761 8.83341 11C8.83341 10.7239 8.60956 10.5 8.33341 10.5H7.66675C7.39061 10.5 7.16675 10.7239 7.16675 11Z" fill="#86898C"/>
  <path fill-rule="evenodd" clip-rule="evenodd" d="M10.5 11C10.5 11.2761 10.7239 11.5 11 11.5H11.6667C11.9428 11.5 12.1667 11.2761 12.1667 11C12.1667 10.7239 11.9428 10.5 11.6667 10.5H11C10.7239 10.5 10.5 10.7239 10.5 11Z" fill="#86898C"/>
</svg>