<svg width="28" height="25" viewBox="0 0 28 25" fill="none" xmlns="http://www.w3.org/2000/svg">
    <path d="M24.9802 8.68429C24.9802 5.64502 22.4832 3.07835 19.7137 3.07835C18.2179 3.07854 16.8031 3.80532 15.7936 5.02479L14.7663 6.26554C14.3707 6.74334 13.6401 6.74943 13.2366 6.27828L12.1892 5.0553C11.2554 3.96543 9.96513 3.28011 8.56632 3.19886L8.28599 3.19123C5.47454 3.19123 3.01944 5.68911 3.01944 8.68429C3.01951 9.97206 3.48384 11.1468 4.25872 12.0616L4.39965 12.2279L12.2305 21.1226C13.1678 22.1872 14.8319 22.1872 15.7691 21.1226L23.6 12.2279L23.741 12.0616C24.5158 11.1468 24.9802 9.97209 24.9802 8.68429ZM27.3332 8.68429C27.3331 10.5469 26.6578 12.2514 25.5394 13.5718H25.547L17.5384 22.6679C15.6639 24.797 12.3358 24.797 10.4612 22.6679L2.45266 13.5718H2.46032C1.34188 12.2514 0.666565 10.5469 0.666504 8.68429C0.666504 4.49393 4.07795 0.848172 8.28599 0.848172C10.5507 0.84834 12.5829 1.90575 13.9784 3.53445C15.3749 1.84744 17.4261 0.735487 19.7137 0.735291C23.9217 0.735291 27.3332 4.49393 27.3332 8.68429Z" fill="#3E3E3E"/>
</svg>
