<svg width="24" height="24" viewBox="0 0 24 24" fill="none" xmlns="http://www.w3.org/2000/svg">
<g clip-path="url(#clip0_3_6026)">
<path d="M12.0814 7.53302C9.59628 7.53302 7.5814 9.54789 7.5814 12.033C7.5814 14.5178 9.59628 16.533 12.0814 16.533C14.5665 16.533 16.5814 14.5181 16.5814 12.033C16.5814 9.54789 14.5665 7.53302 12.0814 7.53302ZM12.0814 15.033C10.4273 15.033 9.04688 13.6545 9.04688 12.0004C9.04688 10.3462 10.3928 9.00037 12.0469 9.00037C13.7014 9.00037 15.0469 10.3462 15.0469 12.0004C15.0469 13.6545 13.7359 15.033 12.0814 15.033ZM23.9925 11.826C23.9839 11.7881 23.9877 11.7481 23.9764 11.7109C23.9715 11.6952 23.9618 11.6862 23.9562 11.6723C23.9483 11.651 23.9502 11.6258 23.9393 11.6052C21.7579 6.61059 17.0565 3.73584 12.0465 3.73584C7.03655 3.73584 2.24105 6.60534 0.0585498 11.6003C0.0491748 11.6214 0.0506748 11.6431 0.0431514 11.6671C0.0379248 11.6817 0.0270498 11.69 0.0221748 11.7038C0.0105498 11.7417 0.0150498 11.7811 0.0079248 11.8193C-0.00592676 11.8868 -0.0186768 11.9525 -0.0186768 12.0207C-0.0186768 12.0897 -0.00592676 12.1535 0.0079248 12.2221C0.0154248 12.2596 0.0105732 12.3004 0.0221982 12.3364C0.0270732 12.3533 0.0379482 12.3604 0.0431748 12.3758C0.0510498 12.3964 0.0491748 12.4219 0.0585498 12.4426C2.24142 17.4361 6.99005 20.2639 12 20.2639C17.0104 20.2639 21.7579 17.4421 23.94 12.4474C23.9509 12.426 23.9487 12.4035 23.9569 12.3799C23.9622 12.3668 23.9723 12.357 23.9768 12.3424C23.9884 12.3057 23.9847 12.2655 23.9929 12.2273C24.006 12.1602 24.0184 12.0945 24.0184 12.0252C24.0184 11.9592 24.006 11.8939 23.9925 11.826ZM12 18.764C7.7509 18.764 3.56855 16.5241 1.51355 12.0214C3.54905 7.53382 7.7873 5.23619 12.0469 5.23619C16.305 5.23619 20.4492 7.53644 22.4854 12.0263C20.4507 16.5124 16.2597 18.764 12 18.764Z" fill="#BCBFC2"/>
</g>
<defs>
<clipPath id="clip0_3_6026">
<rect width="24" height="24" fill="white"/>
</clipPath>
</defs>
</svg>
