<svg width="36" viewBox="16 26 48 27.9507" fill="none" xmlns="http://www.w3.org/2000/svg">
    <g clip-path="url(#c)">
        <path d="M26.4931 48.1583C26.1457 50.0666 27.1221 50.6808 28.8179 50.6808C30.0199 50.6808 31.3683 50.2247 31.64 49.0211C31.9693 47.5919 29.8371 47.3186 27.7757 46.6567C25.7143 45.9949 23.6792 44.9543 24.3543 41.9774C25.1578 38.4342 28.8393 37.0462 31.7141 37.0462C34.7617 37.0462 37.4768 38.6153 36.6667 42.2754H32.6773C33.0757 40.7936 31.8738 40.3194 30.6521 40.3194C29.7926 40.3194 28.6483 40.6355 28.408 41.7058C28.1231 42.9554 30.2817 43.1876 32.3595 43.8462C34.4374 44.5048 36.4033 45.5931 35.7414 48.5239C34.8078 52.6401 31.2053 53.9573 27.8383 53.9573C24.3181 53.9573 21.5816 52.3223 22.4971 48.1649L26.4931 48.1583Z" fill="#005EA1"/>
        <path d="M54.1047 37.3871H58.0941L54.4175 53.61H50.4248L54.1047 37.3871Z" fill="#005EA1"/>
        <path d="M39.5611 37.3885H46.725C49.3742 37.3441 52.1057 38.0685 51.3351 41.4554C51.0058 42.9092 49.9225 44.0897 48.5773 44.7269C50.0953 45.2209 50.7638 46.7274 50.3473 48.5665C49.4746 52.4308 46.5258 53.6163 43.2427 53.6163H35.8845L39.5611 37.3885ZM42.1033 43.7736H45.1921C45.8787 43.7736 46.9094 43.385 47.1679 42.2276C47.4264 41.0701 46.7316 40.6585 45.8952 40.6585H42.808L42.1033 43.7736ZM40.6396 50.2245H43.8387C45.1032 50.2245 46.0894 49.7454 46.3957 48.4134C46.725 46.981 45.8836 46.5035 44.6817 46.5035H41.4842L40.6396 50.2245Z" fill="#005EA1"/>
        <path d="M63.6674 30.872C61.4611 25.0138 48.8392 24.3453 35.4796 29.377C25.9514 32.9663 18.6229 38.487 16 43.4857C19.6223 39.6988 25.4805 35.9777 32.5455 33.3137C45.9068 28.2804 58.5271 28.9505 60.7334 34.8104C61.3689 36.4898 61.0742 38.4145 60.0188 40.4265C63.2492 37.0545 64.7063 33.6315 63.6674 30.8769" fill="#EC303C"/>
    </g>
    <defs><clipPath id="c"><rect width="48" height="27.9507" fill="white" transform="translate(16 26)"/></clipPath></defs>
</svg>
