<svg width="80" height="80" viewBox="0 0 80 80" fill="none" xmlns="http://www.w3.org/2000/svg">
<rect x="0.5" y="0.5" width="79" height="79" rx="19.5" fill="white"/>
<rect x="0.5" y="0.5" width="79" height="79" rx="19.5" stroke="#E4E9F1"/>
<g clip-path="url(#clip0_33_4079)">
<path d="M57.807 43.36C55.8623 48.1085 52.6024 49.4517 52.6024 49.4517C62.1915 39.9035 56.3354 28.9017 56.3354 28.9017C54.92 26.4359 56.7224 25.3625 56.7224 25.3625C52.6044 26.3729 53.8915 29.725 53.8915 29.725C55.9605 34.5681 55.5435 38.5012 54.8418 40.9355L53.4846 40.1891L53.5046 40.1576C53.5046 40.1576 56.7204 27.7082 43.6048 23.3418L43.5947 21H40.8261V36.4273L53.6991 43.6357C53.4645 44.1045 53.2159 44.5437 52.9573 44.9612L40.0281 37.6031L27.0429 44.9593C26.7842 44.5437 26.5356 44.1025 26.3011 43.6338L39.1721 36.4253V21H36.4054L36.3934 23.3418C23.2778 27.7082 26.4935 40.1576 26.4935 40.1576L26.5136 40.1891L25.1563 40.9355C24.4526 38.5012 24.0356 34.5681 26.1066 29.725C26.1066 29.725 27.3937 26.3729 23.2738 25.3625C23.2738 25.3625 25.0761 26.4359 23.6607 28.9017C23.6607 28.9017 17.8046 39.9035 27.3937 49.4517C27.3937 49.4517 24.1339 48.1085 22.1892 43.36C22.1892 43.36 21.0865 41.0438 17.9971 41.548C17.9971 41.548 19.1619 42.066 19.8475 44.1655C19.8475 44.1655 22.6322 52.8649 33.3801 54.1924V58.998H38.6588V51.9156C38.6588 51.9156 33.0594 51.8723 28.7851 47.2518L30.1103 46.4916C30.3589 46.722 34.4226 50.4168 39.966 50.5133C39.976 50.5133 39.986 50.5133 39.9981 50.5133C40.0081 50.5133 40.0201 50.5133 40.0301 50.5133C45.5735 50.4148 49.6373 46.72 49.8859 46.4896L51.2131 47.2498C46.9388 51.8703 41.3393 51.9137 41.3393 51.9137V58.9961H46.618V54.1904C57.3659 52.863 60.1486 44.1636 60.1486 44.1636C60.8323 42.0641 61.9991 41.5461 61.9991 41.5461C58.9096 41.0399 57.807 43.358 57.807 43.358V43.36ZM50.9304 38.7671L50.9204 38.7789L43.6569 34.7827L43.6168 26.2468H43.6569C43.6569 26.2468 52.41 28.5866 50.9304 38.7651V38.7671ZM36.3413 26.2468H36.3814L36.3413 34.7827L29.0778 38.7789L29.0677 38.7671C27.5882 28.5866 36.3413 26.2488 36.3413 26.2488V26.2468ZM40.0201 40.8272L47.2616 44.9868V44.9987L47.1974 44.9632C44.6072 46.9721 42.1372 47.6358 40.0001 47.6378C37.8629 47.6378 35.393 46.9721 32.8027 44.9632L32.7386 44.9987V44.9868L40.0221 40.8272H40.0201Z" fill="#0056A7"/>
</g>
<defs>
<clipPath id="clip0_33_4079">
<rect width="44" height="38" fill="white" transform="translate(18 21)"/>
</clipPath>
</defs>
</svg>
