<svg width="80" height="80" viewBox="0 0 80 80" fill="none" xmlns="http://www.w3.org/2000/svg">
<rect x="0.5" y="0.5" width="79" height="79" rx="19.5" fill="white"/>
<rect x="0.5" y="0.5" width="79" height="79" rx="19.5" stroke="#E4E9F1"/>
<path d="M27.0819 30.1446C26.2913 31.7107 27.099 34.9432 28.0939 36.4999L41.7899 58H31.7841C30.2047 58 28.6575 57.0978 27.9823 56.0556L20.5129 44.3286C19.8112 43.2334 19.8471 41.4914 20.5129 40.4417L27.0819 30.1446Z" fill="url(#paint0_radial_33_2069)"/>
<path d="M32.866 40.7367C32.5029 41.3042 32.1681 42.6622 32.7223 43.7631L28.0958 36.5018C27.1009 34.9451 26.2932 31.7126 27.0839 30.1465L27.9085 28.8565C28.65 27.68 30.0326 26.9121 31.7765 26.9121H41.6121L32.866 40.7367Z" fill="url(#paint1_radial_33_2069)"/>
<path d="M53.1953 49.8554C53.984 48.2874 53.1802 45.0549 52.1853 43.5001L38.4874 22H48.495C50.0744 22 51.6216 22.9003 52.2969 23.9425L59.7662 35.6695C60.4679 36.7647 60.432 38.5067 59.7662 39.5584L53.1953 49.8554Z" fill="url(#paint2_radial_33_2069)"/>
<path d="M47.4151 39.2614C47.7801 38.694 48.1111 37.3378 47.5588 36.2351L52.1853 43.4983C53.1802 45.0531 53.9841 48.2856 53.1953 49.8536L52.3745 51.1416C51.6311 52.32 50.2485 53.0879 48.5046 53.0879H38.669L47.4151 39.2614Z" fill="url(#paint3_radial_33_2069)"/>
<defs>
<radialGradient id="paint0_radial_33_2069" cx="0" cy="0" r="1" gradientUnits="userSpaceOnUse" gradientTransform="translate(20.3188 37.657) rotate(-90) scale(26.569 29.0995)">
<stop stop-color="#D3E6F6"/>
<stop offset="0.07" stop-color="#CBE2F5"/>
<stop offset="0.17" stop-color="#B5D6F1"/>
<stop offset="0.25" stop-color="#A1CBED"/>
<stop offset="0.34" stop-color="#8FBCE4"/>
<stop offset="0.53" stop-color="#5F95CB"/>
<stop offset="0.7" stop-color="#2F6EB3"/>
<stop offset="0.82" stop-color="#205CA2"/>
<stop offset="1" stop-color="#00367F"/>
</radialGradient>
<radialGradient id="paint1_radial_33_2069" cx="0" cy="0" r="1" gradientUnits="userSpaceOnUse" gradientTransform="translate(42.9553 26.8712) scale(18.6828 18.6828)">
<stop stop-color="#D3E6F6"/>
<stop offset="0.07" stop-color="#CBE2F5"/>
<stop offset="0.17" stop-color="#B5D6F1"/>
<stop offset="0.25" stop-color="#A1CBED"/>
<stop offset="0.34" stop-color="#8FBCE4"/>
<stop offset="0.53" stop-color="#5F95CB"/>
<stop offset="0.7" stop-color="#2F6EB3"/>
<stop offset="0.82" stop-color="#205CA2"/>
<stop offset="1" stop-color="#00367F"/>
</radialGradient>
<radialGradient id="paint2_radial_33_2069" cx="0" cy="0" r="1" gradientUnits="userSpaceOnUse" gradientTransform="translate(59.9594 42.1948) rotate(90) scale(26.5674 29.0977)">
<stop stop-color="#D3E6F6"/>
<stop offset="0.07" stop-color="#CBE2F5"/>
<stop offset="0.17" stop-color="#B5D6F1"/>
<stop offset="0.25" stop-color="#A1CBED"/>
<stop offset="0.34" stop-color="#8FBCE4"/>
<stop offset="0.53" stop-color="#5F95CB"/>
<stop offset="0.7" stop-color="#2F6EB3"/>
<stop offset="0.82" stop-color="#205CA2"/>
<stop offset="1" stop-color="#00367F"/>
</radialGradient>
<radialGradient id="paint3_radial_33_2069" cx="0" cy="0" r="1" gradientUnits="userSpaceOnUse" gradientTransform="translate(38.2498 53.094) rotate(180) scale(18.6862 18.6862)">
<stop stop-color="#D3E6F6"/>
<stop offset="0.07" stop-color="#CBE2F5"/>
<stop offset="0.17" stop-color="#B5D6F1"/>
<stop offset="0.25" stop-color="#A1CBED"/>
<stop offset="0.34" stop-color="#8FBCE4"/>
<stop offset="0.53" stop-color="#5F95CB"/>
<stop offset="0.7" stop-color="#2F6EB3"/>
<stop offset="0.82" stop-color="#205CA2"/>
<stop offset="1" stop-color="#00367F"/>
</radialGradient>
</defs>
</svg>
