<svg width="80" height="80" viewBox="0 0 80 80" fill="none" xmlns="http://www.w3.org/2000/svg">
<rect x="0.5" y="0.5" width="79" height="79" rx="19.5" fill="white"/>
<rect x="0.5" y="0.5" width="79" height="79" rx="19.5" stroke="#E4E9F1"/>
<path d="M46.144 44.5477C46.0554 43.9992 45.8985 43.464 45.677 42.9544C45.0437 41.4293 43.9401 40.1461 42.527 39.2916C41.4192 38.6264 40.1498 38.2788 38.8577 38.2869C37.5656 38.295 36.3007 38.6584 35.2013 39.3374C34.1786 39.9521 33.3477 40.8401 32.8022 41.9014C32.6221 42.2639 32.472 42.6406 32.3535 43.0277C32.0183 44.034 31.8893 45.0975 31.9742 46.1548C32.0592 47.212 32.3563 48.2413 32.848 49.1812C33.1855 49.7587 33.7035 50.2091 34.3223 50.4632C34.629 50.5899 34.9612 50.6426 35.2921 50.6172C35.6229 50.5917 35.9432 50.4888 36.2269 50.3167C36.5438 50.0716 36.7807 49.7381 36.9079 49.3583C37.035 48.9785 37.0466 48.5695 36.9412 48.1831C36.6913 47.2032 36.7166 46.1734 37.0144 45.2071C37.1248 44.8915 37.303 44.6039 37.5364 44.3646C37.6844 44.2222 37.8545 44.1047 38.04 44.0166C38.4298 43.8189 38.8718 43.7484 39.3037 43.8152C39.6728 43.8953 40.0178 44.0615 40.3106 44.3002C40.6034 44.5389 40.8357 44.8433 40.9886 45.1887C41.2874 45.8863 41.4431 46.6367 41.4464 47.3956C41.4585 50.7381 40.9645 54.0631 39.9813 57.2577C39.8989 57.5874 39.8073 57.9079 39.7158 58.2283C39.6242 58.5488 39.5143 58.7961 39.7158 59.0433C39.7917 59.1417 39.893 59.2177 40.0088 59.2631C40.5033 59.4646 40.9245 59.1624 41.2267 58.8327C43.0919 56.8391 44.4654 54.4371 45.2374 51.8184C45.558 50.8566 45.815 49.8746 46.0066 48.879C46.3041 47.4451 46.3536 45.9709 46.1532 44.5203" fill="#008485"/>
<path d="M59.9634 29.3383C59.9589 29.2243 59.9312 29.1125 59.8822 29.0095C59.8332 28.9065 59.7637 28.8146 59.6781 28.7392C59.5925 28.6639 59.4925 28.6067 59.3841 28.5712C59.2757 28.5356 59.1613 28.5225 59.0477 28.5325C58.5753 28.6003 58.1174 28.7457 57.6924 28.9629C49.2039 32.1861 39.6348 32.7997 30.6883 31.5085C29.1591 31.2888 27.6116 30.9866 26.1098 30.7393C25.1941 30.5928 24.196 30.3731 23.2254 30.2998C22.3518 30.1307 21.4468 30.3045 20.698 30.7851C20.3114 31.2069 20.0713 31.7423 20.0136 32.3115C19.9558 32.8808 20.0835 33.4535 20.3775 33.9443C21.0329 35.0643 21.9831 35.9828 23.1246 36.5998C24.1789 37.351 25.4298 37.7775 26.7234 37.8269C30.1389 37.6163 33.5545 37.2775 36.9518 36.8379C42.7482 36.087 48.8559 35.3728 54.2585 33.1293C56.067 32.4163 57.7705 31.4613 59.3224 30.2906C59.5971 30.08 60 29.7321 60 29.3749" fill="#008485"/>
<path d="M35.6155 26.4273C35.6603 27.2823 36.0315 28.0875 36.6525 28.6769C37.2735 29.2662 38.0971 29.5947 38.9532 29.5947C39.8094 29.5947 40.6329 29.2662 41.2539 28.6769C41.875 28.0875 42.2462 27.2823 42.291 26.4273C42.2936 26.1521 42.2341 25.8797 42.117 25.6306C41.8331 25.0171 41.5034 24.7149 41.5401 24.0007C41.5401 23.0209 40.3222 23.0026 39.6446 23.0026C38.8909 22.9781 38.1418 23.1285 37.456 23.4421C36.9161 23.7167 36.4607 24.1324 36.1382 24.6452C35.8158 25.1579 35.6383 25.7485 35.6246 26.3541V26.4273" fill="#E90061"/>
</svg>
