<svg width="36" viewBox="22 22 36 36" fill="none" xmlns="http://www.w3.org/2000/svg">
    <mask id="bankMask" style="mask-type:luminance" maskUnits="userSpaceOnUse" x="22" y="22" width="36" height="36">
        <!-- (원본 mask 경로 그대로) -->
        <path d="M35.9373 55.258C33.9519 55.0626 31.5791 54.4378 29.5094 52.6441C27.6047 51.0054 26.4276 48.7469 25.855 46.7545C25.2706 44.7199 25.0248 42.3469 25.9914 42.5355C26.2895 42.5894 26.8048 43.898 27.3622 44.8479C27.9398 45.8281 28.408 46.3738 28.8459 46.7073C29.0463 46.8572 29.7249 45.3498 30.7135 44.4892C31.2877 44.0109 31.9091 43.8509 32.0203 45.2673C32.1381 46.9987 31.8266 49.0618 32.3352 49.0618C32.8 49.0618 33.871 48.7064 36.2135 48.506C37.0976 48.4319 37.6029 48.5987 36.7608 49.7793C36.3398 50.3721 35.7807 51.2058 34.4503 52.1641C36.4426 54.0302 38.8305 53.8029 38.876 54.5961C38.9029 55.0542 38.0121 55.3069 36.8434 55.3069C36.5554 55.3069 36.2506 55.29 35.9373 55.2563M42.6415 38.4901C40.8177 38.1094 40.4438 36.4539 40.4438 36.4539C40.2939 35.8694 40.2586 35.1318 40.3815 34.1903C40.6274 32.2231 41.1595 31.3036 41.7624 29.7777C42.5758 27.7314 40.6021 26.5339 40.9238 25.7844C41.37 24.7671 42.7779 26.0606 44.3558 26.1566C45.7115 26.229 46.5266 26.165 47.5791 26.3065C48.9802 26.4901 50.6592 26.9667 51.4052 27.8425C52.0873 28.6459 51.0398 29.621 49.7885 29.0113C48.8691 28.5633 47.7138 28.8362 48.3908 29.7945C49.2059 30.704 49.5966 30.7292 50.4335 30.9465C52.7255 31.5528 52.7727 33.7524 51.2166 34.8842C49.4568 36.1776 47.6599 35.6404 46.9493 33.1073C46.5889 31.8408 45.6997 31.1991 44.7802 31.5596C43.8742 31.9166 44.4114 33.5806 45.1052 35.125C46.3026 38.1852 43.8809 38.5069 42.9514 38.5069C42.8048 38.5069 42.6971 38.5002 42.6432 38.4934M41.3263 55.834C41.3111 55.4298 41.9022 55.3271 41.9022 55.3271C47.2288 54.2761 45.6711 50.7831 43.7883 49.0029C42.9951 48.2568 35.5854 41.8585 35.5854 41.8585C28.5192 35.7718 29.085 31.0257 29.085 31.0257C29.4336 25.1781 34.543 23.728 38.4162 24.0665C38.8692 24.1053 39.1235 24.3764 39.0377 24.7604C38.9568 25.173 38.3556 25.2 38.3556 25.2C37.1229 25.2724 36.0215 25.3954 35.1846 25.9629C32.0674 28.0631 32.9802 31.632 37.1414 35.6067C37.6668 36.1035 38.2226 36.6341 38.7968 37.1713C38.7968 37.1713 39.6254 37.9073 41.2943 39.4871C44.4956 42.4345 46.2453 44.0227 46.2453 44.0227C51.8869 48.7199 49.9553 53.0163 47.8048 54.5052C46.1578 55.6454 44.339 56.1793 41.9494 56.309L41.8887 56.3123C41.6715 56.3123 41.3414 56.1793 41.3279 55.834M39.1791 22.0185C29.2534 22.4665 21.5691 30.8842 22.0188 40.8143C22.4684 50.7427 30.8852 58.4294 40.8126 57.9814C50.7367 57.5334 58.4293 49.1191 57.9814 39.189C57.5469 29.5318 49.5797 22.0017 40.006 22C39.7332 22 39.457 22.0067 39.1808 22.0185" fill="white"/>
    </mask>
    <g mask="url(#bankMask)"><path d="M22 22H58V58H22V22Z" fill="#0046FF"/></g>
</svg>
