<svg width="80" height="80" viewBox="0 0 80 80" fill="none" xmlns="http://www.w3.org/2000/svg">
<rect x="0.5" y="0.5" width="79" height="79" rx="19.5" fill="white"/>
<rect x="0.5" y="0.5" width="79" height="79" rx="19.5" stroke="#E4E9F1"/>
<path d="M22.2049 33H18.5917L12.8851 39.6422V33H10V47.4909H12.8851V40.8318L18.7801 47.4909H22.3933L15.9797 40.2455L22.2049 33Z" fill="#140064"/>
<path d="M70 47.4909L65.6671 42.4786L69.8709 37.4662H66.7594L63.0954 41.8034V33H60.2124V47.4909H63.0954V43.1432L66.8292 47.4909H70Z" fill="#140064"/>
<path d="M29.3042 37.117C28.0914 37.117 27.0563 37.6398 26.2054 38.3574V33H23.3203V42.5442C23.3203 45.4187 25.2253 47.8233 28.7983 47.8233C32.0136 47.8233 34.2764 45.6029 34.2764 42.4913C34.2764 39.5448 32.329 37.117 29.3042 37.117ZM28.7983 45.2155C28.0848 45.2131 27.4001 44.9336 26.8887 44.436C26.3773 43.9384 26.0792 43.2616 26.0572 42.5484C26.0572 42.523 26.0572 42.4976 26.0572 42.4722C26.0572 41.928 26.2186 41.396 26.521 40.9435C26.8233 40.491 27.2531 40.1383 27.7559 39.93C28.2587 39.7217 28.812 39.6672 29.3458 39.7734C29.8795 39.8796 30.3698 40.1417 30.7547 40.5265C31.1395 40.9113 31.4016 41.4016 31.5078 41.9354C31.6139 42.4692 31.5594 43.0225 31.3512 43.5253C31.1429 44.0281 30.7902 44.4579 30.3377 44.7602C29.8852 45.0626 29.3532 45.224 28.8089 45.224L28.7983 45.2155Z" fill="#140064"/>
<path d="M54.6666 37.117C53.4363 37.1021 52.2466 37.5562 51.3391 38.387V37.4324H48.4562V47.4888H51.3391V41.852C51.3391 41.2878 51.5632 40.7468 51.9622 40.3478C52.3611 39.9489 52.9022 39.7247 53.4664 39.7247C54.0306 39.7247 54.5717 39.9489 54.9706 40.3478C55.3696 40.7468 55.5937 41.2878 55.5937 41.852V47.4888H58.4957V41.0477C58.4957 41.0075 58.4957 40.9694 58.4957 40.9313C58.4879 39.9195 58.0815 38.9516 57.3647 38.2375C56.6478 37.5235 55.6784 37.1208 54.6666 37.117Z" fill="#140064"/>
<path d="M41.1789 37.117C37.9276 37.117 35.6416 39.3374 35.6416 42.4511C35.6416 45.3954 37.6101 47.8275 40.6688 47.8275C41.3349 47.8158 41.9899 47.6545 42.5852 47.3555C43.1806 47.0565 43.7012 46.6276 44.1084 46.1003V47.4889H46.7183V42.4574H46.695L46.7183 42.4003C46.7183 39.5279 44.7963 37.117 41.1789 37.117ZM41.2403 45.1922C40.696 45.1922 40.164 45.0308 39.7115 44.7285C39.259 44.4261 38.9063 43.9964 38.698 43.4935C38.4898 42.9907 38.4353 42.4375 38.5414 41.9037C38.6476 41.3699 38.9097 40.8796 39.2945 40.4948C39.6794 40.1099 40.1697 39.8478 40.7034 39.7417C41.2372 39.6355 41.7905 39.69 42.2933 39.8983C42.7961 40.1065 43.2259 40.4592 43.5282 40.9117C43.8306 41.3643 43.992 41.8963 43.992 42.4405C43.9926 42.8019 43.9219 43.1598 43.7842 43.4939C43.6464 43.8279 43.4442 44.1316 43.189 44.3875C42.9339 44.6434 42.6309 44.8466 42.2972 44.9854C41.9636 45.1242 41.6059 45.1959 41.2445 45.1965L41.2403 45.1922Z" fill="#140064"/>
</svg>
