<svg width="80" height="80" viewBox="0 0 80 80" fill="none" xmlns="http://www.w3.org/2000/svg">
<rect x="0.5" y="0.5" width="79" height="79" rx="19.5" fill="white"/>
<rect x="0.5" y="0.5" width="79" height="79" rx="19.5" stroke="#E4E9F1"/>
<g clip-path="url(#clip0_33_479)">
<path d="M59.3564 40.3632L59.0084 40.1519C57.8274 39.0084 56.1811 38.5117 53.9888 38.6343C52.1619 38.7442 50.7113 39.4481 49.6043 40.1138C49.6043 40.0969 49.6043 40.08 49.6043 40.0631C49.6168 39.4795 49.6596 38.8968 49.7326 38.3173C49.8078 37.7281 49.8514 37.1355 49.8631 36.5419C49.883 35.9918 49.7891 35.4434 49.5869 34.9292C49.5621 34.8689 49.5187 34.8176 49.4626 34.7824C49.4064 34.7471 49.3404 34.7298 49.2737 34.7326C48.6821 34.7453 47.5338 35.1384 47.2489 35.3773L47.0967 35.7007C47.0967 36.3347 46.9444 38.1123 46.7987 38.3279L46.7204 38.5392C46.4732 40.7587 46.4652 42.9971 46.6965 45.2182C46.7226 45.4084 47.101 45.698 47.3946 45.8015C47.6882 45.9051 48.7191 45.6557 49.2976 45.4422L49.5151 45.4105C49.559 45.4046 49.6013 45.3902 49.6394 45.3682C49.6775 45.3462 49.7107 45.317 49.737 45.2823C49.7634 45.2477 49.7823 45.2083 49.7928 45.1664C49.8032 45.1245 49.8049 45.0811 49.7979 45.0385L49.8087 44.4869C50.2285 42.834 51.9227 40.8663 53.9236 40.5683C55.0567 40.395 55.9505 40.6739 56.6552 41.4137C56.7509 41.5469 56.9575 42.7347 56.2202 44.1022C55.6634 45.1146 54.5543 45.9643 53.0928 46.499C51.7096 47.0084 50.1871 47.2155 48.3081 47.15L46.5399 45.9939C45.0523 44.9772 43.2015 43.7112 41.5203 43.0919C41.2267 42.9841 40.6961 42.5572 40.3807 42.3014L40.2067 42.164C39.2389 41.4074 37.3968 40.2153 35.9157 39.2578L35.1176 38.7379V38.5751C35.1589 38.5308 36.0875 37.9897 36.0875 37.9897C37.3925 37.2499 37.9905 36.8864 38.1189 36.6983C38.0928 36.7279 38.2928 36.5989 38.2928 36.5989L41.5182 34.8256C44.613 33.1707 48.1232 31.2938 49.9675 29.4402L50.0567 29.157L50.0958 28.9055C50.217 28.5644 50.2268 28.1954 50.1241 27.8487C50.1079 27.7909 50.0762 27.7384 50.0322 27.6964C49.9883 27.6544 49.9337 27.6246 49.874 27.6098C48.4364 27.4724 46.5791 28.3094 44.8892 29.8481C44.5787 30.1276 44.2286 30.3625 43.8496 30.5456L43.5908 30.6851C41.7291 31.7144 37.5316 34.2444 35.3263 35.6119C35.5349 32.8321 35.9089 30.0665 36.4464 27.3287L36.3855 27.0032L36.168 26.5805L35.9962 26.2867L35.9462 26.274C35.7829 26.1952 35.605 26.1492 35.423 26.1386C35.241 26.1281 35.0588 26.1533 34.887 26.2127L34.452 26.367L33.8692 26.5784C33.8128 26.5891 33.7604 26.6144 33.7175 26.6516C33.6747 26.6888 33.6429 26.7365 33.6256 26.7897C32.5773 29.2542 31.703 33.3123 31.5073 36.5503C29.8934 35.5663 28.2234 34.6722 26.5051 33.8724L26.4768 33.8576L26.3616 33.8344C26.0223 33.79 25.6047 33.5469 25.2024 33.3102L24.4064 32.8093L23.195 32.0441C23.208 32.0441 22.8753 31.9744 22.8753 31.9744C22.3511 32.0611 21.3529 32.7184 21.0506 33.1622C21.0128 33.2195 20.9939 33.2866 20.9962 33.3546C21.0013 33.4495 21.0196 33.5434 21.0506 33.6336L21.1049 33.8745L21.1615 34.0204C21.7443 34.6016 23.2167 35.5717 24.663 36.3284L26.3376 37.1907L28.8975 38.5582C28.8975 38.5688 29.3324 38.8943 29.3324 38.8943L29.6347 39.0634L29.6869 39.0951L25.0327 42.1218L22.5904 43.7006C22.1328 43.9457 21.6616 44.1659 21.1789 44.3601C20.7129 44.5142 20.3208 44.8283 20.0762 45.2435L20.011 45.3809L20.0784 45.4718L20.2633 45.6092L20.5177 45.7698L20.7852 45.9495L21.0419 45.9875C21.4768 46.0044 22.1119 45.7656 23.3059 45.2583C24.3933 44.7849 27.3794 43.0412 28.6517 42.2993L29.1954 41.9823C29.4129 41.9992 29.6674 41.8153 29.887 41.6525C30.2466 41.3919 30.632 41.1667 31.0375 40.9804C31.0375 40.9804 31.242 40.8726 31.4203 40.7691C31.4203 40.8261 31.4203 40.9128 31.4203 40.9128C31.4768 44.6961 31.703 47.4459 32.1271 49.5658V49.606L32.1684 49.6905C32.3859 49.9907 32.6165 50.8868 32.8209 51.6773L33.3059 53.2562C33.3059 53.2752 33.4451 53.4062 33.4451 53.4062C33.7213 53.5859 34.563 53.9008 35.1284 53.829L35.2676 53.812L35.3568 53.6197C35.4031 53.3814 35.4249 53.1393 35.422 52.8969C35.422 52.6073 35.4003 52.2881 35.372 51.8992L35.335 51.3286C35.1567 48.6971 34.9871 44.88 34.9871 42.3437C34.9871 42.2739 34.9871 42.2105 34.9871 42.1323C35.446 42.4156 37.4686 43.652 37.4686 43.652C40.907 45.8184 46.1006 49.0945 49.2389 49.9611C49.3171 49.985 49.4005 49.9882 49.4804 49.9703C49.5603 49.9525 49.6338 49.9143 49.6935 49.8596L50.1785 49.5574L50.2654 49.5215C50.4481 49.439 50.5699 49.1431 50.5895 48.8219C53.2363 48.695 56.927 47.7038 58.8996 45.2921C59.608 44.4187 59.9981 43.3416 60.0088 42.2296C60.0088 41.4285 59.7783 40.7331 59.3564 40.3527" fill="#F8B500"/>
</g>
<defs>
<clipPath id="clip0_33_479">
<rect width="40" height="27.6923" fill="white" transform="translate(20 26.1539)"/>
</clipPath>
</defs>
</svg>
