<svg width="80" height="80" viewBox="0 0 80 80" fill="none" xmlns="http://www.w3.org/2000/svg">
<rect x="0.5" y="0.5" width="79" height="79" rx="19.5" fill="white"/>
<rect x="0.5" y="0.5" width="79" height="79" rx="19.5" stroke="#E4E9F1"/>
<path d="M31.0663 39.9095C35.5635 42.8013 35.9993 45.3894 35.0327 47.5226C34.6327 48.4133 33.7877 49.1892 33.7877 49.1892C33.7877 49.1892 37.6047 47.3479 38.8127 44.6561C40.1632 41.6495 38.7003 38.4658 34.6099 35.7061C31.2212 33.4223 32.6291 31.262 32.6291 31.262C32.6291 31.262 33.7463 28.4159 37.9189 28.4171C42.1853 28.4171 42.5001 31.286 42.5001 31.286L44.1666 27.9838C44.3999 27.4635 41.4507 26.0012 37.2109 26C33.0365 26 29.1868 27.6783 27.6862 31.0219C25.8518 35.1049 28.18 38.0566 31.0663 39.9095Z" fill="#1277BD"/>
<path d="M58.5036 44.5377C59.0893 42.8952 62.4305 34.6383 56.6815 34.6371C52.7577 34.6371 48.3178 37.7153 48.3178 37.7153L52.2139 28.6492C52.2139 28.6492 53.2922 26.4759 50.7991 26.4747H46.7821C46.7821 26.4747 48.2728 27.0629 46.9556 29.9973L41.1455 43.231C41.1455 43.231 37.8469 50.3866 31.2128 50.3854C22.4813 50.3854 23.1572 41.5126 23.1572 41.5126L20 48.48C20 48.48 22.8226 53.8438 29.7259 53.8451C33.9003 53.8451 36.5483 52.0853 37.8346 50.6971C37.8346 50.6971 36.5884 53.5982 39.8949 53.5982H43.2898C43.2898 53.5982 42.3337 52.9315 42.4047 52.0865C42.4756 51.2415 43.6114 48.572 44.3798 47.1745C45.1483 45.7771 48.9554 38.9973 53.3922 38.5714C57.3919 38.1887 51.3645 50.7521 51.3645 50.7521C51.3645 50.7521 50.2004 53.4716 53.2243 53.5519C56.2482 53.6321 56.8043 53.629 56.8043 53.629C56.8043 53.629 55.6667 52.7785 56.2284 51.2292C56.7901 49.6799 57.9172 46.1814 58.5036 44.5377Z" fill="#1277BD"/>
</svg>
