<svg width="80" height="80" viewBox="0 0 80 80" fill="none" xmlns="http://www.w3.org/2000/svg">
<rect x="0.5" y="0.5" width="79" height="79" rx="19.5" fill="white"/>
<rect x="0.5" y="0.5" width="79" height="79" rx="19.5" stroke="#E4E9F1"/>
<g clip-path="url(#clip0_33_4123)">
<path d="M14.073 39.6818C14.0529 39.6883 14.0353 39.7007 14.0224 39.7174C14.0095 39.7342 14.0021 39.7544 14.0011 39.7755C14.0001 39.7966 14.0055 39.8175 14.0167 39.8354C14.0279 39.8533 14.0443 39.8674 14.0637 39.8757L22.0863 45.174L24.3844 34.3596L14.073 39.6818Z" fill="#E72410"/>
<path d="M61.5752 34.3583H59.5467C59.4213 34.3633 59.2981 34.393 59.1842 34.4459L49.0163 39.6859C48.996 39.6918 48.9781 39.7039 48.9649 39.7204C48.9518 39.737 48.9441 39.7572 48.9429 39.7784C48.9417 39.7995 48.9472 39.8204 48.9584 39.8383C48.9696 39.8562 48.9862 39.8702 49.0057 39.8784L56.9021 45.0679C57.0087 45.132 57.1297 45.1686 57.254 45.1741H59.2812C59.386 45.1741 59.4006 45.1263 59.3144 45.0692L51.2626 39.7708L61.5965 34.4472C61.6894 34.3981 61.6814 34.3583 61.5752 34.3583Z" fill="#F08300"/>
<path d="M57.23 34.3583H43.0953L40.7986 45.1767H54.9307C55.0356 45.1767 55.0502 45.1289 54.9625 45.0705L46.924 39.7735L57.2513 34.4472C57.3442 34.3981 57.3349 34.3583 57.23 34.3583Z" fill="#E72410"/>
<path d="M65.9137 34.3583H63.8865C63.7611 34.3631 63.6379 34.3929 63.5241 34.4459L53.3562 39.6859C53.3359 39.6918 53.3179 39.7039 53.3047 39.7204C53.2916 39.737 53.2839 39.7572 53.2827 39.7784C53.2816 39.7995 53.287 39.8204 53.2982 39.8383C53.3095 39.8562 53.326 39.8702 53.3455 39.8784L61.234 45.0679C61.3407 45.1319 61.4616 45.1684 61.5858 45.1741H63.6144C63.7192 45.1741 63.7339 45.1263 63.6462 45.0692L55.5945 39.7708L65.9297 34.4472C66.0292 34.3981 66.0199 34.3583 65.9137 34.3583Z" fill="#FABE00"/>
<path d="M56.6034 27.2783H23.3315C21.4729 27.2783 20.1745 28.4479 19.8679 29.8923C19.7866 30.259 19.8135 30.6414 19.9455 30.993C20.0775 31.3447 20.3088 31.6504 20.6113 31.873L32.5662 39.7655H32.5755L56.6246 27.3672C56.7188 27.3194 56.7096 27.2783 56.6034 27.2783Z" fill="#E72410"/>
<path d="M51.3263 52.1492L32.5768 39.7668H32.5689L17.2552 47.6619C16.4401 48.1425 15.84 48.8488 15.6714 49.6427C15.3621 51.0831 16.164 52.254 18.0226 52.254H51.2944C51.4006 52.254 51.4139 52.2076 51.3263 52.1492Z" fill="#E72410"/>
</g>
<defs>
<clipPath id="clip0_33_4123">
<rect width="52" height="24.9744" fill="white" transform="translate(14 27.2796)"/>
</clipPath>
</defs>
</svg>
