<svg width="80" height="80" viewBox="0 0 80 80" fill="none" xmlns="http://www.w3.org/2000/svg">
<rect x="0.5" y="0.5" width="79" height="79" rx="19.5" fill="white"/>
<rect x="0.5" y="0.5" width="79" height="79" rx="19.5" stroke="#E4E9F1"/>
<path d="M47.9746 28.2693C46.5217 28.2693 41.674 31.832 41.674 31.832C41.674 31.832 46.5217 35.3959 47.9746 35.3959C49.9998 35.3959 51.6879 34.0262 51.6879 31.832C51.6879 29.6377 49.9998 28.2693 47.9746 28.2693Z" fill="#38D200"/>
<path d="M31.4917 60C32.9447 60 37.7924 56.4373 37.7924 56.4373C37.7924 56.4373 32.949 52.8734 31.4917 52.8734C29.4666 52.8734 27.7791 54.2431 27.7791 56.4373C27.7791 58.6316 29.4697 60 31.4917 60Z" fill="#0473EA"/>
<path d="M49.2402 40.2485L36.6919 31.9066L43.9431 26.8286C45.6177 25.6559 46.138 23.3406 44.9924 21.6439C44.4436 20.8263 43.5926 20.2601 42.6264 20.0699C41.6602 19.8797 40.6581 20.0811 39.8404 20.6298L39.7824 20.6693L31.1189 26.7928C30.3011 27.3705 29.6365 28.1389 29.1826 29.0313C28.7287 29.9237 28.4991 30.9133 28.5138 31.9145C28.5286 32.9156 28.7871 33.8981 29.267 34.7768C29.747 35.6555 30.4339 36.404 31.2683 36.9574L50.8802 49.9557C53.1102 46.5214 52.6782 42.4791 49.2402 40.2485Z" fill="#0473EA"/>
<path d="M29.1909 39.1209L50.8181 53.0253C51.6444 53.5576 52.2256 54.3962 52.4339 55.3568C52.6423 56.3175 52.4607 57.3215 51.9291 58.1483C51.3968 58.9747 50.5581 59.5559 49.5975 59.7642C48.6369 59.9725 47.6329 59.7909 46.806 59.2593L31.4185 49.3688C29.7647 48.3052 28.6011 46.6283 28.1834 44.707C27.7656 42.7856 28.128 40.777 29.1909 39.1228V39.1209Z" fill="#38D200"/>
</svg>
