<svg width="36" viewBox="22 22 36 36" fill="none" xmlns="http://www.w3.org/2000/svg">
    <path d="M58 40C58 43.5589 56.945 47.038 54.9683 49.9974C52.9917 52.9569 50.1821 55.2641 46.8946 56.6272C43.6071 57.9904 39.9894 58.3484 36.4984 57.6561C33.0075 56.9638 29.8002 55.2522 27.2818 52.7376C24.7633 50.223 23.0469 47.0183 22.3492 43.5284C21.6516 40.0386 22.0041 36.4203 23.3623 33.1307C24.7205 29.8412 27.0233 27.0281 29.9798 25.0469C32.9363 23.0657 36.4137 22.0054 39.9726 22C42.3387 21.9964 44.6822 22.4593 46.8693 23.3623C49.0563 24.2653 51.0438 25.5906 52.7182 27.2624C54.3926 28.9342 55.7209 30.9197 56.6272 33.1054C57.5335 35.291 58 37.6339 58 40Z" fill="white"/>
    <path d="M39.9726 57.1637C43.3678 57.1664 46.6876 56.1621 49.512 54.2778C52.3363 52.3935 54.5384 49.7138 55.8396 46.5778C57.1407 43.4418 57.4826 39.9903 56.8219 36.6599C56.1612 33.3296 54.5276 30.27 52.1277 27.8683C49.7279 25.4665 46.6696 23.8305 43.3398 23.1671C40.01 22.5037 36.5582 22.8428 33.4212 24.1415C30.2841 25.4401 27.6027 27.6401 25.7161 30.4629C23.8295 33.2858 22.8225 36.6048 22.8225 40C22.8207 42.2533 23.263 44.4849 24.1241 46.5672C24.9851 48.6496 26.2481 50.5418 27.8408 52.1358C29.4335 53.7298 31.3247 54.9942 33.4064 55.857C35.488 56.7197 37.7192 57.1637 39.9726 57.1637Z" fill="#0083CA"/>
    <mask id="mask0_15_1793" style="mask-type:luminance" maskUnits="userSpaceOnUse" x="22" y="22" width="36" height="36">
        <path d="M39.9726 57.1637C43.3645 57.1637 46.6803 56.1579 49.5006 54.2735C52.3209 52.389 54.5191 49.7105 55.8171 46.5768C57.1152 43.443 57.4548 39.9947 56.793 36.6679C56.1313 33.3412 54.4979 30.2853 52.0995 27.8868C49.701 25.4884 46.6451 23.855 43.3184 23.1933C39.9916 22.5315 36.5433 22.8711 33.4095 24.1692C30.2757 25.4672 27.5973 27.6654 25.7128 30.4857C23.8284 33.306 22.8225 36.6218 22.8225 40.0137C22.8261 44.5611 24.6342 48.9212 27.8497 52.1367C31.0651 55.3521 35.4252 57.1601 39.9726 57.1637Z" fill="white"/>
    </mask>
    <g mask="url(#mask0_15_1793)">
        <path d="M40.1644 48.2803C47.7181 48.2803 54.1613 50.3914 56.9443 53.3663C57.869 51.1716 58.3356 48.811 58.3152 46.4295C58.1851 41.6894 56.2106 37.187 52.8119 33.8803C49.4131 30.5736 44.8583 28.7234 40.1164 28.7234C35.3745 28.7234 30.8197 30.5736 27.4209 33.8803C24.0222 37.187 22.0477 41.6894 21.9176 46.4295C21.9285 48.7883 22.4183 51.1202 23.3571 53.2841C26.1811 50.3915 32.6381 48.2803 40.1644 48.2803Z" fill="#0083CA"/>
        <path d="M40.1645 48.294C47.6908 48.294 54.1203 50.3915 56.9032 53.3389C57.8196 51.1705 58.286 48.8385 58.2741 46.4844C58.2741 41.6705 56.3618 37.0538 52.9579 33.6499C49.554 30.2459 44.9372 28.3336 40.1233 28.3336C35.3094 28.3336 30.6927 30.2459 27.2888 33.6499C23.8848 37.0538 21.9725 41.6705 21.9725 46.4844C21.9745 48.8441 22.4646 51.1778 23.412 53.3389C26.2635 50.3915 32.6519 48.294 40.1645 48.294Z" fill="#0085CB"/>
        <!-- (중간 그라데이션 패스들 동일) -->
        <path d="M40.0959 50.227C46.7448 50.227 52.434 51.4882 54.8743 53.2704C55.6871 52.0512 56.1299 50.6228 56.1492 49.1576C56.1492 43.249 48.9519 37.7106 40.0959 37.7106C31.2398 37.7106 24.0426 43.1942 24.0426 49.1576C24.0619 50.6228 24.5047 52.0512 25.3175 53.2704C27.744 51.4882 33.4607 50.227 40.0959 50.227Z" fill="white"/>
    </g>
    <path d="M39.9725 44.332C34.6332 44.2846 29.3278 45.1851 24.3031 46.9916C25.6511 50.0217 27.8487 52.596 30.6298 54.4026C33.4109 56.2093 36.6561 57.1709 39.9725 57.1709C43.2889 57.1709 46.5342 56.2093 49.3153 54.4026C52.0964 52.596 54.294 50.0217 55.642 46.9916C50.6173 45.1851 45.3119 44.2846 39.9725 44.332Z" fill="#0083CA"/>
</svg>
