<svg width="80" height="80" viewBox="0 0 80 80" fill="none" xmlns="http://www.w3.org/2000/svg">
<rect x="0.5" y="0.5" width="79" height="79" rx="15.5" fill="white"/>
<rect x="0.5" y="0.5" width="79" height="79" rx="15.5" stroke="#E4E9F1"/>
<path d="M58 40C58 43.5589 56.945 47.038 54.9683 49.9974C52.9917 52.9569 50.1821 55.2641 46.8946 56.6272C43.6071 57.9904 39.9894 58.3484 36.4984 57.6561C33.0075 56.9638 29.8002 55.2522 27.2818 52.7376C24.7633 50.223 23.0469 47.0183 22.3492 43.5284C21.6516 40.0386 22.0041 36.4203 23.3623 33.1307C24.7205 29.8412 27.0233 27.0281 29.9798 25.0469C32.9363 23.0657 36.4137 22.0054 39.9726 22C42.3387 21.9964 44.6822 22.4593 46.8693 23.3623C49.0563 24.2653 51.0438 25.5906 52.7182 27.2624C54.3926 28.9342 55.7209 30.9197 56.6272 33.1054C57.5335 35.291 58 37.6339 58 40Z" fill="white"/>
<path d="M39.9726 57.1637C43.3678 57.1664 46.6876 56.1621 49.512 54.2778C52.3363 52.3935 54.5384 49.7138 55.8396 46.5778C57.1407 43.4418 57.4826 39.9903 56.8219 36.6599C56.1612 33.3296 54.5276 30.27 52.1277 27.8683C49.7279 25.4665 46.6696 23.8305 43.3398 23.1671C40.01 22.5037 36.5582 22.8428 33.4212 24.1415C30.2841 25.4401 27.6027 27.6401 25.7161 30.4629C23.8295 33.2858 22.8225 36.6048 22.8225 40C22.8207 42.2533 23.263 44.4849 24.1241 46.5672C24.9851 48.6496 26.2481 50.5418 27.8408 52.1358C29.4335 53.7298 31.3247 54.9942 33.4064 55.857C35.488 56.7197 37.7192 57.1637 39.9726 57.1637Z" fill="#0083CA"/>
<mask id="mask0_15_1793" style="mask-type:luminance" maskUnits="userSpaceOnUse" x="22" y="22" width="36" height="36">
<path d="M39.9726 57.1637C43.3645 57.1637 46.6803 56.1579 49.5006 54.2735C52.3209 52.389 54.5191 49.7105 55.8171 46.5768C57.1152 43.443 57.4548 39.9947 56.793 36.6679C56.1313 33.3412 54.4979 30.2853 52.0995 27.8868C49.701 25.4884 46.6451 23.855 43.3184 23.1933C39.9916 22.5315 36.5433 22.8711 33.4095 24.1692C30.2757 25.4672 27.5973 27.6654 25.7128 30.4857C23.8284 33.306 22.8225 36.6218 22.8225 40.0137C22.8261 44.5611 24.6342 48.9212 27.8497 52.1367C31.0651 55.3521 35.4252 57.1601 39.9726 57.1637Z" fill="white"/>
</mask>
<g mask="url(#mask0_15_1793)">
<path d="M40.1644 48.2803C47.7181 48.2803 54.1613 50.3914 56.9443 53.3663C57.869 51.1716 58.3356 48.811 58.3152 46.4295C58.1851 41.6894 56.2106 37.187 52.8119 33.8803C49.4131 30.5736 44.8583 28.7234 40.1164 28.7234C35.3745 28.7234 30.8197 30.5736 27.4209 33.8803C24.0222 37.187 22.0477 41.6894 21.9176 46.4295C21.9285 48.7883 22.4183 51.1202 23.3571 53.2841C26.1811 50.3915 32.6381 48.2803 40.1644 48.2803Z" fill="#0083CA"/>
<path d="M40.1645 48.294C47.6908 48.294 54.1203 50.3915 56.9032 53.3389C57.8196 51.1705 58.286 48.8385 58.2741 46.4844C58.2741 41.6705 56.3618 37.0538 52.9579 33.6499C49.554 30.2459 44.9372 28.3336 40.1233 28.3336C35.3094 28.3336 30.6927 30.2459 27.2888 33.6499C23.8848 37.0538 21.9725 41.6705 21.9725 46.4844C21.9745 48.8441 22.4646 51.1778 23.412 53.3389C26.2635 50.3915 32.6519 48.294 40.1645 48.294Z" fill="#0085CB"/>
<path d="M40.1645 48.3214C47.6634 48.3214 54.0929 50.3915 56.8484 53.3252C57.7765 51.1604 58.2433 48.8259 58.2193 46.4707C58.0896 41.7558 56.1254 37.2775 52.7446 33.9885C49.3638 30.6995 44.8332 28.8592 40.1165 28.8592C35.3998 28.8592 30.8692 30.6995 27.4884 33.9885C24.1076 37.2775 22.1435 41.7558 22.0137 46.4707C21.9897 48.8259 22.4566 51.1604 23.3846 53.3252C26.2635 50.3915 32.6657 48.3214 40.1645 48.3214Z" fill="#0086CD"/>
<path d="M40.1646 48.3351C47.6497 48.3351 54.0519 50.3915 56.8074 53.2978C57.7254 51.1587 58.1921 48.8532 58.1783 46.5255C57.9964 41.8588 56.0146 37.4438 52.6486 34.2064C49.2825 30.969 44.7937 29.1607 40.1234 29.1607C35.4532 29.1607 30.9644 30.969 27.5984 34.2064C24.2323 37.4438 22.2505 41.8588 22.0686 46.5255C22.0483 48.8494 22.5153 51.1518 23.4395 53.2841C26.2636 50.3915 32.6932 48.3351 40.1646 48.3351Z" fill="#0088CE"/>
<path d="M40.1643 48.3625C47.6221 48.3625 54.0105 50.3915 56.766 53.2841C57.6827 51.1639 58.1495 48.8765 58.1369 46.5666C57.9552 41.9107 55.9779 37.506 52.6195 34.2761C49.2612 31.0462 44.7826 29.2421 40.1232 29.2421C35.4637 29.2421 30.9852 31.0462 27.6269 34.2761C24.2685 37.506 22.2912 41.9107 22.1095 46.5666C22.0896 48.8772 22.5567 51.1661 23.4804 53.2841C26.2633 50.3915 32.7066 48.3625 40.1643 48.3625Z" fill="#008ACF"/>
<path d="M40.1508 48.3762C47.6085 48.3762 53.9695 50.3915 56.7113 53.2567C57.6353 51.1581 58.1026 48.887 58.0822 46.594C58.0822 37.1485 50.035 29.3755 40.1097 29.3755C30.1843 29.3755 22.1508 37.1485 22.1508 46.6078C22.1319 48.8961 22.5992 51.1624 23.5217 53.2567C26.3458 50.3915 32.7205 48.3762 40.1508 48.3762Z" fill="#008CD0"/>
<path d="M40.1508 48.3899C47.5811 48.3899 53.9421 50.4051 56.6702 53.2292C57.5863 51.1522 58.0534 48.9052 58.0411 46.6352C58.0411 37.2582 50.0076 29.5263 40.1097 29.5263C30.2117 29.5263 22.2056 37.2719 22.2056 46.6352C22.1916 48.9053 22.6588 51.1527 23.5765 53.2292C26.3732 50.4051 32.7342 48.3899 40.1508 48.3899Z" fill="#008ED2"/>
<path d="M40.1508 48.4174C47.5674 48.4174 53.8599 50.4052 56.6017 53.2155C57.5193 51.1535 57.9866 48.9195 57.9726 46.6626C57.9726 37.3679 49.9665 29.6908 40.1508 29.6908C30.3351 29.6908 22.329 37.3815 22.329 46.6763C22.3231 48.928 22.7902 51.1558 23.6999 53.2155C26.4143 50.4052 32.7616 48.4174 40.1508 48.4174Z" fill="#008FD3"/>
<path d="M40.1508 48.431C47.54 48.431 53.8599 50.4052 56.6017 53.1881C57.519 51.1502 57.9866 48.9386 57.9726 46.7037C57.9726 37.4912 49.9802 29.8416 40.1508 29.8416C30.3214 29.8416 22.329 37.4912 22.329 46.7037C22.323 48.9377 22.7903 51.1477 23.6999 53.1881C26.4418 50.4052 32.7753 48.431 40.1508 48.431Z" fill="#0091D4"/>
<path d="M40.1508 48.4585C47.5125 48.4585 53.8598 50.4052 56.5331 53.1744C57.4492 51.1506 57.9168 48.9526 57.904 46.7311C57.904 37.6009 49.939 29.9924 40.0822 29.9924C30.2254 29.9924 22.2604 37.6009 22.2604 46.7311C22.2544 48.9519 22.7218 51.1484 23.6313 53.1744C26.4828 50.4052 32.789 48.4585 40.1508 48.4585Z" fill="#0093D5"/>
<path d="M40.1506 48.4722C47.4987 48.4722 53.7911 50.4051 56.4918 53.147C57.4011 51.1451 57.8687 48.9709 57.8627 46.7723C57.8627 37.7106 49.9115 30.1432 40.1232 30.1432C30.3349 30.1432 22.3837 37.7243 22.3837 46.7723C22.3777 48.9709 22.8453 51.1451 23.7546 53.147C26.5101 50.4051 32.8026 48.4722 40.1506 48.4722Z" fill="#0095D7"/>
<path d="M40.137 48.4859C47.4714 48.4859 53.7502 50.4052 56.4371 53.1196C57.3529 51.1393 57.821 48.9814 57.808 46.7997C57.808 37.8202 49.8842 30.3488 40.1096 30.3488C30.3351 30.3488 22.4386 37.8888 22.4386 46.7997C22.4332 48.9806 22.9009 51.1369 23.8096 53.1196C26.5514 50.4052 32.8301 48.4859 40.137 48.4859Z" fill="#0097D8"/>
<path d="M40.1369 48.5133C47.4575 48.5133 53.7089 50.4052 56.3958 53.1059C57.3038 51.1423 57.7717 49.0041 57.7667 46.8408C57.7667 37.9436 49.8703 30.3899 40.1232 30.3899C30.376 30.3899 22.4933 37.8888 22.4933 46.8408C22.4884 49.0041 22.9563 51.1423 23.8642 53.1059C26.5786 50.4052 32.8437 48.5133 40.1369 48.5133Z" fill="#0099D9"/>
<path d="M40.137 48.527C47.4303 48.527 53.6679 50.4189 56.3549 53.0785C57.2639 51.1347 57.732 49.0141 57.7258 46.8683C57.7258 38.0533 49.843 30.5956 40.1233 30.5956C30.4036 30.5956 22.5346 38.0533 22.5346 46.8683C22.5283 49.0141 22.9965 51.1347 23.9055 53.0785C26.6199 50.4189 32.8575 48.527 40.137 48.527Z" fill="#009BDA"/>
<path d="M40.137 48.5544C47.4028 48.5544 53.6404 50.4189 56.3 53.0647C57.2074 51.135 57.6756 49.0281 57.6709 46.8957C57.6709 38.163 49.8156 30.7464 40.1233 30.7464C30.431 30.7464 22.5757 38.163 22.5757 46.9094C22.5725 49.0372 23.0407 51.1394 23.9466 53.0647C26.6473 50.4189 32.8712 48.5544 40.137 48.5544Z" fill="#009DDC"/>
<path d="M40.1371 48.5682C47.3892 48.5682 53.5994 50.4189 56.2589 53.0373C57.166 51.1318 57.6345 49.0472 57.6298 46.9368C57.6298 38.2727 49.7882 30.8972 40.1233 30.8972C30.4585 30.8972 22.6306 38.2864 22.6306 46.9368C22.6319 49.0465 23.1001 51.1299 24.0015 53.0373C26.6885 50.4189 32.8987 48.5682 40.1371 48.5682Z" fill="#009FDD"/>
<path d="M40.137 48.5819C47.3617 48.5819 53.5582 50.4189 56.2178 53.0099C57.1267 51.1245 57.5955 49.0573 57.5887 46.9642C57.5887 38.3961 49.7745 31.048 40.137 31.048C30.4996 31.048 22.6854 38.3961 22.6854 46.9642C22.6852 49.0565 23.1537 51.1223 24.0563 53.0099C26.7159 50.4189 32.9124 48.5819 40.137 48.5819Z" fill="#00A1DE"/>
<path d="M40.1234 48.6093C47.348 48.6093 53.5171 50.4189 56.163 52.9962C57.0674 51.1287 57.5362 49.0803 57.5339 47.0054C57.5339 38.5057 49.7334 31.2125 40.1097 31.2125C30.4859 31.2125 22.7129 38.5057 22.7129 47.0054C22.7158 49.0797 23.1843 51.127 24.0838 52.9962C26.7434 50.4189 32.9261 48.6093 40.1234 48.6093Z" fill="#00A3DF"/>
<path d="M40.1233 48.623C47.3206 48.623 53.476 50.4189 56.1218 52.9688C57.0287 51.1217 57.4978 49.0905 57.4927 47.0328C57.4927 38.6154 49.7197 31.3633 40.1233 31.3633C30.527 31.3633 22.7677 38.6154 22.7677 47.0328C22.7694 49.0897 23.2382 51.1194 24.1386 52.9688C26.7845 50.4189 32.9535 48.623 40.1233 48.623Z" fill="#00A5E1"/>
<path d="M40.1232 48.6504C47.2931 48.6504 53.4484 50.4189 56.0806 52.9551C56.9798 51.1248 57.4487 49.1131 57.4515 47.0739C57.4515 38.7251 49.6921 31.5141 40.1232 31.5141C30.5543 31.5141 22.8087 38.7388 22.8087 47.0739C22.8115 49.1131 23.2804 51.1248 24.1796 52.9551C26.8118 50.4189 32.9671 48.6504 40.1232 48.6504Z" fill="#00A7E2"/>
<path d="M40.1232 48.6641C47.2793 48.6641 53.4073 50.4326 56.0394 52.9276C56.9383 51.1168 57.4074 49.123 57.4103 47.1013C57.4103 38.8758 49.6784 31.6649 40.1369 31.6649C30.5954 31.6649 22.8772 38.8484 22.8772 47.1013C22.8801 49.123 23.3492 51.1168 24.2481 52.9276C26.8528 50.5011 32.9808 48.6641 40.1232 48.6641Z" fill="#00A9E3"/>
<path d="M40.1233 48.6779C47.252 48.6779 53.3663 50.4326 55.9847 52.9002C56.8836 51.1138 57.3531 49.1422 57.3556 47.1424C57.3556 38.917 49.6511 31.8157 40.137 31.8157C30.6229 31.8157 22.9185 38.9581 22.9185 47.1424C22.921 49.1422 23.3904 51.1138 24.2894 52.9002C26.8804 50.5011 32.9946 48.6779 40.1233 48.6779Z" fill="#00ABE5"/>
<path d="M40.1232 48.7053C47.2382 48.7053 53.325 50.4326 55.9435 52.8865C56.8419 51.1146 57.3115 49.1565 57.3144 47.1698C57.3144 39.0678 49.6236 31.9665 40.1369 31.9665C30.6503 31.9665 22.9595 39.0678 22.9595 47.1698C22.9623 49.1565 23.4319 51.1146 24.3304 52.8865C26.9214 50.5011 33.0219 48.7053 40.1232 48.7053Z" fill="#00ADE6"/>
<path d="M40.1096 48.719C47.2109 48.719 53.2977 50.4326 55.9024 52.8317C56.795 51.0772 57.2644 49.1382 57.2733 47.1698C57.2733 39.15 49.61 32.0899 40.137 32.0899C30.664 32.0899 23.0144 39.1638 23.0144 47.1698C23.0238 49.1382 23.4933 51.0771 24.3853 52.8317C26.9489 50.5011 33.0357 48.719 40.1096 48.719Z" fill="#00AFE7"/>
<path d="M40.1097 48.7464C47.1972 48.7464 53.2566 50.4326 55.8476 52.8591C56.7454 51.1311 57.2155 49.2131 57.2185 47.2658C57.2185 39.3283 49.5689 32.2955 40.1233 32.2955C30.6778 32.2955 23.0419 39.3283 23.0419 47.2658C23.0512 49.2123 23.521 51.1289 24.4128 52.8591C26.9901 50.5011 33.118 48.7464 40.1097 48.7464Z" fill="#00B2E9"/>
<path d="M40.1096 48.7601C47.1697 48.7601 53.2154 50.4326 55.8064 52.8728C56.6983 51.1574 57.1683 49.254 57.1773 47.3206C57.1773 39.4653 49.5551 32.4737 40.137 32.4737C30.7189 32.4737 23.1104 39.4653 23.1104 47.3206C23.1194 49.254 23.5894 51.1574 24.4813 52.8728C27.0174 50.5012 33.118 48.7601 40.1096 48.7601Z" fill="#00B4EA"/>
<path d="M40.1096 48.7738C47.1423 48.7738 53.1743 50.4326 55.7653 52.7906C56.6551 51.0989 57.1252 49.2183 57.1362 47.3069C57.1362 39.5202 49.5277 32.5697 40.137 32.5697C30.7463 32.5697 23.1515 39.5202 23.1515 47.3069C23.1625 49.2183 23.6326 51.0989 24.5224 52.7906C27.0586 50.5011 33.118 48.7738 40.1096 48.7738Z" fill="#00B6EB"/>
<path d="M40.1097 48.8012C47.1288 48.8012 53.1333 50.4463 55.7106 52.7768C56.6134 51.0902 57.0844 49.2062 57.0815 47.2932C57.0815 39.5887 49.4867 32.6931 40.1371 32.6931C30.7875 32.6931 23.1927 39.5476 23.1927 47.2932C23.1967 49.2054 23.6672 51.0878 24.5637 52.7768C27.0861 50.5011 33.1181 48.8012 40.1097 48.8012Z" fill="#00B8ED"/>
<path d="M40.0958 48.8149C47.1011 48.8149 53.1057 50.4463 55.6693 52.7494C56.5588 51.0972 57.0295 49.2519 57.0402 47.3755C57.0402 39.7532 49.459 32.885 40.1232 32.885C30.7873 32.885 23.2336 39.7395 23.2336 47.3755C23.2443 49.2519 23.715 51.0972 24.6045 52.7494C27.1133 50.5012 33.1179 48.8149 40.0958 48.8149Z" fill="#01BBEE"/>
<path d="M40.0958 48.8423C47.0875 48.8423 53.0646 50.4463 55.6282 52.722C56.5175 51.0894 56.9885 49.2619 56.9991 47.4029C56.9991 39.8629 49.4454 33.0358 40.137 33.0358C30.8285 33.0358 23.3022 39.8903 23.3022 47.4029C23.3129 49.2619 23.7839 51.0894 24.6732 52.722C27.1545 50.5011 33.1179 48.8423 40.0958 48.8423Z" fill="#11BDF0"/>
<path d="M40.096 48.856C47.0602 48.856 53.0236 50.4463 55.5735 52.7083C56.461 51.0947 56.9321 49.2854 56.9444 47.444C56.9444 39.9726 49.4181 33.1866 40.1371 33.1866C30.8561 33.1866 23.3435 39.9726 23.3435 47.4303C23.3541 49.2763 23.8253 51.0905 24.7144 52.7083C27.182 50.5011 33.1181 48.856 40.096 48.856Z" fill="#1AC0F1"/>
<path d="M40.096 48.8697C47.0328 48.8697 52.9825 50.4463 55.5324 52.6809C56.4197 51.0871 56.8912 49.2955 56.9033 47.4714C56.9033 40.0823 49.3907 33.3374 40.1371 33.3374C30.8835 33.3374 23.3846 40.0823 23.3846 47.4714C23.395 49.2957 23.8666 51.0878 24.7555 52.6809C27.2232 50.5011 33.1181 48.8697 40.096 48.8697Z" fill="#1FC4F4"/>
<path d="M40.0959 48.9246C47.0327 48.9246 52.9687 50.4874 55.5049 52.7083C56.3921 51.1244 56.8638 49.3416 56.8758 47.5262C56.8758 40.1919 49.3769 33.4745 40.137 33.4745C30.8971 33.4745 23.412 40.1919 23.412 47.5262C23.4333 49.3404 23.9043 51.1209 24.7829 52.7083C27.2368 50.5011 33.118 48.9246 40.0959 48.9246Z" fill="#32C5F4"/>
<path d="M40.0959 48.9657C47.019 48.9657 52.955 50.5148 55.4912 52.722C56.3718 51.1503 56.8432 49.3825 56.8621 47.5811C56.8621 40.2879 49.3769 33.6116 40.137 33.6116C30.8971 33.6116 23.4257 40.2879 23.4257 47.5811C23.4446 49.3825 23.916 51.1503 24.7966 52.722C27.2505 50.5011 33.1865 48.9657 40.0959 48.9657Z" fill="#3FC7F4"/>
<path d="M40.0959 49.0069C46.9504 49.0069 52.9413 50.5423 55.4637 52.7357C56.3499 51.1813 56.822 49.4252 56.8346 47.636C56.8346 40.3839 49.3632 33.7624 40.137 33.7624C30.9108 33.7624 23.4531 40.3839 23.4531 47.636C23.4718 49.4244 23.9435 51.179 24.824 52.7357C27.278 50.5012 33.2002 49.0069 40.0959 49.0069Z" fill="#4AC8F5"/>
<path d="M40.0959 49.048C46.9504 49.048 52.9139 50.5834 55.4501 52.7631C56.3289 51.2156 56.8006 49.4704 56.821 47.6908C56.821 40.4936 49.3632 33.8995 40.1508 33.8995C30.9383 33.8995 23.4943 40.4935 23.4943 47.6771C23.5129 49.4612 23.9846 51.2113 24.8652 52.7631C27.2917 50.5834 33.214 49.048 40.0959 49.048Z" fill="#54CAF5"/>
<path d="M40.096 49.1302C46.9505 49.1302 52.9002 50.652 55.4227 52.818C56.309 51.2835 56.7814 49.5451 56.7936 47.7731C56.7936 40.6306 49.3359 34.064 40.1371 34.064C30.9383 34.064 23.5217 40.5895 23.5217 47.7593C23.5467 49.5296 24.0182 51.2648 24.8926 52.8043C27.3054 50.6108 33.214 49.1302 40.096 49.1302Z" fill="#5CCCF5"/>
<path d="M40.096 49.1302C46.9505 49.1302 52.8865 50.6519 55.409 52.8043C56.2873 51.2764 56.7593 49.5489 56.7799 47.7867C56.7799 40.6854 49.3359 34.1736 40.1508 34.1736C30.9658 34.1736 23.5217 40.6855 23.5217 47.7593C23.5423 49.5215 24.0143 51.249 24.8926 52.7768C27.3191 50.6519 33.2277 49.1302 40.096 49.1302Z" fill="#64CDF6"/>
<path d="M40.0957 49.1302C46.9503 49.1302 52.8726 50.6245 55.3813 52.7631C56.2597 51.2503 56.732 49.536 56.7522 47.7867C56.7522 40.7403 49.3219 34.2559 40.1506 34.2559C30.9792 34.2559 23.5626 40.7403 23.5626 47.7867C23.5663 49.5293 24.0145 51.2421 24.865 52.7631C27.3326 50.6793 33.2412 49.1302 40.0957 49.1302Z" fill="#6CCFF6"/>
<path d="M40.096 49.2262C46.9505 49.2262 52.8454 50.7205 55.3679 52.8317C56.2458 51.3336 56.7183 49.6327 56.7388 47.8964C56.7388 40.8911 49.3085 34.4615 40.1508 34.4615C30.9932 34.4615 23.5217 40.9048 23.5217 47.8964C23.5403 49.6329 24.0129 51.3344 24.8926 52.8317C27.3603 50.7205 33.2414 49.2262 40.096 49.2262Z" fill="#73D1F6"/>
<path d="M40.096 49.2673C46.9505 49.2673 52.8317 50.7479 55.3404 52.8591C56.2179 51.3708 56.6905 49.6788 56.7113 47.9513C56.7113 40.9871 49.2948 34.5986 40.1508 34.5986C31.0069 34.5986 23.5217 40.9871 23.5217 47.9513C23.5425 49.6788 24.0152 51.3708 24.8926 52.8591C27.374 50.7479 33.2552 49.2673 40.096 49.2673Z" fill="#7AD2F7"/>
<path d="M40.0959 49.3084C46.9504 49.3084 52.8179 50.789 55.3267 52.8728C56.1745 51.3905 56.6232 49.7136 56.629 48.0061C56.629 41.1515 49.2261 34.7357 40.0959 34.7357C30.9657 34.7357 23.645 41.0967 23.645 48.0061C23.6509 49.7136 24.0996 51.3905 24.9474 52.8728C27.3876 50.789 33.2688 49.3084 40.0959 49.3084Z" fill="#81D4F7"/>
<path d="M40.0958 49.3496C46.9504 49.3496 52.8041 50.8164 55.2992 52.8865C56.1759 51.428 56.6491 49.7626 56.6701 48.0609C56.6701 41.2064 49.2672 34.8728 40.1507 34.8728C31.0342 34.8728 23.6998 41.1927 23.6998 48.0472C23.7206 49.7575 24.1936 51.4319 25.0707 52.9002C27.4013 50.8165 33.2687 49.3496 40.0958 49.3496Z" fill="#88D6F8"/>
<path d="M40.096 49.4044C46.9506 49.4044 52.7769 50.8576 55.2857 52.914C56.1331 51.4515 56.5821 49.7923 56.588 48.1021C56.588 41.2475 49.1988 35.0099 40.1371 35.0099C31.0755 35.0099 23.6863 41.2887 23.6863 48.1021C23.6922 49.7923 24.1412 51.4515 24.9887 52.914C27.4289 50.8576 33.2826 49.4044 40.096 49.4044Z" fill="#8ED8F8"/>
<path d="M40.0959 49.4456C46.9504 49.4456 52.7631 50.8164 55.2581 52.9276C56.1292 51.4867 56.6023 49.8405 56.629 48.1569C56.629 41.3983 49.2536 35.1607 40.1782 35.1607C31.1028 35.1607 23.7273 41.3983 23.7273 48.1569C23.7474 49.8414 24.221 51.4894 25.0982 52.9276C27.4424 50.885 33.2962 49.4456 40.0959 49.4456Z" fill="#94DAF8"/>
<path d="M40.0959 49.4867C46.9504 49.4867 52.7493 50.8576 55.1759 52.9551C56.0502 51.5256 56.5237 49.8872 56.5468 48.2117C56.5468 41.4943 49.1713 35.2978 40.0959 35.2978C31.0205 35.2978 23.645 41.4943 23.645 48.2117C23.6533 49.88 24.1026 51.5165 24.9474 52.9551C27.4562 50.9124 33.2962 49.4867 40.0959 49.4867Z" fill="#9BDCF9"/>
<path d="M40.0958 49.5278C46.9503 49.5278 52.7356 50.8987 55.1758 52.9688C56.0203 51.545 56.4699 49.9219 56.4782 48.2666C56.4782 41.5902 49.1164 35.4349 40.0273 35.4349C30.9382 35.4349 23.5764 41.604 23.5764 48.2666C23.5847 49.9219 24.0343 51.545 24.8788 52.9688C27.4698 50.9535 33.3098 49.5278 40.0958 49.5278Z" fill="#A1DDF9"/>
<path d="M40.0958 49.5689C46.9503 49.5689 52.7081 50.9398 55.1758 52.9825C56.02 51.5737 56.4699 49.9638 56.4782 48.3214C56.4782 41.6999 49.1301 35.572 40.0273 35.572C30.9245 35.572 23.5764 41.6999 23.5764 48.3214C23.5863 49.9679 24.0359 51.5818 24.8788 52.9962C27.4972 50.981 33.3235 49.5689 40.0958 49.5689Z" fill="#A7DFF9"/>
<path d="M40.0959 49.6101C46.9504 49.6101 52.6945 50.9809 55.1759 53.0099C56.0426 51.6173 56.5163 50.0162 56.5468 48.3762C56.5468 41.7959 49.2124 35.709 40.0959 35.709C30.9794 35.709 23.7273 41.7959 23.7273 48.3762C23.7564 50.0164 24.2302 51.6179 25.0982 53.0099C27.511 51.0221 33.3236 49.6238 40.0959 49.6101Z" fill="#ADE1FA"/>
<path d="M40.0959 49.6649C46.8681 49.6649 52.6808 51.0358 55.1758 53.0236C56.0196 51.6397 56.4698 50.0518 56.4782 48.431C56.4782 41.8918 49.1575 35.8599 40.1233 35.8599C31.089 35.8599 23.7821 41.9056 23.7821 48.4174C23.7838 50.0415 24.2295 51.6343 25.0708 53.0236C27.5247 51.0495 33.3373 49.6649 40.0959 49.6649Z" fill="#B3E3FA"/>
<path d="M40.0959 49.706C46.8545 49.706 52.6671 51.0769 55.1759 53.0373C56.0147 51.667 56.4605 50.0925 56.4646 48.4859C56.4646 42.0015 49.1576 35.997 40.1371 35.997C31.1165 35.997 23.8096 42.0015 23.8096 48.4722C23.8183 50.0886 24.2687 51.6719 25.1119 53.051C27.5385 51.0906 33.3511 49.706 40.0959 49.706Z" fill="#B8E5FA"/>
<path d="M40.0959 49.7472C46.8545 49.7472 52.6397 51.118 55.1759 53.0647C56.019 51.7007 56.4697 50.1306 56.4782 48.527C56.4782 42.0975 49.1713 36.1889 40.1645 36.1889C31.1576 36.1889 23.8644 42.1523 23.8644 48.527C23.8751 50.1284 24.3205 51.6967 25.153 53.0647C27.6344 51.118 33.351 49.7472 40.0959 49.7472Z" fill="#BEE7FB"/>
<path d="M40.096 49.7883C46.8409 49.7883 52.6261 51.1592 55.0937 53.0785C55.9261 51.7255 56.3718 50.1703 56.3824 48.5819C56.3824 42.1935 49.0891 36.2437 40.096 36.2437C31.1029 36.2437 23.8234 42.1798 23.8234 48.5819C23.8275 50.1713 24.2737 51.7281 25.112 53.0785C27.6345 51.1592 33.3649 49.7883 40.096 49.7883Z" fill="#C4E9FB"/>
<path d="M40.0958 49.8294C46.827 49.8294 52.6122 51.2003 55.0661 53.1059C55.9029 51.7649 56.3491 50.2173 56.3548 48.6367C56.3548 42.3031 49.0753 36.4082 40.0958 36.4082C31.1164 36.4082 23.8369 42.3031 23.8369 48.6367C23.8497 50.2163 24.2954 51.762 25.1256 53.1059C27.6343 51.1866 33.3784 49.8431 40.0958 49.8294Z" fill="#CAEBFC"/>
<path d="M40.0959 49.8842C46.827 49.8842 52.5986 51.2551 55.0525 53.1196C55.8826 51.7908 56.3286 50.2582 56.3411 48.6915C56.3411 42.3991 49.0616 36.5453 40.0959 36.5453C31.1302 36.5453 23.8644 42.3991 23.8644 48.6915C23.8769 50.2582 24.323 51.7908 25.153 53.1196C27.6344 51.2277 33.3785 49.8842 40.0959 49.8842Z" fill="#CFEDFC"/>
<path d="M40.0958 49.9253C46.8133 49.9253 52.5711 51.2963 55.025 53.1333C55.8544 51.8194 56.3007 50.3001 56.3137 48.7464C56.3137 42.4951 49.0479 36.6961 40.0958 36.6961C31.1438 36.6961 23.8917 42.5088 23.8917 48.7464C23.9016 50.3029 24.343 51.8262 25.1667 53.147C27.6343 51.2551 33.3921 49.9253 40.0958 49.9253Z" fill="#D5EFFC"/>
<path d="M40.0958 49.9665C46.7995 49.9665 52.5573 51.3374 55.0112 53.1607C55.837 51.856 56.2788 50.3452 56.2862 48.8012C56.2862 42.6047 49.0341 36.8332 40.0958 36.8332C31.1575 36.8332 23.9054 42.6047 23.9054 48.8012C23.9169 50.3466 24.3635 51.8574 25.1941 53.1607C27.6343 51.2826 33.4058 49.9665 40.0958 49.9665Z" fill="#DAF1FD"/>
<path d="M40.0959 50.0076C46.7996 50.0076 52.5437 51.3785 54.9839 53.1744C55.8125 51.8855 56.2593 50.3883 56.2726 48.856C56.2726 42.7007 49.0204 36.9703 40.0959 36.9703C31.1713 36.9703 23.9329 42.7007 23.9329 48.8423C23.9395 50.3779 24.3816 51.8801 25.2078 53.1744C27.6343 51.3237 33.4195 50.0076 40.0959 50.0076Z" fill="#E0F3FD"/>
<path d="M40.0958 50.0487C46.7858 50.0487 52.5162 51.3511 54.9701 53.2018C55.786 51.9129 56.2274 50.4225 56.245 48.8971C56.245 42.8103 49.0066 37.1074 40.0958 37.1074C31.1849 37.1074 23.9602 42.8103 23.9602 48.8971C23.969 50.4238 24.4111 51.9166 25.2351 53.2018C27.6342 51.3511 33.4194 50.0625 40.0958 50.0487Z" fill="#E6F5FD"/>
<path d="M40.0959 50.1035C46.7722 50.1035 52.5026 51.3922 54.9428 53.2155C55.7663 51.9453 56.2087 50.4658 56.2177 48.952C56.2177 42.9063 48.993 37.2444 40.0959 37.2444C31.1987 37.2444 23.974 42.9063 23.974 48.952C23.989 50.4649 24.431 51.9428 25.249 53.2155C27.7029 51.3922 33.4333 50.1035 40.0959 50.1035Z" fill="#EBF7FE"/>
<path d="M40.0959 50.1447C46.7722 50.1447 52.434 51.4196 54.9154 53.2292C55.7425 51.9752 56.19 50.5091 56.204 49.0069C56.204 43.0023 48.9794 37.3953 40.0959 37.3953C31.2124 37.3953 24.0015 43.0023 24.0015 49.0069C24.0119 50.5119 24.4544 51.9822 25.2764 53.243C27.7166 51.4197 33.447 50.1447 40.0959 50.1447Z" fill="#F1FAFE"/>
<path d="M40.0959 50.1858C46.7586 50.1858 52.4341 51.4608 54.9018 53.2567C55.717 52.008 56.1592 50.5528 56.1767 49.0617C56.1767 43.112 48.9657 37.5324 40.0959 37.5324C31.2262 37.5324 24.0289 43.112 24.0289 49.0617C24.0416 50.5516 24.4791 52.0069 25.2902 53.2567C27.7304 51.4608 33.4471 50.1858 40.0959 50.1858Z" fill="#F7FCFE"/>
<path d="M40.0959 50.227C46.7448 50.227 52.434 51.4882 54.8743 53.2704C55.6871 52.0512 56.1299 50.6228 56.1492 49.1576C56.1492 43.249 48.9519 37.7106 40.0959 37.7106C31.2398 37.7106 24.0426 43.1942 24.0426 49.1576C24.0619 50.6228 24.5047 52.0512 25.3175 53.2704C27.744 51.4882 33.4607 50.227 40.0959 50.227Z" fill="white"/>
</g>
<path d="M39.9725 44.332C34.6332 44.2846 29.3278 45.1851 24.3031 46.9916C25.6511 50.0217 27.8487 52.596 30.6298 54.4026C33.4109 56.2093 36.6561 57.1709 39.9725 57.1709C43.2889 57.1709 46.5342 56.2093 49.3153 54.4026C52.0964 52.596 54.294 50.0217 55.642 46.9916C50.6173 45.1851 45.3119 44.2846 39.9725 44.332Z" fill="#0083CA"/>
</svg>
