<svg width="80" height="80" viewBox="0 0 80 80" fill="none" xmlns="http://www.w3.org/2000/svg">
<rect x="0.5" y="0.5" width="79" height="79" rx="19.5" fill="white"/>
<rect x="0.5" y="0.5" width="79" height="79" rx="19.5" stroke="#E4E9F1"/>
<path d="M57 23H23V57H57V23Z" fill="#0091D0"/>
<path d="M23 23L31.4982 31.5054L39.9964 23H23Z" fill="#0091D0"/>
<path d="M23 23V39.9964L31.4982 31.5054L23 23Z" fill="#009CD8"/>
<path d="M39.9964 39.9964L31.5054 31.4982L23 39.9964H39.9964Z" fill="#0091D0"/>
<path d="M39.9964 39.9964V23L31.5054 31.4982L39.9964 39.9964Z" fill="#0082C9"/>
<path d="M39.9964 23V39.9964L48.4946 31.5054L39.9964 23Z" fill="#0070BB"/>
<path d="M57 39.9964L48.5018 31.4982L40.0036 39.9964H57Z" fill="#004C98"/>
<path d="M23 40.0036L31.4982 48.5018L39.9964 40.0036H23Z" fill="#0082C9"/>
<path d="M23 40.0036V57L31.4982 48.5018L23 40.0036Z" fill="#0070BB"/>
<path d="M39.9964 57L31.5054 48.4946L23 57H39.9964Z" fill="#0060AF"/>
<path d="M39.9964 57V40.0036L31.5054 48.4946L39.9964 57Z" fill="#00529C"/>
<path d="M39.9964 40.0036L48.4946 48.5018L57 40.0036H39.9964Z" fill="#1C378A"/>
<path d="M39.9964 40.0036V57L48.4946 48.5018L39.9964 40.0036Z" fill="#004C98"/>
<path d="M57 57L48.5018 48.4946L40.0036 57H57Z" fill="#1C378A"/>
<path d="M57 57V40.0036L48.5018 48.4946L57 57Z" fill="#1C378A"/>
<path d="M39.9964 23L48.4946 31.5054L57 23H39.9964Z" fill="#0060AF"/>
<path d="M57 39.9964V23L48.5018 31.4982L57 39.9964Z" fill="#00529C"/>
<path d="M57 44.2527L46.1148 33.8852L29.593 50.443L35.6179 56.4752L46.1148 46.1364L57 56.9641V44.2527Z" fill="white"/>
</svg>
