<svg width="80" height="80" viewBox="0 0 80 80" fill="none" xmlns="http://www.w3.org/2000/svg">
<rect x="0.5" y="0.5" width="79" height="79" rx="19.5" fill="white"/>
<rect x="0.5" y="0.5" width="79" height="79" rx="19.5" stroke="#E4E9F1"/>
<path d="M27.1706 40.0014C28.2824 39.5372 29.2051 38.4949 29.2051 36.7717C29.2051 34.2063 27.0038 32.6498 24.3495 32.6498H16.1446C16.1062 32.6498 16.0695 32.665 16.0424 32.6921C16.0153 32.7192 16 32.756 16 32.7943V35.1263C15.9997 35.1455 16.0031 35.1646 16.0102 35.1824C16.0173 35.2003 16.0279 35.2165 16.0414 35.2303C16.0548 35.244 16.0709 35.2549 16.0886 35.2623C16.1063 35.2697 16.1253 35.2736 16.1446 35.2736H23.7825C25.0138 35.2736 25.8476 36.0268 25.8476 36.9412C25.8476 37.8557 25.0138 38.6228 23.7825 38.6228H19.2436V36.8968C19.244 36.8773 19.2405 36.858 19.2332 36.84C19.2259 36.8219 19.2151 36.8055 19.2013 36.7918C19.1876 36.778 19.1712 36.7672 19.1531 36.7599C19.1351 36.7526 19.1158 36.7491 19.0963 36.7495H16.1446C16.1253 36.7495 16.1063 36.7533 16.0886 36.7607C16.0709 36.7682 16.0548 36.779 16.0414 36.7928C16.0279 36.8065 16.0173 36.8227 16.0102 36.8406C16.0031 36.8585 15.9997 36.8776 16 36.8968V47.2002C16 47.2385 16.0153 47.2752 16.0424 47.3023C16.0695 47.3294 16.1062 47.3447 16.1446 47.3447H24.2327C27.2568 47.3447 29.4219 45.9355 29.4219 43.0588C29.4281 42.3742 29.212 41.706 28.806 41.1547C28.4001 40.6034 27.8262 40.1987 27.1706 40.0014ZM23.9409 44.7904H19.2436V41.3439H23.9409C25.2028 41.3439 26.0588 42.1166 26.0588 43.0671C26.0588 44.0177 25.2028 44.7904 23.9409 44.7904Z" fill="#D7191F"/>
<path d="M61.1019 35.2736H62.3387C62.3778 35.2736 62.4153 35.258 62.4429 35.2304C62.4705 35.2028 62.4861 35.1653 62.4861 35.1263V32.7943C62.4861 32.7751 62.4822 32.7561 62.4748 32.7383C62.4674 32.7206 62.4565 32.7046 62.4427 32.6911C62.429 32.6777 62.4128 32.6671 62.3949 32.66C62.377 32.6529 62.358 32.6494 62.3387 32.6498H60.6016C58.5921 32.6498 57.5275 33.2918 56.9188 34.6565L53.1416 43.9093C53.0656 44.1643 52.9036 44.385 52.6832 44.534C52.4627 44.683 52.1974 44.751 51.9325 44.7264V32.7943C51.9325 32.7751 51.9287 32.7561 51.9213 32.7383C51.9138 32.7206 51.9029 32.7046 51.8892 32.6911C51.8755 32.6777 51.8592 32.6671 51.8414 32.66C51.8235 32.6529 51.8044 32.6494 51.7852 32.6498H49.0058C48.9866 32.6494 48.9675 32.6529 48.9496 32.66C48.9317 32.6671 48.9155 32.6777 48.9018 32.6911C48.8881 32.7046 48.8772 32.7206 48.8697 32.7383C48.8623 32.7561 48.8585 32.7751 48.8585 32.7943V47.0945C48.8592 47.1626 48.8868 47.2276 48.9351 47.2755C48.9835 47.3234 49.0489 47.3502 49.1169 47.3502H52.2327C54.2395 47.3502 55.1595 46.7082 55.7654 45.3435L59.4954 36.2047C59.7956 35.5571 60.2264 35.2736 61.1019 35.2736Z" fill="#D7191F"/>
<path d="M63.9759 47.1807L59.2147 41.0937C59.2127 41.0902 59.2099 41.0873 59.2065 41.0853C59.2031 41.0833 59.1992 41.0822 59.1952 41.0822C59.1912 41.0822 59.1873 41.0833 59.1839 41.0853C59.1805 41.0873 59.1777 41.0902 59.1758 41.0937L57.8944 44.2289C57.8896 44.2379 57.887 44.2479 57.887 44.2581C57.887 44.2683 57.8896 44.2783 57.8944 44.2873L59.9762 47.0667C60.0364 47.1577 60.1195 47.2312 60.217 47.28C60.3146 47.3288 60.4232 47.3511 60.5321 47.3447H63.8841C63.9044 47.3479 63.9251 47.3448 63.9436 47.3359C63.962 47.327 63.9773 47.3126 63.9873 47.2947C63.9973 47.2768 64.0015 47.2563 63.9995 47.2359C63.9975 47.2155 63.9892 47.1962 63.9759 47.1807Z" fill="#D7191F"/>
<path d="M34.6333 36.755H31.8539C31.8148 36.755 31.7773 36.7705 31.7497 36.7982C31.7221 36.8258 31.7065 36.8632 31.7065 36.9023V47.2057C31.7065 47.2249 31.7104 47.2439 31.7178 47.2617C31.7252 47.2794 31.7361 47.2954 31.7499 47.3089C31.7636 47.3224 31.7798 47.3329 31.7977 47.34C31.8155 47.3471 31.8346 47.3506 31.8539 47.3502H34.6333C34.6719 47.3502 34.7089 47.3351 34.7365 47.3081C34.764 47.281 34.7799 47.2443 34.7806 47.2057V36.8968C34.7792 36.8587 34.763 36.8226 34.7355 36.7962C34.7081 36.7697 34.6714 36.755 34.6333 36.755Z" fill="#D7191F"/>
<path d="M46.0706 32.6498H43.2912C43.2722 32.6498 43.2534 32.6535 43.2358 32.6608C43.2183 32.668 43.2024 32.6787 43.189 32.6921C43.1755 32.7055 43.1649 32.7215 43.1576 32.739C43.1504 32.7565 43.1466 32.7753 43.1466 32.7943V44.7264C42.8817 44.751 42.6164 44.683 42.396 44.534C42.1756 44.3851 42.0136 44.1643 41.9376 43.9093L38.1548 34.6565C37.5488 33.2918 36.4871 32.6498 34.4748 32.6498H31.8565C31.8373 32.6494 31.8182 32.6529 31.8004 32.66C31.7825 32.6671 31.7663 32.6777 31.7525 32.6911C31.7388 32.7046 31.7279 32.7206 31.7205 32.7383C31.7131 32.7561 31.7092 32.7751 31.7092 32.7943V35.1263C31.7092 35.1653 31.7247 35.2028 31.7524 35.2304C31.78 35.258 31.8175 35.2736 31.8565 35.2736H33.9717C34.85 35.2736 35.278 35.5515 35.5782 36.2047L39.3082 45.3435C39.9169 46.7082 40.8341 47.3502 42.8437 47.3502H45.9566C46.0247 47.3502 46.09 47.3234 46.1384 47.2755C46.1868 47.2276 46.2144 47.1626 46.2151 47.0945V32.7943C46.2151 32.756 46.1999 32.7192 46.1728 32.6921C46.1457 32.665 46.1089 32.6498 46.0706 32.6498Z" fill="#D7191F"/>
</svg>
