<svg width="80" height="80" viewBox="0 0 80 80" fill="none" xmlns="http://www.w3.org/2000/svg">
<rect x="0.5" y="0.5" width="79" height="79" rx="19.5" fill="white"/>
<rect x="0.5" y="0.5" width="79" height="79" rx="19.5" stroke="#E4E9F1"/>
<path d="M30.5428 22.4451C30.0483 22.6906 29.6076 23.0321 29.2463 23.4497C28.8851 23.8673 28.6106 24.3525 28.4388 24.8773L21.7149 45.0732C21.363 46.1311 21.4458 47.2854 21.9449 48.2822C22.444 49.2791 23.3187 50.0369 24.3764 50.3889L46.416 57.7886C47.4734 58.1368 48.6256 58.0524 49.6209 57.5536C50.6162 57.0549 51.3737 56.1825 51.7277 55.127L58.4488 34.9311C58.7993 33.8734 58.7164 32.7199 58.2183 31.7232C57.7202 30.7265 56.8475 29.9677 55.7912 29.6131L33.7517 22.2197C33.2285 22.0427 32.6755 21.9715 32.1246 22.0102C31.5737 22.0489 31.0361 22.1968 30.5428 22.4451Z" fill="white"/>
<path d="M36.4128 24.6546C40.2687 26.0841 43.0834 30.2027 42.8098 34.6929C42.713 36.3667 42.1985 37.9895 41.3133 39.4132C40.0993 38.0538 38.5806 37.0014 36.8815 36.3421L35.8966 35.9555V45.3226L36.8958 44.9349C38.5918 44.2692 40.1056 43.2106 41.3127 41.846C42.4942 43.74 43.0167 45.9714 42.7989 48.193C42.581 50.4147 41.635 52.5021 40.1081 54.1305L40.1178 54.1231L40.1081 54.1346L24.816 49.0208C24.1233 48.7929 23.5489 48.3001 23.2182 47.6501C22.8876 47 22.8277 46.2456 23.0516 45.5515L29.7927 25.3418C30.0132 24.6561 30.4969 24.086 31.1375 23.7569C31.7782 23.4277 32.5234 23.3664 33.2092 23.5866L33.231 23.594L36.4128 24.6546Z" fill="#0092D8"/>
<path d="M32.4678 45.8886H30.9546V35.3954H32.4678V45.8886Z" fill="white"/>
<path d="M40.4302 40.6287C39.5785 39.6132 38.5341 38.7762 37.3574 38.1662V43.0993C38.5333 42.4846 39.5773 41.6453 40.4302 40.6287Z" fill="#E43D30"/>
<path d="M55.305 30.9569L41.2628 26.271C43.0284 28.1965 44.09 30.6631 44.2748 33.2689C44.4596 35.8748 43.7566 38.4665 42.2804 40.6218C43.7206 42.7066 44.4355 45.2071 44.315 47.7381C44.1946 50.2691 43.2455 52.6903 41.6139 54.629L46.8854 56.3894C47.2257 56.5012 47.5847 56.5449 47.9419 56.5179C48.299 56.4909 48.6474 56.3937 48.967 56.2321C49.2866 56.0704 49.5713 55.8473 49.8046 55.5756C50.038 55.3039 50.2156 54.9888 50.3271 54.6485V54.641L57.0683 34.4325C57.2922 33.7377 57.2326 32.9826 56.9023 32.3316C56.572 31.6806 55.9979 31.1865 55.305 30.9569ZM51.5765 45.8578H49.6835L45.7829 40.6218L49.7478 35.3732H51.6694L47.6908 40.6218L51.5765 45.8578Z" fill="#004B9D"/>
</svg>
