<svg width="80" height="80" viewBox="0 0 80 80" fill="none" xmlns="http://www.w3.org/2000/svg">
<rect x="0.5" y="0.5" width="79" height="79" rx="19.5" fill="white"/>
<rect x="0.5" y="0.5" width="79" height="79" rx="19.5" stroke="#E4E9F1"/>
<g clip-path="url(#clip0_33_2243)">
<path d="M47.4056 22L40.227 25.5664L33.0586 22L40.227 35.4981L47.4056 22Z" fill="#FDB913"/>
<path d="M49.9151 32.4286L49.8036 32.3383L54.9239 30.2115V23.1138L46.0571 26.8407C46.0571 26.8407 41.2359 35.8696 41.1294 36.0752C43.0248 36.2965 44.763 37.2261 45.9886 38.6736C47.2141 40.1212 47.8343 41.9774 47.7222 43.8625C47.6102 45.7475 46.7744 47.519 45.3858 48.8145C43.9973 50.1099 42.1609 50.8315 40.2524 50.8315C38.3439 50.8315 36.5075 50.1099 35.1189 48.8145C33.7303 47.519 32.8945 45.7475 32.7825 43.8625C32.6705 41.9774 33.2907 40.1212 34.5162 38.6736C35.7417 37.2261 37.48 36.2965 39.3753 36.0752L34.4578 26.8407L25.5454 23.1138V30.2366L30.6606 32.3634L30.5491 32.4536C28.2902 34.404 26.6867 36.99 25.9528 39.866C25.219 42.7421 25.3898 45.7713 26.4424 48.5488C27.4949 51.3263 29.3792 53.7198 31.8433 55.4094C34.3075 57.099 37.2341 58.0043 40.2321 58.0043C43.2301 58.0043 46.1567 57.099 48.6209 55.4094C51.085 53.7198 52.9692 51.3263 54.0218 48.5488C55.0744 45.7713 55.2452 42.7421 54.5114 39.866C53.7775 36.99 52.174 34.404 49.9151 32.4536V32.4286Z" fill="#FDB913"/>
</g>
<defs>
<clipPath id="clip0_33_2243">
<rect width="29.4545" height="36" fill="white" transform="translate(25.5 22)"/>
</clipPath>
</defs>
</svg>
