<svg width="80" height="80" viewBox="0 0 80 80" fill="none" xmlns="http://www.w3.org/2000/svg">
<rect width="80" height="80" rx="20" fill="#0064FF"/>
<path d="M42.1775 29.6267L43.8365 21.6848C43.8551 21.5924 43.8508 21.4967 43.8241 21.4064C43.7973 21.316 43.7489 21.2338 43.6831 21.1671C43.6174 21.1004 43.5364 21.0513 43.4473 21.0241C43.3583 20.997 43.264 20.9927 43.1729 21.0116C40.6227 21.4799 38.1343 22.2457 35.7574 23.2937C24.5741 28.1033 17.8016 37.5267 20.6508 44.3599C22.7971 49.4681 29.7459 51.6475 37.825 50.379L36.1623 58.3152C36.1437 58.4076 36.1479 58.5033 36.1747 58.5936C36.2014 58.684 36.2499 58.7662 36.3156 58.8329C36.3813 58.8996 36.4624 58.9487 36.5514 58.9759C36.6405 59.003 36.7347 59.0073 36.8258 58.9884C39.3763 58.5183 41.865 57.7526 44.2432 56.7063C55.4452 51.8929 62.1972 42.4676 59.3479 35.6382C57.2054 30.5376 50.2566 28.3601 42.1775 29.6267Z" fill="white"/>
</svg>
