<svg width="80" height="80" viewBox="0 0 80 80" fill="none" xmlns="http://www.w3.org/2000/svg">
<rect x="0.5" y="0.5" width="79" height="79" rx="19.5" fill="white"/>
<rect x="0.5" y="0.5" width="79" height="79" rx="19.5" stroke="#E4E9F1"/>
<g clip-path="url(#clip0_33_604)">
<path fill-rule="evenodd" clip-rule="evenodd" d="M55.9175 33.4915C54.5606 31.4865 52.7577 29.8498 50.6616 28.7198C48.5654 27.5899 46.2376 27 43.875 27C41.5124 27 39.1846 27.5899 37.0884 28.7198C34.9922 29.8498 33.1894 31.4865 31.8324 33.4915L31.6915 33.7017H35.1771L35.2167 33.6581C36.3279 32.4322 37.6695 31.4552 39.1588 30.7874C40.6481 30.1196 42.2536 29.7751 43.8762 29.7751C45.4989 29.7751 47.1044 30.1196 48.5937 30.7874C50.083 31.4552 51.4246 32.4322 52.5358 33.6581L52.5729 33.7017H56.0585L55.9175 33.4915Z" fill="#E60012"/>
<path d="M30.3075 47.0149L30.2432 47.0841C29.1704 48.2142 27.9319 48.8139 26.6563 48.8139C23.9914 48.8139 22.0558 46.7406 22.0558 43.8831C22.0558 41.0256 23.9914 38.9446 26.6563 38.9446C27.9319 38.9446 29.1704 39.5443 30.2432 40.677L30.3075 40.7462L32.0206 38.5986L31.9761 38.5397C30.5497 36.7944 28.8391 35.9461 26.7379 35.9461C24.6366 35.9461 22.6985 36.6816 21.2994 37.9963C19.7889 39.4341 18.9905 41.4613 18.9905 43.8652C18.9905 46.2691 19.7889 48.2963 21.2994 49.734C22.6887 51.0666 24.6168 51.7996 26.7379 51.7996C28.8589 51.7996 30.5497 50.9488 31.9761 49.2035L32.0206 49.1471L30.3075 47.0149Z" fill="#004187"/>
<path d="M36.779 36.2028H33.7532V51.5258H36.779V36.2028Z" fill="#004187"/>
<path d="M48.6423 48.1906C47.9822 48.6525 47.2128 48.9183 46.4174 48.9594C45.4286 48.9594 44.996 48.4238 44.996 47.2321V39.1003H48.0811V36.2146H44.9861V31.4453L42.0197 33.0931V36.2146H39.4586V39.1003H42.0197V47.7498C42.0197 50.105 43.3669 51.717 45.3767 51.758C46.3198 51.806 47.2553 51.5615 48.0638 51.0558L48.0935 51.0328L48.8227 48.0804L48.6423 48.1906Z" fill="#004187"/>
<path d="M54.1771 36.2028H51.1488V51.5258H54.1771V36.2028Z" fill="#004187"/>
<path d="M60.7402 34.2978C60.7402 34.5751 60.6609 34.8463 60.5122 35.0769C60.3635 35.3075 60.1521 35.4871 59.9049 35.5932C59.6577 35.6992 59.3857 35.7268 59.1233 35.6725C58.8609 35.6182 58.62 35.4844 58.431 35.2881C58.242 35.0918 58.1134 34.8418 58.0615 34.5697C58.0096 34.2976 58.0367 34.0156 58.1394 33.7595C58.2422 33.5034 58.4159 33.2847 58.6386 33.1309C58.8613 32.9772 59.1229 32.8954 59.3905 32.8959C59.5689 32.8924 59.7461 32.9263 59.9115 32.9956C60.077 33.0648 60.2272 33.168 60.3533 33.2989C60.4793 33.4298 60.5786 33.5858 60.6451 33.7574C60.7115 33.9291 60.7439 34.1128 60.7402 34.2978ZM60.9998 34.2978C61.0003 33.9671 60.9061 33.6437 60.7292 33.3685C60.5523 33.0933 60.3006 32.8787 60.006 32.7519C59.7113 32.6252 59.3871 32.5919 59.0742 32.6563C58.7613 32.7206 58.4739 32.8798 58.2483 33.1137C58.0228 33.3475 57.8692 33.6455 57.8071 33.9699C57.745 34.2942 57.7771 34.6304 57.8994 34.9358C58.0217 35.2413 58.2287 35.5022 58.4941 35.6856C58.7595 35.869 59.0715 35.9667 59.3905 35.9662C59.6029 35.9703 59.814 35.93 60.0111 35.8477C60.2081 35.7653 60.3872 35.6426 60.5374 35.4868C60.6877 35.331 60.806 35.1455 60.8855 34.9411C60.9649 34.7368 61.0038 34.518 60.9998 34.2978ZM60.1247 33.9031C60.1273 33.8263 60.1139 33.7499 60.0854 33.679C60.0569 33.6081 60.0139 33.5444 59.9594 33.4923C59.905 33.4402 59.8403 33.4009 59.7698 33.3772C59.6994 33.3534 59.6248 33.3458 59.5512 33.3547H58.7799V35.1743H59.0765V34.472H59.4152L59.7588 35.1743H60.1123L59.7514 34.4387C59.8646 34.4094 59.9641 34.3396 60.0324 34.2416C60.1007 34.1436 60.1334 34.0237 60.1247 33.9031ZM59.8231 33.9031C59.8231 34.0851 59.702 34.1594 59.5413 34.1594H59.0765V33.6468H59.5413C59.5765 33.6417 59.6124 33.6444 59.6465 33.655C59.6806 33.6655 59.7122 33.6836 59.7389 33.7079C59.7657 33.7323 59.7871 33.7623 59.8016 33.796C59.8161 33.8297 59.8234 33.8662 59.8231 33.9031Z" fill="#004187"/>
</g>
<defs>
<clipPath id="clip0_33_604">
<rect width="42" height="24.8182" fill="white" transform="translate(19 27)"/>
</clipPath>
</defs>
</svg>
