<svg width="36" height="36" viewBox="0 0 80 80" fill="none" xmlns="http://www.w3.org/2000/svg">
<rect width="80" height="80" rx="20" fill="#E83E44"/>
<path d="M58 40.002C58 49.9396 49.9344 58 40 58C30.0656 58 22 49.9396 22 40.002C22 30.0645 30.059 22 39.9985 22C49.9379 22 58 30.0584 58 40.002Z" fill="white"/>
<path d="M30.7281 35.7375C30.1612 35.3986 29.5206 35.3025 28.8744 35.3961C30.0538 34.1393 30.6945 32.7725 30.6945 31.3936C30.6959 31.2666 30.6898 31.1397 30.6761 31.0135C30.6151 30.1551 30.2182 29.5114 29.6076 29.2941C28.9945 29.0642 27.8694 29.1807 26.0829 31.0074L25.0103 32.2087C24.7131 32.57 23.5856 34.2772 23.3769 36.0545C23.0274 39.0765 23.2512 42.0923 24.0206 44.7663C24.1091 45.0787 24.3976 45.8348 25.0892 46.1121C25.8249 46.4123 26.5236 46.0506 27.1423 45.7315L27.3082 45.6491L27.9452 45.3636L28.5645 45.0914L29.3186 44.7602C29.861 44.5393 30.3698 44.3343 30.8659 43.9175C31.5272 43.3551 32.0107 42.6126 32.2576 41.7804C32.3941 41.3113 32.4822 40.8295 32.5207 40.3425C32.5604 39.9257 32.6031 39.1167 32.4469 38.4053C32.1075 36.8396 31.329 36.0917 30.7281 35.7375ZM25.0001 37.9947C25.0001 38.0069 25.0342 38.3916 25.0342 38.3916C25.0307 38.434 25.0406 38.4765 25.0625 38.513C25.0844 38.5495 25.1172 38.5782 25.1563 38.5951C25.1933 38.6105 25.2339 38.6146 25.2732 38.607C25.3125 38.5994 25.3486 38.5804 25.3772 38.5524C26.0483 37.9881 27.066 37.4838 27.8842 37.7657C28.5243 37.9881 28.9599 38.6485 29.1868 39.7319C29.6524 42.0028 28.0953 43.0973 27.124 43.543L27.0904 43.5583L25.8458 44.1689C25.8221 44.1777 25.7969 44.1817 25.7716 44.1806C25.7464 44.1796 25.7216 44.1735 25.6987 44.1628C25.6224 44.1226 25.601 44.0737 25.5461 43.9389C24.7004 40.8172 24.4124 37.5383 24.7279 34.4746C24.7698 34.2067 24.8785 33.9537 25.0439 33.7388L26.0885 32.625L26.205 32.4978C26.7724 31.9462 27.3056 31.6704 27.5936 31.79C27.8328 31.8917 27.8908 32.2739 27.8938 32.5746C27.9447 34.2029 27.0329 35.8642 25.1263 37.6553C25.0805 37.6983 25.0453 37.7513 25.0234 37.8102C25.0015 37.8691 24.9935 37.9322 25.0001 37.9947Z" fill="#E83E44"/>
<path d="M44.8568 26.2508C44.5072 25.0525 43.9368 24.8011 43.7715 24.7462C42.3003 24.2738 40.7363 24.1664 39.2144 24.4332C36.9495 24.85 34.991 26.0391 33.692 27.7798C32.3278 29.6116 31.8006 31.8958 32.2052 34.2069C32.6158 36.5267 33.7866 38.4053 35.6072 39.6347C37.7403 41.0716 40.578 41.5097 43.6122 40.8721C45.4048 40.4834 46.8855 39.7863 48.0314 38.7976C48.5433 38.3534 48.642 37.7881 48.642 37.3912C48.642 37.3912 48.6695 37.0706 48.4212 36.0611C48.354 35.8159 48.2467 35.7421 48.0747 35.7421C47.9495 35.7421 47.8203 35.8861 47.7928 35.9166C46.9379 36.9068 45.6353 37.5958 44.0081 37.9163C39.8311 38.7198 36.6193 36.7689 35.8225 32.944C35.4821 31.2872 35.7639 29.6987 36.6279 28.4693C37.493 27.2191 38.9177 26.3917 40.6309 26.1343C41.9247 25.9421 43.2464 26.1042 44.4553 26.6034C44.4553 26.6034 44.9667 26.752 44.8568 26.2508Z" fill="#E83E44"/>
</svg>
