<svg width="72" height="72" viewBox="0 0 72 72" fill="none" xmlns="http://www.w3.org/2000/svg">
<g clip-path="url(#clip0_2589_19127)">
<path fill-rule="evenodd" clip-rule="evenodd" d="M72 36C72 55.8 55.8 72 36 72C16.2 72 0 55.8 0 36C0 16.2 16.2 0 36 0C55.8 0 72 16.2 72 36Z" fill="black"/>
<path d="M48.734 25.8544C49.8642 24.7352 51.6877 24.7435 52.8068 25.8737C53.926 27.004 53.916 28.8274 52.7857 29.9466L34.4271 48.1276C33.3008 49.2429 31.4839 49.2379 30.3631 48.1171L19.2027 36.9567C18.0786 35.8321 18.0785 34.0084 19.2027 32.8839C20.3274 31.7592 22.1526 31.7592 23.2773 32.8839L32.4092 42.0175L48.734 25.8544Z" fill="white"/>
</g>
<defs>
<clipPath id="clip0_2589_19127">
<rect width="72" height="72" fill="white"/>
</clipPath>
</defs>
</svg>
