<svg width="80" height="80" viewBox="0 0 80 80" fill="none" xmlns="http://www.w3.org/2000/svg">
<rect width="80" height="80" rx="20" fill="#2C2A26"/>
<path fill-rule="evenodd" clip-rule="evenodd" d="M57.6773 44.3964H72V45.4472H57.6773V44.3964ZM13.8103 42.2178H16.3534C17.0245 44.9954 20.3301 46.2825 21.5427 46.4596L20.9103 47.3903C19.6707 47.24 16.8485 46.3445 15.0819 44.4223C13.3147 46.3445 10.4919 47.24 9.25287 47.3903L8.62045 46.4596C9.83256 46.2825 13.1365 44.9954 13.8103 42.2178ZM41.4182 42.1182V42.1388L41.4061 42.1227L41.4182 42.1182ZM41.9597 33.3229H50.2623C50.2742 34.31 50.172 35.2049 49.9554 36.0076C49.7388 36.8102 49.435 37.5357 49.0439 38.1837C48.6528 38.8318 48.1896 39.4102 47.6542 39.9186C47.1187 40.4272 46.5441 40.8733 45.9305 41.2573C45.3168 41.6411 44.682 41.9726 44.0263 42.2518C43.3705 42.531 42.7237 42.7703 42.086 42.9697L41.4182 42.192C42.1402 41.8928 42.7839 41.5763 43.3495 41.2423C43.915 40.9083 44.4143 40.5593 44.8475 40.1953C45.2807 39.8314 45.6597 39.4525 45.9846 39.0587C46.3095 38.6648 46.5923 38.2635 46.8329 37.8547H41.9416V36.8526H47.2841C47.4766 36.394 47.609 35.9502 47.6813 35.5215C47.7534 35.0928 47.7955 34.6939 47.8075 34.325H41.9597V33.3229ZM58.9435 33.3195H70.5763V34.3703H61.2103V39.3947C61.2103 39.6852 61.4432 39.9176 61.7342 39.9176H70.7569V40.9689H59.9885C59.4121 40.9689 58.9435 40.4986 58.9435 39.9243V33.3195ZM9.22595 33.0189H20.917V36.5595H11.4904V37.4779C11.4904 37.7701 11.7275 38.0075 12.0196 38.0075H21.115V39.0528H16.2919V40.4929H22.3429V41.5443H8V40.4929H14.0151V39.0528H10.2766C9.69684 39.0528 9.22595 38.5801 9.22595 38.0048V35.5043H18.6497V34.0708H9.22595V33.0189ZM36.2249 32.8071H38.4193V47.4279H36.2249V32.8071ZM52.2706 32.7898H54.5558V37.2859H56.9341V38.3428H54.5558V47.4251H52.2706V32.7898ZM32.725 32.771H34.9205V47.3917H32.7245L32.725 42.8567C32.3377 43.1008 31.7384 43.2304 30.9977 43.2304H26.1274C25.546 43.2304 25.0757 42.76 25.0757 42.1813V33.3178H31.3571V34.3698H27.3463V41.6495C27.3463 41.9416 27.5835 42.178 27.8766 42.178H30.9977C31.7081 42.178 32.1885 42.0628 32.725 41.8522V38.7546H29.9785V37.453H32.725V32.771Z" fill="white"/>
</svg>
