<svg width="80" height="80" viewBox="0 0 80 80" fill="none" xmlns="http://www.w3.org/2000/svg">
<rect width="80" height="80" rx="20" fill="black"/>
<g clip-path="url(#clip0_34_4788)">
<path d="M11.4733 33.9005C9.55887 33.9005 8 35.4586 8 37.3738V46.6362H9.1574V37.3738C9.1574 37.0697 9.21731 36.7685 9.3337 36.4876C9.45008 36.2066 9.62067 35.9513 9.83573 35.7363C10.0508 35.5213 10.3061 35.3507 10.5871 35.2344C10.868 35.118 11.1692 35.0581 11.4733 35.0582H68.527C68.8311 35.0582 69.1322 35.1181 69.4131 35.2345C69.694 35.3508 69.9493 35.5214 70.1643 35.7364C70.3793 35.9515 70.5498 36.2067 70.6662 36.4877C70.7825 36.7686 70.8424 37.0697 70.8423 37.3738V46.6362H72V37.3738C72 35.4583 70.4414 33.9005 68.527 33.9005H11.4733Z" fill="white"/>
<path d="M18.6673 44.1963C18.6673 44.2873 18.6096 44.3204 18.5106 44.3204H17.6519C17.5529 44.3204 17.52 44.2873 17.52 44.1882V41.8526C17.52 41.7458 17.4456 41.6871 17.3383 41.6871H15.0848C14.9858 41.6871 14.9276 41.7453 14.9276 41.8526V44.1882C14.9276 44.2873 14.87 44.3204 14.7795 44.3204H13.9039C13.8217 44.3204 13.7886 44.2873 13.7886 44.1963V38.3932C13.7886 38.3025 13.8217 38.2528 13.9039 38.2528H14.7795C14.87 38.2528 14.9276 38.3025 14.9276 38.3932V40.6384C14.9276 40.7451 14.9858 40.7953 15.0848 40.7953H17.3393C17.4461 40.7953 17.5211 40.7457 17.5211 40.6384V38.3932C17.5211 38.3025 17.5539 38.2528 17.653 38.2528H18.5117C18.6107 38.2528 18.6684 38.3025 18.6684 38.3932L18.6673 44.1963Z" fill="white"/>
<path d="M20.7395 44.4026C20.1039 44.4026 19.7734 43.8911 19.7734 43.4536V39.8461C19.7734 39.7393 19.8148 39.6891 19.9138 39.6891H20.7395C20.8217 39.6891 20.8799 39.7388 20.8799 39.8461V43.3295C20.8799 43.4286 20.9212 43.4779 21.0365 43.4779H22.5474C22.6464 43.4779 22.7123 43.4286 22.7123 43.3295V39.8461C22.7123 39.7393 22.7534 39.6891 22.8525 39.6891H23.6781C23.7691 39.6891 23.8268 39.7388 23.8268 39.8461V45.1046C23.8268 45.2362 23.7854 45.3603 23.7277 45.4839L23.1672 46.4003C23.1175 46.483 23.0436 46.5337 22.9608 46.5337H22.8541C22.755 46.5337 22.7139 46.4758 22.7139 46.3851V44.0558C22.7139 43.9568 22.656 43.9157 22.5652 43.9405L20.9805 44.3863C20.9009 44.3999 20.8201 44.4054 20.7395 44.4026Z" fill="white"/>
<path d="M25.881 44.3946C25.6298 44.393 25.3892 44.2925 25.2115 44.1149C25.0339 43.9372 24.9334 43.6966 24.9318 43.4454V39.8461C24.9318 39.7393 24.9727 39.6891 25.072 39.6891H25.9077C25.9822 39.6891 26.0412 39.7388 26.0412 39.8461V43.3295C26.0412 43.4286 26.0908 43.4699 26.2067 43.4699H27.7167C27.816 43.4699 27.8822 43.4286 27.8822 43.3295V39.8461C27.8822 39.7393 27.9153 39.6891 28.0143 39.6891H28.837C28.928 39.6891 28.9862 39.7388 28.9862 39.8461V44.197C28.9862 44.2881 28.928 44.3212 28.837 44.3212H28.0119C27.9129 44.3212 27.8798 44.2881 27.8798 44.189V44.0556C27.8798 43.9488 27.8136 43.9072 27.7231 43.9403L26.1378 44.3692C26.0539 44.3902 25.9674 44.3987 25.881 44.3946Z" fill="white"/>
<path d="M34.1452 40.581V44.1962C34.1452 44.2873 34.0875 44.3204 33.9965 44.3204H33.1709C33.0719 44.3204 33.0388 44.2873 33.0388 44.1882V40.7048C33.0388 40.598 32.9728 40.5401 32.8738 40.5401H31.3633C31.248 40.5401 31.1983 40.5978 31.1983 40.7048V44.1882C31.1983 44.2873 31.1406 44.3204 31.0648 44.3204H30.232C30.1327 44.3204 30.0916 44.2873 30.0916 44.1962V39.8453C30.0916 39.7385 30.1327 39.6883 30.232 39.6883H31.0662C31.1406 39.6883 31.1996 39.738 31.1996 39.8453V39.9857C31.1996 40.0765 31.241 40.1176 31.3646 40.0847L32.9416 39.6555C33.0238 39.639 33.0983 39.6141 33.1805 39.6141C33.7245 39.6149 34.1452 40.0687 34.1452 40.581Z" fill="white"/>
<path d="M35.0856 43.4454V41.3649C35.0856 40.9191 35.2754 40.5809 35.6728 40.3661L36.5478 39.8544C36.7194 39.7434 36.9203 39.6863 37.1246 39.6905H37.8838C37.9906 39.6905 38.0405 39.6491 38.0405 39.5501V37.8417C38.0405 37.751 38.0819 37.685 38.1646 37.685H39.0065C39.1055 37.685 39.1469 37.751 39.1469 37.8417V44.1962C39.1469 44.2873 39.1055 44.3204 39.0065 44.3204H38.1646C38.0819 44.3204 38.0405 44.2873 38.0405 44.1882V44.0548C38.0405 43.948 37.9911 43.9063 37.8838 43.9394L36.2913 44.3695C36.2104 44.3898 36.1269 44.3982 36.0436 44.3946C35.6138 44.4108 35.0856 44.0147 35.0856 43.4454ZM38.0405 43.3295V40.7136C38.0405 40.5978 37.9911 40.5401 37.8755 40.5401H36.3487C36.2326 40.5401 36.1915 40.5978 36.1915 40.7136V43.3295C36.1915 43.4285 36.2326 43.4699 36.3487 43.4699H37.8755C37.9911 43.4699 38.0405 43.4275 38.0405 43.3295Z" fill="white"/>
<path d="M41.0445 44.3946C40.5245 44.3946 40.0873 43.9739 40.0873 43.4454V41.3649C40.0873 40.9191 40.2771 40.5809 40.6649 40.3661L41.5482 39.8544C41.7175 39.7444 41.9157 39.6873 42.1175 39.6905H44.0079C44.099 39.6905 44.1483 39.7401 44.1483 39.8474V44.1984C44.1483 44.2894 44.099 44.3225 44.0079 44.3225H43.166C43.0753 44.3225 43.0422 44.2894 43.0422 44.1904V44.0569C43.0422 43.9501 42.9843 43.9085 42.8772 43.9416L41.2919 44.3705C41.2111 44.3905 41.1277 44.3986 41.0445 44.3946ZM43.0422 43.3295V40.7136C43.0422 40.5978 42.9843 40.5401 42.8772 40.5401H41.3501C41.2343 40.5401 41.1929 40.5978 41.1929 40.7136V43.3295C41.1929 43.4285 41.2343 43.4699 41.3501 43.4699H42.8772C42.9843 43.4699 43.0422 43.4275 43.0422 43.3295Z" fill="white"/>
<path d="M46.3607 38.516C46.3607 38.615 46.3028 38.6479 46.2203 38.6479H45.3936C45.2868 38.6479 45.2537 38.615 45.2537 38.516V37.8401C45.2537 37.7494 45.2863 37.6834 45.3936 37.6834H46.2211C46.3036 37.6834 46.3615 37.7494 46.3615 37.8401L46.3607 38.516ZM46.3607 44.1952C46.3607 44.2862 46.3028 44.3193 46.2203 44.3193H45.3936C45.2868 44.3193 45.2537 44.2862 45.2537 44.1952V39.8442C45.2537 39.7375 45.2863 39.6873 45.3936 39.6873H46.2211C46.3036 39.6873 46.3615 39.7369 46.3615 39.8442L46.3607 44.1952Z" fill="white"/>
<path d="M48.6768 43.1315V40.0031C48.6768 39.5407 48.8749 39.1855 49.2793 38.946L50.2448 38.4092C50.4168 38.3061 50.6138 38.2519 50.8144 38.2525H52.8612C52.9602 38.2525 53.0104 38.3022 53.0104 38.4012V39.0039C53.0104 39.0947 52.9602 39.1358 52.8612 39.1358H49.9971C49.898 39.1358 49.8566 39.1937 49.8566 39.301V43.2799C49.8566 43.3867 49.898 43.4366 49.9971 43.4366H52.9439C53.0347 43.4366 53.0926 43.4779 53.0926 43.5607C53.0934 43.6054 53.0812 43.6493 53.0575 43.6872C53.0338 43.7251 52.9997 43.7553 52.9592 43.7742L52.2497 44.1706C52.0704 44.2711 51.8679 44.3225 51.6624 44.3196H49.8812C49.295 44.3204 48.6768 43.8992 48.6768 43.1315Z" fill="white"/>
<path d="M54.7361 44.3946C54.2158 44.3946 53.7783 43.9739 53.7783 43.4454V41.3649C53.7783 40.9192 53.9684 40.581 54.3562 40.3661L55.2395 39.8544C55.4087 39.744 55.607 39.6864 55.8091 39.6891H57.699C57.7892 39.6891 57.8394 39.7388 57.8394 39.8461V44.197C57.8394 44.2881 57.7892 44.3212 57.699 44.3212H56.8565C56.7658 44.3212 56.733 44.2881 56.733 44.189V44.0556C56.733 43.9488 56.6753 43.9072 56.5677 43.9403L54.983 44.3692C54.9023 44.3895 54.8192 44.3981 54.7361 44.3946ZM56.7338 43.3295V40.7136C56.7338 40.5978 56.6761 40.5401 56.5685 40.5401H55.0417C54.9264 40.5401 54.885 40.5978 54.885 40.7136V43.3295C54.885 43.4286 54.9264 43.4699 55.0417 43.4699H56.5688C56.6764 43.4699 56.734 43.4275 56.734 43.3295H56.7338Z" fill="white"/>
<path d="M61.984 40.4154C61.984 40.4982 61.9264 40.5396 61.8353 40.5396H60.2081C60.1014 40.5396 60.0597 40.5972 60.0597 40.7043V44.1882C60.0597 44.2873 59.9938 44.3204 59.9111 44.3204H59.0774C58.9784 44.3204 58.944 44.2873 58.944 44.1962V39.8453C58.944 39.7385 58.9771 39.6883 59.0774 39.6883H59.9111C59.9938 39.6883 60.0597 39.738 60.0597 39.8453V39.9774C60.0597 40.0679 60.1011 40.1093 60.2081 40.1093C60.2394 40.1112 60.2706 40.1056 60.2992 40.093L60.7775 39.7791C60.9527 39.6856 61.1485 39.6374 61.3471 39.639H61.8364C61.9274 39.639 61.9851 39.6883 61.9851 39.7791L61.984 40.4154Z" fill="white"/>
<path d="M62.1498 43.4454V41.3649C62.1498 40.9191 62.3398 40.5809 62.737 40.3661L63.612 39.8544C63.7838 39.7428 63.9851 39.6852 64.1899 39.6891H64.9496C65.0564 39.6891 65.1066 39.6478 65.1066 39.5487V37.8404C65.1066 37.7496 65.1477 37.6837 65.2299 37.6837H66.0723C66.1708 37.6837 66.2122 37.7496 66.2122 37.8404V44.1962C66.2122 44.2872 66.1708 44.3203 66.0723 44.3203H65.2299C65.1477 44.3203 65.1066 44.2872 65.1066 44.1882V44.0548C65.1066 43.948 65.0569 43.9063 64.9496 43.9394L63.3563 44.3684C63.2754 44.3887 63.1919 44.3972 63.1086 44.3935C62.6783 44.4108 62.1498 44.0147 62.1498 43.4454ZM65.1055 43.3295V40.7136C65.1055 40.5978 65.0558 40.5401 64.94 40.5401H63.4129C63.2976 40.5401 63.2562 40.5978 63.2562 40.7136V43.3295C63.2562 43.4285 63.2976 43.4699 63.4129 43.4699H64.94C65.0558 43.4699 65.1055 43.4275 65.1055 43.3295Z" fill="white"/>
</g>
<defs>
<clipPath id="clip0_34_4788">
<rect width="64" height="12.7352" fill="white" transform="translate(8 33.9005)"/>
</clipPath>
</defs>
</svg>
