<svg width="80" height="80" viewBox="0 0 80 80" fill="none" xmlns="http://www.w3.org/2000/svg">
<rect width="80" height="80" rx="20" fill="#1666FF"/>
<path d="M12.8202 42.3529C9.9393 42.3529 8 44.6127 8 48C8 51.3873 9.93986 53.6471 12.8202 53.6471C15.1182 53.6471 16.988 52.1008 17.4118 49.7102H15.2287C14.9109 50.9429 14.0953 51.8237 12.8841 51.8237C11.15 51.8237 10.0867 50.2415 10.0867 47.9297C10.0867 45.618 11.1516 44.0357 12.8841 44.0357C14.0953 44.0357 14.9109 44.9183 15.2287 46.1492H17.3826C16.9124 43.8415 15.0756 42.3529 12.8202 42.3529Z" fill="white"/>
<path d="M36.1154 29.1765C34.6511 29.1765 33.7578 29.9132 33.373 30.344C32.8444 29.5126 31.97 29.1765 30.9432 29.1765C29.8741 29.1765 29.1428 29.6262 28.7202 29.9973V29.3765H26.8235V37.6471H28.7202V32.92C28.7202 31.7536 29.2464 30.7228 30.4255 30.6713C31.5708 30.6216 31.9946 31.5258 31.9946 32.3874V37.6447H33.8907V32.9176C33.8907 31.7513 34.4175 30.7204 35.5966 30.6689C36.7224 30.6198 37.1513 31.4974 37.1639 32.346V37.6435H39.0588V32.1761C39.06 30.0931 37.6776 29.1765 36.1154 29.1765Z" fill="white"/>
<path d="M53.0207 33.4979C53.0207 34.4499 52.7922 36.1731 51.2038 36.1731C49.8432 36.1731 49.5675 35.0748 49.5675 34.3286V29.1765H47.5294V34.6381C47.5294 36.5808 48.7632 37.6471 50.5814 37.6471C51.6344 37.6471 52.4718 37.2695 53.0207 36.6938V37.4476H55.0588V29.1765H53.0207V33.4979Z" fill="white"/>
<path d="M60.3897 29.1765C59.2148 29.1765 58.4718 29.6268 58.0204 30.0458V29.3759H56V37.6465H58.0204V32.9194C58.0204 31.753 58.62 30.721 59.876 30.6707C61.0741 30.6228 61.4932 31.5258 61.5072 32.3762V37.6471H63.5294V32.1229C63.5294 30.2085 62.0568 29.1765 60.3897 29.1765Z" fill="white"/>
<path d="M44.0854 32.7085C42.6315 32.3255 42.0871 32.0501 42.0871 31.5123C42.0871 30.9071 42.7397 30.5671 43.4118 30.6096C44.2157 30.66 44.6556 31.0873 44.7617 31.6828H46.4579C46.3346 30.2662 45.1586 29.1765 43.3213 29.1765C41.624 29.1765 40.1906 30.1251 40.2165 31.6222C40.2348 32.674 40.9289 33.3313 41.9455 33.7325C43.0564 34.1705 44.5544 34.332 44.6852 35.0812C44.8161 35.8303 44.0773 36.2479 43.2405 36.1527C42.5163 36.07 42.1049 35.6994 41.9132 35.0596H40C40.3182 36.7285 41.5842 37.6471 43.3821 37.6471C45.2765 37.6471 46.62 36.5137 46.5877 35.0404C46.5516 33.4129 44.8538 32.912 44.0854 32.7085Z" fill="white"/>
<path d="M70.1217 30.068V30.0865C69.5861 29.5254 68.8662 29.1765 67.9519 29.1765C65.7092 29.1765 64.4706 30.7844 64.4706 33.2451C64.4706 35.7058 65.7092 37.3143 67.9519 37.3143C68.878 37.3143 69.6047 36.9555 70.1421 36.3822V36.7468C70.1421 37.8482 69.7352 38.8232 68.4503 38.898C67.0602 38.9785 66.6551 38.0406 66.6014 37.8378H64.7531C64.9944 39.1084 66.0584 40.4706 68.3232 40.4706C70.7348 40.4706 72 38.7548 72 36.4709V29.457H70.1217V30.068ZM68.1932 35.7979C66.9828 35.7759 66.3505 34.7232 66.3505 33.2474C66.3505 31.7536 66.9958 30.6923 68.2316 30.6923C69.4674 30.6923 70.0963 31.7658 70.0963 33.2364C70.094 34.6902 69.4064 35.7759 68.1932 35.7979Z" fill="white"/>
<path d="M23.1352 30.0527V30.0708C22.6205 29.5193 21.874 29.1765 20.9946 29.1765C18.8383 29.1765 17.4117 30.9113 17.4117 33.4118C17.4117 35.9122 18.8383 37.6471 20.9946 37.6471C21.874 37.6471 22.6205 37.3036 23.1352 36.7527V36.7709V37.3716H24.9412V29.4519H23.1352V30.0527ZM21.1892 36.1593C19.9999 36.1593 19.2172 35.0599 19.2172 33.4118C19.2172 31.7637 20.001 30.6636 21.1892 30.6636C22.3773 30.6636 23.1065 31.894 23.1065 33.4118C23.1065 34.9295 22.3789 36.1593 21.1908 36.1593H21.1892Z" fill="white"/>
<path d="M38.9093 45.747V45.7659C38.3303 45.1922 37.4904 44.8356 36.5009 44.8356C34.0755 44.8356 32.4706 46.6402 32.4706 49.2413C32.4706 51.8424 34.0755 53.6471 36.5009 53.6471C37.4904 53.6471 38.3303 53.2898 38.9093 52.7167V52.7356V53.3605H40.9412V42.3529H38.9093V45.747ZM36.7199 52.0995C35.3819 52.0995 34.5019 50.9557 34.5019 49.2413C34.5019 47.5269 35.3831 46.3825 36.7199 46.3825C38.0566 46.3825 38.877 47.6625 38.877 49.2413C38.877 50.8201 38.0591 52.0995 36.7217 52.0995H36.7199Z" fill="white"/>
<path d="M24.0764 46.0527V46.0708C23.5618 45.5193 22.8153 45.1765 21.9358 45.1765C19.7795 45.1765 18.353 46.9113 18.353 49.4118C18.353 51.9122 19.7795 53.6471 21.9358 53.6471C22.8153 53.6471 23.5618 53.3036 24.0764 52.7527V52.7709V53.3716H25.8824V45.4519H24.0764V46.0527ZM22.1304 52.1593C20.9412 52.1593 20.1584 51.0599 20.1584 49.4118C20.1584 47.7637 20.9422 46.6636 22.1304 46.6636C23.3185 46.6636 24.0477 47.894 24.0477 49.4118C24.0477 50.9295 23.3201 52.1593 22.132 52.1593H22.1304Z" fill="white"/>
<path d="M12.8676 31.0991C10.974 30.5358 10.619 30.0282 10.5456 29.4075C10.4681 28.7587 10.9598 27.8954 12.2303 27.8954C13.5007 27.8954 13.935 28.8103 14.0333 29.3249H16.1954C15.9244 27.2977 14.2469 26.3529 12.238 26.3529C10.229 26.3529 8.28995 27.4205 8.28995 29.462C8.28995 31.4123 9.98643 32.1007 11.8403 32.6955C13.5966 33.2611 14.2534 33.6133 14.2534 34.4938C14.2534 35.3026 13.5291 35.9887 12.3948 35.9887C11.2604 35.9887 10.4793 35.5464 10.1835 34.5661H8C8.17752 35.6996 9.26867 37.6471 12.206 37.6471C15.0919 37.6471 16.4706 36.0409 16.4706 34.32C16.4724 32.3651 14.6877 31.6429 12.8676 31.0991Z" fill="white"/>
<path d="M30.7707 45.4883C30.3086 45.6958 29.9607 45.9754 29.7271 46.3272V45.2862H27.7647V53.6471H29.7271C29.7271 53.6471 29.7365 50.6576 29.7306 50.177C29.723 49.5474 29.682 48.9065 29.9609 48.3216C30.4168 47.3646 31.4575 46.8405 32.4706 46.8692V45.1914C32.3713 45.1812 32.2715 45.1763 32.1718 45.1765C31.688 45.1757 31.2099 45.2821 30.7707 45.4883Z" fill="white"/>
<path d="M12.8202 42.3529C9.9393 42.3529 8 44.6127 8 48C8 51.3873 9.93986 53.6471 12.8202 53.6471C15.1182 53.6471 16.988 52.1008 17.4118 49.7102H15.2287C14.9109 50.9429 14.0953 51.8237 12.8841 51.8237C11.15 51.8237 10.0867 50.2415 10.0867 47.9297C10.0867 45.618 11.1516 44.0357 12.8841 44.0357C14.0953 44.0357 14.9109 44.9183 15.2287 46.1492H17.3826C16.9124 43.8415 15.0756 42.3529 12.8202 42.3529Z" fill="white"/>
<path d="M36.1154 29.1765C34.6511 29.1765 33.7578 29.9132 33.373 30.344C32.8444 29.5126 31.97 29.1765 30.9432 29.1765C29.8741 29.1765 29.1428 29.6262 28.7202 29.9973V29.3765H26.8235V37.6471H28.7202V32.92C28.7202 31.7536 29.2464 30.7228 30.4255 30.6713C31.5708 30.6216 31.9946 31.5258 31.9946 32.3874V37.6447H33.8907V32.9176C33.8907 31.7513 34.4175 30.7204 35.5966 30.6689C36.7224 30.6198 37.1513 31.4974 37.1639 32.346V37.6435H39.0588V32.1761C39.06 30.0931 37.6776 29.1765 36.1154 29.1765Z" fill="white"/>
<path d="M53.0207 33.4979C53.0207 34.4499 52.7922 36.1731 51.2038 36.1731C49.8432 36.1731 49.5675 35.0748 49.5675 34.3286V29.1765H47.5294V34.6381C47.5294 36.5808 48.7632 37.6471 50.5814 37.6471C51.6344 37.6471 52.4718 37.2695 53.0207 36.6938V37.4476H55.0588V29.1765H53.0207V33.4979Z" fill="white"/>
<path d="M60.3897 29.1765C59.2148 29.1765 58.4718 29.6268 58.0204 30.0458V29.3759H56V37.6465H58.0204V32.9194C58.0204 31.753 58.62 30.721 59.876 30.6707C61.0741 30.6228 61.4932 31.5258 61.5072 32.3762V37.6471H63.5294V32.1229C63.5294 30.2085 62.0568 29.1765 60.3897 29.1765Z" fill="white"/>
<path d="M44.0854 32.7085C42.6315 32.3255 42.0871 32.0501 42.0871 31.5123C42.0871 30.9071 42.7397 30.5671 43.4118 30.6096C44.2157 30.66 44.6556 31.0873 44.7617 31.6828H46.4579C46.3346 30.2662 45.1586 29.1765 43.3213 29.1765C41.624 29.1765 40.1906 30.1251 40.2165 31.6222C40.2348 32.674 40.9289 33.3313 41.9455 33.7325C43.0564 34.1705 44.5544 34.332 44.6852 35.0812C44.8161 35.8303 44.0773 36.2479 43.2405 36.1527C42.5163 36.07 42.1049 35.6994 41.9132 35.0596H40C40.3182 36.7285 41.5842 37.6471 43.3821 37.6471C45.2765 37.6471 46.62 36.5137 46.5877 35.0404C46.5516 33.4129 44.8538 32.912 44.0854 32.7085Z" fill="white"/>
<path d="M70.1217 30.068V30.0865C69.5861 29.5254 68.8662 29.1765 67.9519 29.1765C65.7092 29.1765 64.4706 30.7844 64.4706 33.2451C64.4706 35.7058 65.7092 37.3143 67.9519 37.3143C68.878 37.3143 69.6047 36.9555 70.1421 36.3822V36.7468C70.1421 37.8482 69.7352 38.8232 68.4503 38.898C67.0602 38.9785 66.6551 38.0406 66.6014 37.8378H64.7531C64.9944 39.1084 66.0584 40.4706 68.3232 40.4706C70.7348 40.4706 72 38.7548 72 36.4709V29.457H70.1217V30.068ZM68.1932 35.7979C66.9828 35.7759 66.3505 34.7232 66.3505 33.2474C66.3505 31.7536 66.9958 30.6923 68.2316 30.6923C69.4674 30.6923 70.0963 31.7658 70.0963 33.2364C70.094 34.6902 69.4064 35.7759 68.1932 35.7979Z" fill="white"/>
<path d="M23.1352 30.0527V30.0708C22.6205 29.5193 21.874 29.1765 20.9946 29.1765C18.8383 29.1765 17.4117 30.9113 17.4117 33.4118C17.4117 35.9122 18.8383 37.6471 20.9946 37.6471C21.874 37.6471 22.6205 37.3036 23.1352 36.7527V36.7709V37.3716H24.9412V29.4519H23.1352V30.0527ZM21.1892 36.1593C19.9999 36.1593 19.2172 35.0599 19.2172 33.4118C19.2172 31.7637 20.001 30.6636 21.1892 30.6636C22.3773 30.6636 23.1065 31.894 23.1065 33.4118C23.1065 34.9295 22.3789 36.1593 21.1908 36.1593H21.1892Z" fill="white"/>
<path d="M38.9093 45.747V45.7659C38.3303 45.1922 37.4904 44.8356 36.5009 44.8356C34.0755 44.8356 32.4706 46.6402 32.4706 49.2413C32.4706 51.8424 34.0755 53.6471 36.5009 53.6471C37.4904 53.6471 38.3303 53.2898 38.9093 52.7167V52.7356V53.3605H40.9412V42.3529H38.9093V45.747ZM36.7199 52.0995C35.3819 52.0995 34.5019 50.9557 34.5019 49.2413C34.5019 47.5269 35.3831 46.3825 36.7199 46.3825C38.0566 46.3825 38.877 47.6625 38.877 49.2413C38.877 50.8201 38.0591 52.0995 36.7217 52.0995H36.7199Z" fill="white"/>
<path d="M24.0764 46.0527V46.0708C23.5618 45.5193 22.8153 45.1765 21.9358 45.1765C19.7795 45.1765 18.353 46.9113 18.353 49.4118C18.353 51.9122 19.7795 53.6471 21.9358 53.6471C22.8153 53.6471 23.5618 53.3036 24.0764 52.7527V52.7709V53.3716H25.8824V45.4519H24.0764V46.0527ZM22.1304 52.1593C20.9412 52.1593 20.1584 51.0599 20.1584 49.4118C20.1584 47.7637 20.9422 46.6636 22.1304 46.6636C23.3185 46.6636 24.0477 47.894 24.0477 49.4118C24.0477 50.9295 23.3201 52.1593 22.132 52.1593H22.1304Z" fill="white"/>
<path d="M12.8676 31.0991C10.974 30.5358 10.619 30.0282 10.5456 29.4075C10.4681 28.7587 10.9598 27.8954 12.2303 27.8954C13.5007 27.8954 13.935 28.8103 14.0333 29.3249H16.1954C15.9244 27.2977 14.2469 26.3529 12.238 26.3529C10.229 26.3529 8.28995 27.4205 8.28995 29.462C8.28995 31.4123 9.98643 32.1007 11.8403 32.6955C13.5966 33.2611 14.2534 33.6133 14.2534 34.4938C14.2534 35.3026 13.5291 35.9887 12.3948 35.9887C11.2604 35.9887 10.4793 35.5464 10.1835 34.5661H8C8.17752 35.6996 9.26867 37.6471 12.206 37.6471C15.0919 37.6471 16.4706 36.0409 16.4706 34.32C16.4724 32.3651 14.6877 31.6429 12.8676 31.0991Z" fill="white"/>
<path d="M30.7707 45.4883C30.3086 45.6958 29.9607 45.9754 29.7271 46.3272V45.2862H27.7647V53.6471H29.7271C29.7271 53.6471 29.7365 50.6576 29.7306 50.177C29.723 49.5474 29.682 48.9065 29.9609 48.3216C30.4168 47.3646 31.4575 46.8405 32.4706 46.8692V45.1914C32.3713 45.1812 32.2715 45.1763 32.1718 45.1765C31.688 45.1757 31.2099 45.2821 30.7707 45.4883Z" fill="white"/>
<path d="M12.8202 42.3529C9.9393 42.3529 8 44.6127 8 48C8 51.3873 9.93986 53.6471 12.8202 53.6471C15.1182 53.6471 16.988 52.1008 17.4118 49.7102H15.2287C14.9109 50.9429 14.0953 51.8237 12.8841 51.8237C11.15 51.8237 10.0867 50.2415 10.0867 47.9297C10.0867 45.618 11.1516 44.0357 12.8841 44.0357C14.0953 44.0357 14.9109 44.9183 15.2287 46.1492H17.3826C16.9124 43.8415 15.0756 42.3529 12.8202 42.3529Z" fill="white"/>
<path d="M36.1154 29.1765C34.6511 29.1765 33.7578 29.9132 33.373 30.344C32.8444 29.5126 31.97 29.1765 30.9432 29.1765C29.8741 29.1765 29.1428 29.6262 28.7202 29.9973V29.3765H26.8235V37.6471H28.7202V32.92C28.7202 31.7536 29.2464 30.7228 30.4255 30.6713C31.5708 30.6216 31.9946 31.5258 31.9946 32.3874V37.6447H33.8907V32.9176C33.8907 31.7513 34.4175 30.7204 35.5966 30.6689C36.7224 30.6198 37.1513 31.4974 37.1639 32.346V37.6435H39.0588V32.1761C39.06 30.0931 37.6776 29.1765 36.1154 29.1765Z" fill="white"/>
<path d="M53.0207 33.4979C53.0207 34.4499 52.7922 36.1731 51.2038 36.1731C49.8432 36.1731 49.5675 35.0748 49.5675 34.3286V29.1765H47.5294V34.6381C47.5294 36.5808 48.7632 37.6471 50.5814 37.6471C51.6344 37.6471 52.4718 37.2695 53.0207 36.6938V37.4476H55.0588V29.1765H53.0207V33.4979Z" fill="white"/>
<path d="M60.3897 29.1765C59.2148 29.1765 58.4718 29.6268 58.0204 30.0458V29.3759H56V37.6465H58.0204V32.9194C58.0204 31.753 58.62 30.721 59.876 30.6707C61.0741 30.6228 61.4932 31.5258 61.5072 32.3762V37.6471H63.5294V32.1229C63.5294 30.2085 62.0568 29.1765 60.3897 29.1765Z" fill="white"/>
<path d="M44.0854 32.7085C42.6315 32.3255 42.0871 32.0501 42.0871 31.5123C42.0871 30.9071 42.7397 30.5671 43.4118 30.6096C44.2157 30.66 44.6556 31.0873 44.7617 31.6828H46.4579C46.3346 30.2662 45.1586 29.1765 43.3213 29.1765C41.624 29.1765 40.1906 30.1251 40.2165 31.6222C40.2348 32.674 40.9289 33.3313 41.9455 33.7325C43.0564 34.1705 44.5544 34.332 44.6852 35.0812C44.8161 35.8303 44.0773 36.2479 43.2405 36.1527C42.5163 36.07 42.1049 35.6994 41.9132 35.0596H40C40.3182 36.7285 41.5842 37.6471 43.3821 37.6471C45.2765 37.6471 46.62 36.5137 46.5877 35.0404C46.5516 33.4129 44.8538 32.912 44.0854 32.7085Z" fill="white"/>
<path d="M70.1217 30.068V30.0865C69.5861 29.5254 68.8662 29.1765 67.9519 29.1765C65.7092 29.1765 64.4706 30.7844 64.4706 33.2451C64.4706 35.7058 65.7092 37.3143 67.9519 37.3143C68.878 37.3143 69.6047 36.9555 70.1421 36.3822V36.7468C70.1421 37.8482 69.7352 38.8232 68.4503 38.898C67.0602 38.9785 66.6551 38.0406 66.6014 37.8378H64.7531C64.9944 39.1084 66.0584 40.4706 68.3232 40.4706C70.7348 40.4706 72 38.7548 72 36.4709V29.457H70.1217V30.068ZM68.1932 35.7979C66.9828 35.7759 66.3505 34.7232 66.3505 33.2474C66.3505 31.7536 66.9958 30.6923 68.2316 30.6923C69.4674 30.6923 70.0963 31.7658 70.0963 33.2364C70.094 34.6902 69.4064 35.7759 68.1932 35.7979Z" fill="white"/>
<path d="M23.1352 30.0527V30.0708C22.6205 29.5193 21.874 29.1765 20.9946 29.1765C18.8383 29.1765 17.4117 30.9113 17.4117 33.4118C17.4117 35.9122 18.8383 37.6471 20.9946 37.6471C21.874 37.6471 22.6205 37.3036 23.1352 36.7527V36.7709V37.3716H24.9412V29.4519H23.1352V30.0527ZM21.1892 36.1593C19.9999 36.1593 19.2172 35.0599 19.2172 33.4118C19.2172 31.7637 20.001 30.6636 21.1892 30.6636C22.3773 30.6636 23.1065 31.894 23.1065 33.4118C23.1065 34.9295 22.3789 36.1593 21.1908 36.1593H21.1892Z" fill="white"/>
<path d="M38.9093 45.747V45.7659C38.3303 45.1922 37.4904 44.8356 36.5009 44.8356C34.0755 44.8356 32.4706 46.6402 32.4706 49.2413C32.4706 51.8424 34.0755 53.6471 36.5009 53.6471C37.4904 53.6471 38.3303 53.2898 38.9093 52.7167V52.7356V53.3605H40.9412V42.3529H38.9093V45.747ZM36.7199 52.0995C35.3819 52.0995 34.5019 50.9557 34.5019 49.2413C34.5019 47.5269 35.3831 46.3825 36.7199 46.3825C38.0566 46.3825 38.877 47.6625 38.877 49.2413C38.877 50.8201 38.0591 52.0995 36.7217 52.0995H36.7199Z" fill="white"/>
<path d="M24.0764 46.0527V46.0708C23.5618 45.5193 22.8153 45.1765 21.9358 45.1765C19.7795 45.1765 18.353 46.9113 18.353 49.4118C18.353 51.9122 19.7795 53.6471 21.9358 53.6471C22.8153 53.6471 23.5618 53.3036 24.0764 52.7527V52.7709V53.3716H25.8824V45.4519H24.0764V46.0527ZM22.1304 52.1593C20.9412 52.1593 20.1584 51.0599 20.1584 49.4118C20.1584 47.7637 20.9422 46.6636 22.1304 46.6636C23.3185 46.6636 24.0477 47.894 24.0477 49.4118C24.0477 50.9295 23.3201 52.1593 22.132 52.1593H22.1304Z" fill="white"/>
<path d="M12.8676 31.0991C10.974 30.5358 10.619 30.0282 10.5456 29.4075C10.4681 28.7587 10.9598 27.8954 12.2303 27.8954C13.5007 27.8954 13.935 28.8103 14.0333 29.3249H16.1954C15.9244 27.2977 14.2469 26.3529 12.238 26.3529C10.229 26.3529 8.28995 27.4205 8.28995 29.462C8.28995 31.4123 9.98643 32.1007 11.8403 32.6955C13.5966 33.2611 14.2534 33.6133 14.2534 34.4938C14.2534 35.3026 13.5291 35.9887 12.3948 35.9887C11.2604 35.9887 10.4793 35.5464 10.1835 34.5661H8C8.17752 35.6996 9.26867 37.6471 12.206 37.6471C15.0919 37.6471 16.4706 36.0409 16.4706 34.32C16.4724 32.3651 14.6877 31.6429 12.8676 31.0991Z" fill="white"/>
<path d="M30.7707 45.4883C30.3086 45.6958 29.9607 45.9754 29.7271 46.3272V45.2862H27.7647V53.6471H29.7271C29.7271 53.6471 29.7365 50.6576 29.7306 50.177C29.723 49.5474 29.682 48.9065 29.9609 48.3216C30.4168 47.3646 31.4575 46.8405 32.4706 46.8692V45.1914C32.3713 45.1812 32.2715 45.1763 32.1718 45.1765C31.688 45.1757 31.2099 45.2821 30.7707 45.4883Z" fill="white"/>
<path d="M12.8202 42.3529C9.9393 42.3529 8 44.6127 8 48C8 51.3873 9.93986 53.6471 12.8202 53.6471C15.1182 53.6471 16.988 52.1008 17.4118 49.7102H15.2287C14.9109 50.9429 14.0953 51.8237 12.8841 51.8237C11.15 51.8237 10.0867 50.2415 10.0867 47.9297C10.0867 45.618 11.1516 44.0357 12.8841 44.0357C14.0953 44.0357 14.9109 44.9183 15.2287 46.1492H17.3826C16.9124 43.8415 15.0756 42.3529 12.8202 42.3529Z" fill="white"/>
<path d="M36.1154 29.1765C34.6511 29.1765 33.7578 29.9132 33.373 30.344C32.8444 29.5126 31.97 29.1765 30.9432 29.1765C29.8741 29.1765 29.1428 29.6262 28.7202 29.9973V29.3765H26.8235V37.6471H28.7202V32.92C28.7202 31.7536 29.2464 30.7228 30.4255 30.6713C31.5708 30.6216 31.9946 31.5258 31.9946 32.3874V37.6447H33.8907V32.9176C33.8907 31.7513 34.4175 30.7204 35.5966 30.6689C36.7224 30.6198 37.1513 31.4974 37.1639 32.346V37.6435H39.0588V32.1761C39.06 30.0931 37.6776 29.1765 36.1154 29.1765Z" fill="white"/>
<path d="M53.0207 33.4979C53.0207 34.4499 52.7922 36.1731 51.2038 36.1731C49.8432 36.1731 49.5675 35.0748 49.5675 34.3286V29.1765H47.5294V34.6381C47.5294 36.5808 48.7632 37.6471 50.5814 37.6471C51.6344 37.6471 52.4718 37.2695 53.0207 36.6938V37.4476H55.0588V29.1765H53.0207V33.4979Z" fill="white"/>
<path d="M60.3897 29.1765C59.2148 29.1765 58.4718 29.6268 58.0204 30.0458V29.3759H56V37.6465H58.0204V32.9194C58.0204 31.753 58.62 30.721 59.876 30.6707C61.0741 30.6228 61.4932 31.5258 61.5072 32.3762V37.6471H63.5294V32.1229C63.5294 30.2085 62.0568 29.1765 60.3897 29.1765Z" fill="white"/>
<path d="M44.0854 32.7085C42.6315 32.3255 42.0871 32.0501 42.0871 31.5123C42.0871 30.9071 42.7397 30.5671 43.4118 30.6096C44.2157 30.66 44.6556 31.0873 44.7617 31.6828H46.4579C46.3346 30.2662 45.1586 29.1765 43.3213 29.1765C41.624 29.1765 40.1906 30.1251 40.2165 31.6222C40.2348 32.674 40.9289 33.3313 41.9455 33.7325C43.0564 34.1705 44.5544 34.332 44.6852 35.0812C44.8161 35.8303 44.0773 36.2479 43.2405 36.1527C42.5163 36.07 42.1049 35.6994 41.9132 35.0596H40C40.3182 36.7285 41.5842 37.6471 43.3821 37.6471C45.2765 37.6471 46.62 36.5137 46.5877 35.0404C46.5516 33.4129 44.8538 32.912 44.0854 32.7085Z" fill="white"/>
<path d="M70.1217 30.068V30.0865C69.5861 29.5254 68.8662 29.1765 67.9519 29.1765C65.7092 29.1765 64.4706 30.7844 64.4706 33.2451C64.4706 35.7058 65.7092 37.3143 67.9519 37.3143C68.878 37.3143 69.6047 36.9555 70.1421 36.3822V36.7468C70.1421 37.8482 69.7352 38.8232 68.4503 38.898C67.0602 38.9785 66.6551 38.0406 66.6014 37.8378H64.7531C64.9944 39.1084 66.0584 40.4706 68.3232 40.4706C70.7348 40.4706 72 38.7548 72 36.4709V29.457H70.1217V30.068ZM68.1932 35.7979C66.9828 35.7759 66.3505 34.7232 66.3505 33.2474C66.3505 31.7536 66.9958 30.6923 68.2316 30.6923C69.4674 30.6923 70.0963 31.7658 70.0963 33.2364C70.094 34.6902 69.4064 35.7759 68.1932 35.7979Z" fill="white"/>
<path d="M23.1352 30.0527V30.0708C22.6205 29.5193 21.874 29.1765 20.9946 29.1765C18.8383 29.1765 17.4117 30.9113 17.4117 33.4118C17.4117 35.9122 18.8383 37.6471 20.9946 37.6471C21.874 37.6471 22.6205 37.3036 23.1352 36.7527V36.7709V37.3716H24.9412V29.4519H23.1352V30.0527ZM21.1892 36.1593C19.9999 36.1593 19.2172 35.0599 19.2172 33.4118C19.2172 31.7637 20.001 30.6636 21.1892 30.6636C22.3773 30.6636 23.1065 31.894 23.1065 33.4118C23.1065 34.9295 22.3789 36.1593 21.1908 36.1593H21.1892Z" fill="white"/>
<path d="M38.9093 45.747V45.7659C38.3303 45.1922 37.4904 44.8356 36.5009 44.8356C34.0755 44.8356 32.4706 46.6402 32.4706 49.2413C32.4706 51.8424 34.0755 53.6471 36.5009 53.6471C37.4904 53.6471 38.3303 53.2898 38.9093 52.7167V52.7356V53.3605H40.9412V42.3529H38.9093V45.747ZM36.7199 52.0995C35.3819 52.0995 34.5019 50.9557 34.5019 49.2413C34.5019 47.5269 35.3831 46.3825 36.7199 46.3825C38.0566 46.3825 38.877 47.6625 38.877 49.2413C38.877 50.8201 38.0591 52.0995 36.7217 52.0995H36.7199Z" fill="white"/>
<path d="M24.0764 46.0527V46.0708C23.5618 45.5193 22.8153 45.1765 21.9358 45.1765C19.7795 45.1765 18.353 46.9113 18.353 49.4118C18.353 51.9122 19.7795 53.6471 21.9358 53.6471C22.8153 53.6471 23.5618 53.3036 24.0764 52.7527V52.7709V53.3716H25.8824V45.4519H24.0764V46.0527ZM22.1304 52.1593C20.9412 52.1593 20.1584 51.0599 20.1584 49.4118C20.1584 47.7637 20.9422 46.6636 22.1304 46.6636C23.3185 46.6636 24.0477 47.894 24.0477 49.4118C24.0477 50.9295 23.3201 52.1593 22.132 52.1593H22.1304Z" fill="white"/>
<path d="M12.8676 31.0991C10.974 30.5358 10.619 30.0282 10.5456 29.4075C10.4681 28.7587 10.9598 27.8954 12.2303 27.8954C13.5007 27.8954 13.935 28.8103 14.0333 29.3249H16.1954C15.9244 27.2977 14.2469 26.3529 12.238 26.3529C10.229 26.3529 8.28995 27.4205 8.28995 29.462C8.28995 31.4123 9.98643 32.1007 11.8403 32.6955C13.5966 33.2611 14.2534 33.6133 14.2534 34.4938C14.2534 35.3026 13.5291 35.9887 12.3948 35.9887C11.2604 35.9887 10.4793 35.5464 10.1835 34.5661H8C8.17752 35.6996 9.26867 37.6471 12.206 37.6471C15.0919 37.6471 16.4706 36.0409 16.4706 34.32C16.4724 32.3651 14.6877 31.6429 12.8676 31.0991Z" fill="white"/>
<path d="M30.7707 45.4883C30.3086 45.6958 29.9607 45.9754 29.7271 46.3272V45.2862H27.7647V53.6471H29.7271C29.7271 53.6471 29.7365 50.6576 29.7306 50.177C29.723 49.5474 29.682 48.9065 29.9609 48.3216C30.4168 47.3646 31.4575 46.8405 32.4706 46.8692V45.1914C32.3713 45.1812 32.2715 45.1763 32.1718 45.1765C31.688 45.1757 31.2099 45.2821 30.7707 45.4883Z" fill="white"/>
</svg>
