<svg width="24" height="24" viewBox="0 0 24 24" fill="none" xmlns="http://www.w3.org/2000/svg">
<rect x="5.14294" y="2.64258" width="13.7143" height="12" rx="1" fill="#1E2124"/>
<path d="M12.6759 21.7375C12.2936 22.0879 11.7068 22.0879 11.3244 21.7375L2.662 13.7969C2.32585 13.4887 2.54385 12.9283 2.99986 12.9283L21.0005 12.9283C21.4565 12.9283 21.6745 13.4887 21.3384 13.7969L12.6759 21.7375Z" fill="#1E2124"/>
<path fill-rule="evenodd" clip-rule="evenodd" d="M14.309 9.92676C15.3069 9.95259 16.0892 10.7548 16.0892 11.7539C16.089 12.7517 15.3067 13.5542 14.309 13.5801C14.2929 13.5801 14.2761 13.5811 14.2601 13.5811C13.6155 13.5809 13.0156 13.2379 12.6869 12.6797C12.3509 12.1087 12.3509 11.3993 12.6869 10.8262C13.0242 10.254 13.6471 9.91715 14.309 9.92676ZM14.3578 6.25488C14.6001 6.01149 14.9952 6.01149 15.2386 6.25488C15.4818 6.4983 15.4819 6.89244 15.2386 7.13574L9.67419 12.6982C9.55256 12.8198 9.39375 12.8808 9.23376 12.8809C9.0747 12.8809 8.91405 12.8199 8.79235 12.6982C8.55019 12.4549 8.55012 12.0607 8.79333 11.8174L14.3578 6.25488ZM14.2621 11.1719C14.0574 11.172 13.8667 11.28 13.7621 11.458C13.6555 11.6394 13.6554 11.8655 13.7621 12.0469C13.8699 12.2292 14.073 12.3456 14.2777 12.334C14.5946 12.3254 14.844 12.0698 14.8441 11.7529C14.844 11.436 14.5947 11.1805 14.2777 11.1719C14.2806 11.1769 14.2686 11.1721 14.2621 11.1719ZM9.73962 5.40527C10.7388 5.40531 11.5411 6.18646 11.5668 7.18457C11.5827 7.84843 11.2383 8.46831 10.6674 8.80566C10.3813 8.97325 10.0598 9.0576 9.73962 9.05762C9.41936 9.05762 9.09896 8.97326 8.81286 8.80566C8.24083 8.46832 7.89641 7.84844 7.91345 7.18457C7.93907 6.18644 8.74149 5.40527 9.73962 5.40527ZM9.73962 6.64941C9.4218 6.64975 9.16701 6.89889 9.15954 7.2168C9.15435 7.42691 9.2633 7.62475 9.44567 7.73145C9.62693 7.83896 9.85326 7.83785 10.0345 7.73145C10.2159 7.62476 10.3259 7.42695 10.3207 7.2168C10.3121 6.89868 10.0567 6.64941 9.73962 6.64941Z" fill="white"/>
</svg>
