<svg width="12" height="12" viewBox="0 0 12 12" fill="none" xmlns="http://www.w3.org/2000/svg">
<g clip-path="url(#clip0_598_17514)">
<path fill-rule="evenodd" clip-rule="evenodd" d="M6.16744 2.72713L1.63644 7.25813L1.01844 9.56313L0.611942 11.0816C0.600652 11.1241 0.600708 11.1687 0.612106 11.2111C0.623504 11.2535 0.645843 11.2921 0.676885 11.3232C0.707928 11.3542 0.746583 11.3766 0.788978 11.388C0.831373 11.3994 0.876019 11.3994 0.918442 11.3881L2.43594 10.9811L4.74144 10.3631H4.74194L9.27294 5.83213L6.16794 2.72713H6.16744ZM11.1464 3.25213L8.74844 0.853632C8.70205 0.807159 8.64695 0.77029 8.58629 0.745135C8.52563 0.719979 8.46061 0.707031 8.39494 0.707031C8.32928 0.707031 8.26425 0.719979 8.2036 0.745135C8.14294 0.77029 8.08784 0.807159 8.04144 0.853632L6.80394 2.09063L9.90944 5.19613L11.1464 3.95863C11.1929 3.91224 11.2298 3.85714 11.2549 3.79648C11.2801 3.73582 11.293 3.6708 11.293 3.60513C11.293 3.53947 11.2801 3.47444 11.2549 3.41379C11.2298 3.35313 11.1929 3.29803 11.1464 3.25163" fill="#B1B8BE"/>
</g>
<defs>
<clipPath id="clip0_598_17514">
<rect width="12" height="12" fill="white"/>
</clipPath>
</defs>
</svg>
