<svg width="24" height="24" viewBox="0 0 24 24" fill="none" xmlns="http://www.w3.org/2000/svg">
<g clip-path="url(#clip0_4531_9772)">
<rect x="3" y="3" width="18" height="18" rx="2" fill="#1E2124"/>
<rect x="12" y="-0.727905" width="18" height="18" rx="2" transform="rotate(45 12 -0.727905)" fill="#1E2124"/>
<path d="M7.33884 12.7756L12.7059 5.26177C12.8755 5.02428 13.25 5.14429 13.25 5.43614V12.95C13.25 13.1157 13.1157 13.25 12.95 13.25H7.58296C7.33895 13.25 7.19701 12.9742 7.33884 12.7756Z" fill="white"/>
<path d="M16.6612 11.2244L11.2941 18.7382C11.1245 18.9757 10.75 18.8557 10.75 18.5639L10.75 11.05C10.75 10.8843 10.8843 10.75 11.05 10.75L16.417 10.75C16.6611 10.75 16.803 11.0258 16.6612 11.2244Z" fill="white"/>
</g>
<defs>
<clipPath id="clip0_4531_9772">
<rect width="24" height="24" fill="white"/>
</clipPath>
</defs>
</svg>
