<svg width="24" height="24" viewBox="0 0 24 24" fill="none" xmlns="http://www.w3.org/2000/svg">
<g clip-path="url(#clip0_3788_470)">
<rect x="3.5" y="3.5" width="17" height="17" rx="2" fill="#1E2124"/>
<rect x="12" y="-6.10352e-05" width="16.9706" height="16.9706" rx="2" transform="rotate(45 12 -6.10352e-05)" fill="#1E2124"/>
<mask id="path-3-outside-1_3788_470" maskUnits="userSpaceOnUse" x="3.30225" y="5.63495" width="17.2224" height="12.8301" fill="black">
<rect fill="white" x="3.30225" y="5.63495" width="17.2224" height="12.8301"/>
<path d="M5.64841 17.3992L3.94714 14.4525L7.03661 12.6688L7.16015 13.2725L4.83222 14.6165L5.25692 15.3521L7.6584 13.9656L7.78193 14.5693L5.5492 15.8584L6.2412 17.0569L5.64841 17.3992ZM9.13533 13.3841L10.2863 12.7195C10.5373 12.5746 10.6926 12.4273 10.7522 12.2775C10.8119 12.1276 10.8001 11.9806 10.7168 11.8364L10.6993 11.8061C10.621 11.6705 10.5054 11.5969 10.3525 11.5851C10.1996 11.5734 9.99767 11.64 9.7467 11.7849L8.42264 12.5494L9.82912 14.9855L9.23633 15.3277L7.53506 12.381L9.47355 11.2618C9.66394 11.1519 9.84929 11.0699 10.0296 11.0158C10.2099 10.9617 10.378 10.9397 10.5338 10.9497C10.6908 10.9552 10.8327 10.9945 10.9594 11.0674C11.0862 11.1404 11.1903 11.2476 11.272 11.3889L11.3619 11.5447C11.4285 11.6601 11.4679 11.7816 11.48 11.9092C11.4905 12.0339 11.4756 12.1579 11.4352 12.2812C11.3977 12.4029 11.3355 12.5215 11.2484 12.6372C11.1613 12.7528 11.055 12.8585 10.9294 12.954L12.4975 13.4218L12.5075 13.4391L11.7979 13.8488L10.21 13.3867L9.55658 13.7639L9.13533 13.3841ZM12.984 13.164L11.2827 10.2173L14.502 8.35865L14.6181 8.94935L12.1603 10.3683L12.56 11.0606L15.087 9.6017L15.203 10.1924L12.8448 11.5539L13.292 12.3285L15.9228 10.8096L16.0345 11.4028L12.984 13.164ZM16.7279 11.0025L15.0266 8.05578L18.2459 6.19713L18.3619 6.78784L15.9042 8.20681L16.3039 8.89913L18.8309 7.44018L18.9469 8.03089L16.5887 9.3924L17.0359 10.1669L19.6667 8.64803L19.7784 9.24124L16.7279 11.0025Z"/>
</mask>
<path d="M5.64841 17.3992L3.94714 14.4525L7.03661 12.6688L7.16015 13.2725L4.83222 14.6165L5.25692 15.3521L7.6584 13.9656L7.78193 14.5693L5.5492 15.8584L6.2412 17.0569L5.64841 17.3992ZM9.13533 13.3841L10.2863 12.7195C10.5373 12.5746 10.6926 12.4273 10.7522 12.2775C10.8119 12.1276 10.8001 11.9806 10.7168 11.8364L10.6993 11.8061C10.621 11.6705 10.5054 11.5969 10.3525 11.5851C10.1996 11.5734 9.99767 11.64 9.7467 11.7849L8.42264 12.5494L9.82912 14.9855L9.23633 15.3277L7.53506 12.381L9.47355 11.2618C9.66394 11.1519 9.84929 11.0699 10.0296 11.0158C10.2099 10.9617 10.378 10.9397 10.5338 10.9497C10.6908 10.9552 10.8327 10.9945 10.9594 11.0674C11.0862 11.1404 11.1903 11.2476 11.272 11.3889L11.3619 11.5447C11.4285 11.6601 11.4679 11.7816 11.48 11.9092C11.4905 12.0339 11.4756 12.1579 11.4352 12.2812C11.3977 12.4029 11.3355 12.5215 11.2484 12.6372C11.1613 12.7528 11.055 12.8585 10.9294 12.954L12.4975 13.4218L12.5075 13.4391L11.7979 13.8488L10.21 13.3867L9.55658 13.7639L9.13533 13.3841ZM12.984 13.164L11.2827 10.2173L14.502 8.35865L14.6181 8.94935L12.1603 10.3683L12.56 11.0606L15.087 9.6017L15.203 10.1924L12.8448 11.5539L13.292 12.3285L15.9228 10.8096L16.0345 11.4028L12.984 13.164ZM16.7279 11.0025L15.0266 8.05578L18.2459 6.19713L18.3619 6.78784L15.9042 8.20681L16.3039 8.89913L18.8309 7.44018L18.9469 8.03089L16.5887 9.3924L17.0359 10.1669L19.6667 8.64803L19.7784 9.24124L16.7279 11.0025Z" fill="white"/>
<path d="M5.64841 17.3992L5.6051 17.4242L5.6301 17.4675L5.67341 17.4425L5.64841 17.3992ZM3.94714 14.4525L3.92214 14.4092L3.87884 14.4342L3.90384 14.4775L3.94714 14.4525ZM7.03661 12.6688L7.08559 12.6588L7.07169 12.5908L7.01161 12.6255L7.03661 12.6688ZM7.16015 13.2725L7.18515 13.3158L7.21636 13.2978L7.20913 13.2625L7.16015 13.2725ZM4.83222 14.6165L4.80722 14.5732L4.76392 14.5982L4.78892 14.6415L4.83222 14.6165ZM5.25692 15.3521L5.21362 15.3771L5.23862 15.4204L5.28192 15.3954L5.25692 15.3521ZM7.6584 13.9656L7.70738 13.9556L7.69347 13.8876L7.6334 13.9223L7.6584 13.9656ZM7.78193 14.5693L7.80693 14.6126L7.83814 14.5946L7.83092 14.5593L7.78193 14.5693ZM5.5492 15.8584L5.5242 15.8151L5.4809 15.8401L5.5059 15.8834L5.5492 15.8584ZM6.2412 17.0569L6.2662 17.1002L6.3095 17.0752L6.2845 17.0319L6.2412 17.0569ZM5.64841 17.3992L5.69171 17.3742L3.99044 14.4275L3.94714 14.4525L3.90384 14.4775L5.6051 17.4242L5.64841 17.3992ZM3.94714 14.4525L3.97214 14.4958L7.06161 12.7121L7.03661 12.6688L7.01161 12.6255L3.92214 14.4092L3.94714 14.4525ZM7.03661 12.6688L6.98762 12.6788L7.11116 13.2825L7.16015 13.2725L7.20913 13.2625L7.08559 12.6588L7.03661 12.6688ZM7.16015 13.2725L7.13515 13.2292L4.80722 14.5732L4.83222 14.6165L4.85722 14.6598L7.18515 13.3158L7.16015 13.2725ZM4.83222 14.6165L4.78892 14.6415L5.21362 15.3771L5.25692 15.3521L5.30022 15.3271L4.87553 14.5915L4.83222 14.6165ZM5.25692 15.3521L5.28192 15.3954L7.6834 14.0089L7.6584 13.9656L7.6334 13.9223L5.23192 15.3088L5.25692 15.3521ZM7.6584 13.9656L7.60941 13.9756L7.73295 14.5793L7.78193 14.5693L7.83092 14.5593L7.70738 13.9556L7.6584 13.9656ZM7.78193 14.5693L7.75693 14.526L5.5242 15.8151L5.5492 15.8584L5.5742 15.9017L7.80693 14.6126L7.78193 14.5693ZM5.5492 15.8584L5.5059 15.8834L6.1979 17.0819L6.2412 17.0569L6.2845 17.0319L5.59251 15.8334L5.5492 15.8584ZM6.2412 17.0569L6.2162 17.0136L5.62341 17.3559L5.64841 17.3992L5.67341 17.4425L6.2662 17.1002L6.2412 17.0569ZM9.13533 13.3841L9.11033 13.3408L9.05078 13.3751L9.10185 13.4212L9.13533 13.3841ZM10.7522 12.2775L10.7058 12.259V12.259L10.7522 12.2775ZM10.3525 11.5851L10.3487 11.635L10.3487 11.635L10.3525 11.5851ZM8.42264 12.5494L8.39764 12.5061L8.35434 12.5311L8.37934 12.5744L8.42264 12.5494ZM9.82912 14.9855L9.85412 15.0288L9.89742 15.0038L9.87242 14.9605L9.82912 14.9855ZM9.23633 15.3277L9.19302 15.3527L9.21802 15.396L9.26133 15.371L9.23633 15.3277ZM7.53506 12.381L7.51006 12.3377L7.46676 12.3627L7.49176 12.406L7.53506 12.381ZM10.0296 11.0158L10.0152 10.9679V10.9679L10.0296 11.0158ZM10.5338 10.9497L10.5305 10.9996L10.532 10.9997L10.5338 10.9497ZM10.9594 11.0674L10.9345 11.1108V11.1108L10.9594 11.0674ZM11.48 11.9092L11.5298 11.905L11.5298 11.9045L11.48 11.9092ZM11.4352 12.2812L11.3877 12.2657L11.3874 12.2665L11.4352 12.2812ZM11.2484 12.6372L11.2084 12.6071V12.6071L11.2484 12.6372ZM10.9294 12.954L10.8991 12.9142L10.8208 12.9738L10.9151 13.0019L10.9294 12.954ZM12.4975 13.4218L12.5408 13.3968L12.5309 13.3795L12.5118 13.3739L12.4975 13.4218ZM12.5075 13.4391L12.5325 13.4824L12.5758 13.4574L12.5508 13.4141L12.5075 13.4391ZM11.7979 13.8488L11.7839 13.8968L11.8044 13.9027L11.8229 13.8921L11.7979 13.8488ZM10.21 13.3867L10.2239 13.3387L10.2034 13.3327L10.185 13.3434L10.21 13.3867ZM9.55658 13.7639L9.5231 13.8011L9.55009 13.8254L9.58158 13.8072L9.55658 13.7639ZM9.13533 13.3841L9.16033 13.4274L10.3113 12.7628L10.2863 12.7195L10.2613 12.6762L9.11033 13.3408L9.13533 13.3841ZM10.2863 12.7195L10.3113 12.7628C10.5651 12.6163 10.7327 12.4618 10.7987 12.296L10.7522 12.2775L10.7058 12.259C10.6525 12.3928 10.5094 12.533 10.2613 12.6762L10.2863 12.7195ZM10.7522 12.2775L10.7987 12.296C10.8642 12.1314 10.8507 11.9683 10.7601 11.8114L10.7168 11.8364L10.6735 11.8614C10.7494 11.9929 10.7596 12.1239 10.7058 12.259L10.7522 12.2775ZM10.7168 11.8364L10.7601 11.8114L10.7426 11.7811L10.6993 11.8061L10.656 11.8311L10.6735 11.8614L10.7168 11.8364ZM10.6993 11.8061L10.7426 11.7811C10.6563 11.6316 10.5261 11.5483 10.3563 11.5353L10.3525 11.5851L10.3487 11.635C10.4848 11.6454 10.5858 11.7094 10.656 11.8311L10.6993 11.8061ZM10.3525 11.5851L10.3563 11.5353C10.1878 11.5224 9.97478 11.5955 9.7217 11.7416L9.7467 11.7849L9.7717 11.8282C10.0206 11.6845 10.2114 11.6245 10.3487 11.635L10.3525 11.5851ZM9.7467 11.7849L9.7217 11.7416L8.39764 12.5061L8.42264 12.5494L8.44764 12.5927L9.7717 11.8282L9.7467 11.7849ZM8.42264 12.5494L8.37934 12.5744L9.78582 15.0105L9.82912 14.9855L9.87242 14.9605L8.46594 12.5244L8.42264 12.5494ZM9.82912 14.9855L9.80412 14.9422L9.21133 15.2844L9.23633 15.3277L9.26133 15.371L9.85412 15.0288L9.82912 14.9855ZM9.23633 15.3277L9.27963 15.3027L7.57836 12.356L7.53506 12.381L7.49176 12.406L9.19302 15.3527L9.23633 15.3277ZM7.53506 12.381L7.56006 12.4243L9.49855 11.3051L9.47355 11.2618L9.44855 11.2185L7.51006 12.3377L7.53506 12.381ZM9.47355 11.2618L9.49855 11.3051C9.68613 11.1968 9.86792 11.1165 10.044 11.0637L10.0296 11.0158L10.0152 10.9679C9.83065 11.0233 9.64175 11.107 9.44855 11.2185L9.47355 11.2618ZM10.0296 11.0158L10.044 11.0637C10.2197 11.011 10.3818 10.99 10.5305 10.9996L10.5338 10.9497L10.537 10.8998C10.3742 10.8893 10.2001 10.9124 10.0152 10.9679L10.0296 11.0158ZM10.5338 10.9497L10.532 10.9997C10.6815 11.0049 10.8153 11.0422 10.9345 11.1108L10.9594 11.0674L10.9844 11.0241C10.85 10.9468 10.7001 10.9055 10.5355 10.8998L10.5338 10.9497ZM10.9594 11.0674L10.9345 11.1108C11.0527 11.1789 11.1509 11.2793 11.2287 11.4139L11.272 11.3889L11.3153 11.3639C11.2298 11.2159 11.1196 11.102 10.9844 11.0241L10.9594 11.0674ZM11.272 11.3889L11.2287 11.4139L11.3186 11.5697L11.3619 11.5447L11.4052 11.5197L11.3153 11.3639L11.272 11.3889ZM11.3619 11.5447L11.3186 11.5697C11.3818 11.6791 11.4188 11.7937 11.4302 11.9139L11.48 11.9092L11.5298 11.9045C11.517 11.7694 11.4753 11.641 11.4052 11.5197L11.3619 11.5447ZM11.48 11.9092L11.4302 11.9134C11.4401 12.0312 11.426 12.1485 11.3877 12.2657L11.4352 12.2812L11.4827 12.2968C11.5251 12.1674 11.5409 12.0366 11.5298 11.905L11.48 11.9092ZM11.4352 12.2812L11.3874 12.2665C11.3519 12.3819 11.2925 12.4954 11.2084 12.6071L11.2484 12.6372L11.2883 12.6672C11.3784 12.5476 11.4436 12.4238 11.483 12.296L11.4352 12.2812ZM11.2484 12.6372L11.2084 12.6071C11.1244 12.7188 11.0214 12.8212 10.8991 12.9142L10.9294 12.954L10.9597 12.9938C11.0886 12.8957 11.1983 12.7869 11.2883 12.6672L11.2484 12.6372ZM10.9294 12.954L10.9151 13.0019L12.4832 13.4697L12.4975 13.4218L12.5118 13.3739L10.9437 12.9061L10.9294 12.954ZM12.4975 13.4218L12.4542 13.4468L12.4642 13.4641L12.5075 13.4391L12.5508 13.4141L12.5408 13.3968L12.4975 13.4218ZM12.5075 13.4391L12.4825 13.3958L11.7729 13.8055L11.7979 13.8488L11.8229 13.8921L12.5325 13.4824L12.5075 13.4391ZM11.7979 13.8488L11.8119 13.8008L10.2239 13.3387L10.21 13.3867L10.196 13.4347L11.7839 13.8968L11.7979 13.8488ZM10.21 13.3867L10.185 13.3434L9.53158 13.7206L9.55658 13.7639L9.58158 13.8072L10.235 13.43L10.21 13.3867ZM9.55658 13.7639L9.59007 13.7268L9.16882 13.3469L9.13533 13.3841L9.10185 13.4212L9.5231 13.8011L9.55658 13.7639ZM12.984 13.164L12.9407 13.189L12.9657 13.2323L13.009 13.2073L12.984 13.164ZM11.2827 10.2173L11.2577 10.174L11.2144 10.199L11.2394 10.2423L11.2827 10.2173ZM14.502 8.35865L14.5511 8.34901L14.5376 8.28037L14.477 8.31535L14.502 8.35865ZM14.6181 8.94935L14.6431 8.99266L14.674 8.97479L14.6671 8.93972L14.6181 8.94935ZM12.1603 10.3683L12.1353 10.325L12.092 10.35L12.117 10.3933L12.1603 10.3683ZM12.56 11.0606L12.5167 11.0856L12.5417 11.1289L12.585 11.1039L12.56 11.0606ZM15.087 9.6017L15.1361 9.59206L15.1226 9.52342L15.062 9.5584L15.087 9.6017ZM15.203 10.1924L15.228 10.2357L15.259 10.2178L15.2521 10.1828L15.203 10.1924ZM12.8448 11.5539L12.8198 11.5106L12.7765 11.5356L12.8015 11.5789L12.8448 11.5539ZM13.292 12.3285L13.2487 12.3535L13.2737 12.3968L13.317 12.3718L13.292 12.3285ZM15.9228 10.8096L15.972 10.8003L15.9589 10.731L15.8978 10.7663L15.9228 10.8096ZM16.0345 11.4028L16.0595 11.4461L16.0902 11.4283L16.0837 11.3935L16.0345 11.4028ZM12.984 13.164L13.0273 13.139L11.326 10.1923L11.2827 10.2173L11.2394 10.2423L12.9407 13.189L12.984 13.164ZM11.2827 10.2173L11.3077 10.2606L14.527 8.40195L14.502 8.35865L14.477 8.31535L11.2577 10.174L11.2827 10.2173ZM14.502 8.35865L14.453 8.36829L14.569 8.95899L14.6181 8.94935L14.6671 8.93972L14.5511 8.34901L14.502 8.35865ZM14.6181 8.94935L14.5931 8.90605L12.1353 10.325L12.1603 10.3683L12.1853 10.4116L14.6431 8.99266L14.6181 8.94935ZM12.1603 10.3683L12.117 10.3933L12.5167 11.0856L12.56 11.0606L12.6033 11.0356L12.2036 10.3433L12.1603 10.3683ZM12.56 11.0606L12.585 11.1039L15.112 9.645L15.087 9.6017L15.062 9.5584L12.535 11.0173L12.56 11.0606ZM15.087 9.6017L15.0379 9.61134L15.154 10.202L15.203 10.1924L15.2521 10.1828L15.1361 9.59206L15.087 9.6017ZM15.203 10.1924L15.178 10.1491L12.8198 11.5106L12.8448 11.5539L12.8698 11.5972L15.228 10.2357L15.203 10.1924ZM12.8448 11.5539L12.8015 11.5789L13.2487 12.3535L13.292 12.3285L13.3353 12.3035L12.8881 11.5289L12.8448 11.5539ZM13.292 12.3285L13.317 12.3718L15.9478 10.8529L15.9228 10.8096L15.8978 10.7663L13.267 12.2852L13.292 12.3285ZM15.9228 10.8096L15.8737 10.8188L15.9854 11.412L16.0345 11.4028L16.0837 11.3935L15.972 10.8003L15.9228 10.8096ZM16.0345 11.4028L16.0095 11.3595L12.959 13.1207L12.984 13.164L13.009 13.2073L16.0595 11.4461L16.0345 11.4028ZM16.7279 11.0025L16.6846 11.0275L16.7096 11.0708L16.7529 11.0458L16.7279 11.0025ZM15.0266 8.05578L15.0016 8.01248L14.9583 8.03748L14.9833 8.08078L15.0266 8.05578ZM18.2459 6.19713L18.2949 6.18749L18.2815 6.11885L18.2209 6.15383L18.2459 6.19713ZM18.3619 6.78783L18.3869 6.83114L18.4179 6.81327L18.411 6.7782L18.3619 6.78783ZM15.9042 8.20681L15.8792 8.16351L15.8359 8.18851L15.8609 8.23181L15.9042 8.20681ZM16.3039 8.89913L16.2606 8.92413L16.2856 8.96743L16.3289 8.94243L16.3039 8.89913ZM18.8309 7.44018L18.8799 7.43054L18.8664 7.36191L18.8059 7.39688L18.8309 7.44018ZM18.9469 8.03089L18.9719 8.07419L19.0029 8.05632L18.996 8.02125L18.9469 8.03089ZM16.5887 9.3924L16.5637 9.3491L16.5204 9.3741L16.5454 9.4174L16.5887 9.3924ZM17.0359 10.1669L16.9926 10.1919L17.0176 10.2352L17.0609 10.2102L17.0359 10.1669ZM19.6667 8.64803L19.7158 8.63878L19.7028 8.56947L19.6417 8.60473L19.6667 8.64803ZM19.7784 9.24124L19.8034 9.28454L19.8341 9.26682L19.8275 9.23199L19.7784 9.24124ZM16.7279 11.0025L16.7712 10.9775L15.0699 8.03078L15.0266 8.05578L14.9833 8.08078L16.6846 11.0275L16.7279 11.0025ZM15.0266 8.05578L15.0516 8.09908L18.2709 6.24043L18.2459 6.19713L18.2209 6.15383L15.0016 8.01248L15.0266 8.05578ZM18.2459 6.19713L18.1968 6.20677L18.3129 6.79747L18.3619 6.78783L18.411 6.7782L18.2949 6.18749L18.2459 6.19713ZM18.3619 6.78783L18.3369 6.74453L15.8792 8.16351L15.9042 8.20681L15.9292 8.25011L18.3869 6.83114L18.3619 6.78783ZM15.9042 8.20681L15.8609 8.23181L16.2606 8.92413L16.3039 8.89913L16.3472 8.87413L15.9475 8.18181L15.9042 8.20681ZM16.3039 8.89913L16.3289 8.94243L18.8559 7.48348L18.8309 7.44018L18.8059 7.39688L16.2789 8.85582L16.3039 8.89913ZM18.8309 7.44018L18.7818 7.44982L18.8978 8.04053L18.9469 8.03089L18.996 8.02125L18.8799 7.43054L18.8309 7.44018ZM18.9469 8.03089L18.9219 7.98759L16.5637 9.3491L16.5887 9.3924L16.6137 9.4357L18.9719 8.07419L18.9469 8.03089ZM16.5887 9.3924L16.5454 9.4174L16.9926 10.1919L17.0359 10.1669L17.0792 10.1419L16.632 9.3674L16.5887 9.3924ZM17.0359 10.1669L17.0609 10.2102L19.6917 8.69134L19.6667 8.64803L19.6417 8.60473L17.0109 10.1236L17.0359 10.1669ZM19.6667 8.64803L19.6175 8.65729L19.7293 9.25049L19.7784 9.24124L19.8275 9.23199L19.7158 8.63878L19.6667 8.64803ZM19.7784 9.24124L19.7534 9.19794L16.7029 10.9592L16.7279 11.0025L16.7529 11.0458L19.8034 9.28454L19.7784 9.24124Z" fill="white" mask="url(#path-3-outside-1_3788_470)"/>
</g>
<defs>
<clipPath id="clip0_3788_470">
<rect width="24" height="24" fill="white"/>
</clipPath>
</defs>
</svg>
