<svg width="14" height="14" viewBox="0 0 14 14" fill="none" xmlns="http://www.w3.org/2000/svg">
<path d="M9.37817 4.71281C9.39986 4.71181 9.42156 4.71143 9.44326 4.71168C9.88745 4.71488 10.2805 4.8833 10.592 5.2003C11.1849 5.8101 11.5108 6.63065 11.4981 7.48102C11.4925 8.04566 11.3011 8.694 11.125 9.2294C11.0605 9.40116 10.9649 9.77363 10.7429 9.79911C10.4825 9.82901 10.1572 9.80903 9.89527 9.80551C9.66449 9.80685 9.43369 9.80629 9.20291 9.80383C8.53605 9.79112 8.6353 9.67967 8.49118 9.0887C8.41056 8.75473 8.29649 8.42973 8.15069 8.11864C8.04341 7.88675 7.92116 7.68347 7.84412 7.43457C7.65895 6.83637 7.69615 6.10258 7.99741 5.54636C8.26228 5.05734 8.82231 4.73463 9.37817 4.71281Z" fill="#6E7780"/>
<path d="M8.73808 10.1006C8.89011 10.0908 9.14982 10.1205 9.32043 10.1242C9.71569 10.1322 10.1005 10.1496 10.4955 10.1755C10.9199 10.2033 10.8517 10.7379 10.8148 11.0366C10.7717 11.3858 10.6265 11.7772 10.4128 12.057C10.3565 12.1308 10.2397 12.221 10.1638 12.2775C9.81914 12.5323 9.24437 12.6232 8.85694 12.4352C8.21105 12.1218 8.27493 11.2146 8.40449 10.6282C8.45764 10.3877 8.48057 10.1834 8.73808 10.1006Z" fill="#6E7780"/>
<path d="M4.7146 2.00499C4.80246 1.99424 4.89253 2.00309 4.98007 2.01068C5.88436 2.08912 6.43388 2.80554 6.59417 3.65545C6.63726 3.88155 6.6501 4.11237 6.63236 4.34186C6.60112 4.73593 6.45816 5.10066 6.41355 5.49293C6.38414 5.70587 6.36905 5.95736 6.36615 6.1682C6.35392 6.59579 6.45967 6.82728 5.95441 6.9234C5.5865 6.9934 5.2011 7.12203 4.83141 7.18317C4.70905 7.22812 4.56078 7.25779 4.43219 7.28095C4.33595 7.29828 4.22563 7.30296 4.14196 7.243C3.87945 7.05489 3.29884 5.85659 3.17884 5.52782C3.1169 5.35808 3.07371 5.17779 3.04434 4.99967C2.91511 4.21583 3.06518 3.31301 3.53636 2.65956C3.84014 2.23824 4.21768 2.08514 4.7146 2.00499Z" fill="#6E7780"/>
<path d="M6.31287 7.15705C6.49219 7.129 6.6093 7.23024 6.69025 7.38005C6.94321 7.8482 7.23394 8.57515 7.01042 9.10784C6.91533 9.32912 6.73527 9.50287 6.51074 9.59C6.13294 9.73858 5.72896 9.70699 5.36107 9.54947C5.33123 9.53354 5.30165 9.51716 5.27233 9.50032C4.82608 9.2419 4.456 8.50137 4.41255 7.9988C4.3839 7.66728 4.58037 7.60924 4.85803 7.54426C4.94828 7.52314 5.05036 7.49386 5.14001 7.46973C5.53024 7.36282 5.92121 7.25859 6.31287 7.15705Z" fill="#6E7780"/>
</svg>
