<svg width="40" height="40" viewBox="0 0 40 40" fill="none" xmlns="http://www.w3.org/2000/svg">
<path fill-rule="evenodd" clip-rule="evenodd" d="M34.5247 20.5484C34.5247 18.7201 36.0063 17.2384 37.833 17.2384V9.71675C37.833 8.33509 36.713 7.21509 35.3313 7.21509H4.66801C3.28634 7.21509 2.16634 8.33509 2.16634 9.71675V17.2384C3.99467 17.1801 5.52301 18.6151 5.58134 20.4434C5.63967 22.2718 4.20467 23.8001 2.37634 23.8584C2.30634 23.8601 2.23634 23.8601 2.16634 23.8584V31.3801C2.16634 32.7618 3.28634 33.8818 4.66801 33.8818H35.333C36.7147 33.8818 37.8347 32.7618 37.8347 31.3801V23.8584C36.0063 23.8584 34.5247 22.3768 34.5247 20.5484ZM26.3813 19.0734L23.5713 21.8134L24.2347 25.6818C24.308 26.1101 23.858 26.4368 23.473 26.2351L19.9997 24.4084L16.5263 26.2368C16.1413 26.4384 15.6913 26.1118 15.7647 25.6834L16.4263 21.8134L13.6163 19.0734C13.3047 18.7701 13.4763 18.2418 13.9063 18.1784L17.7913 17.6134L19.5297 14.0934C19.7213 13.7034 20.278 13.7034 20.4697 14.0934L22.208 17.6134L26.0913 18.1784C26.5213 18.2418 26.693 18.7701 26.3813 19.0734Z" fill="#6D7882"/>
</svg>
