<svg width="80" height="80" viewBox="0 0 80 80" fill="none" xmlns="http://www.w3.org/2000/svg">
<path d="M23.4163 6.53027C25.2563 6.53027 26.7497 8.02361 26.7497 9.86361V13.1736H20.083V9.86361C20.083 8.02361 21.5763 6.53027 23.4163 6.53027ZM56.7497 6.53027C58.5897 6.53027 60.083 8.02361 60.083 9.86361V13.1736H53.4163V9.86361C53.4163 8.02361 54.9097 6.53027 56.7497 6.53027Z" fill="#8B95A1"/>
<path d="M63.5033 73.1166H16.69C12.9933 73.1166 10 70.12 10 66.4266V19.8666C10 16.17 12.9967 13.1766 16.69 13.1766H63.5033C67.2 13.1766 70.1933 16.1733 70.1933 19.8666V66.4266C70.1933 70.12 67.2 73.1166 63.5033 73.1166Z" fill="url(#paint0_linear_4187_2028)"/>
<path d="M52.8776 31.5541C54.0492 30.3825 55.9508 30.3825 57.1224 31.5541C58.294 32.7257 58.294 34.6273 57.1224 35.7989L38.5091 54.4122C37.3375 55.5837 35.4359 55.5837 34.2643 54.4122L22.8776 43.0254C21.7061 41.8539 21.706 39.9522 22.8776 38.7807C24.0492 37.6092 25.9508 37.6092 27.1224 38.7807L36.3867 48.045L52.8776 31.5541Z" fill="white"/>
<defs>
<linearGradient id="paint0_linear_4187_2028" x1="40.0967" y1="13" x2="40.0967" y2="162.5" gradientUnits="userSpaceOnUse">
<stop stop-color="#4E5968"/>
<stop offset="1" stop-color="#F5F9FF"/>
</linearGradient>
</defs>
</svg>
