<svg width="1000" height="685" viewBox="0 0 1000 685" fill="none" xmlns="http://www.w3.org/2000/svg">
<rect x="305.5" y="60" width="389" height="183" rx="28" fill="#F1F6FD"/>
<path d="M327.5 198C327.5 184.745 338.245 174 351.5 174H653.5C666.755 174 677.5 184.745 677.5 198H327.5Z" fill="#798489"/>
<path d="M335.5 198C335.5 189.163 342.663 182 351.5 182H653.5C662.337 182 669.5 189.163 669.5 198H335.5Z" fill="#5B656A"/>
<path d="M677.5 198C677.5 211.255 666.755 222 653.5 222L351.5 222C338.245 222 327.5 211.255 327.5 198L677.5 198Z" fill="#798489"/>
<path d="M669.5 198C669.5 206.837 662.337 214 653.5 214L351.5 214C342.663 214 335.5 206.837 335.5 198L669.5 198Z" fill="#5B656A"/>
<rect x="380" y="198" width="240" height="388" rx="24" fill="#8FBDFC"/>
<rect x="528.397" y="243.54" width="36.6412" height="47.3615" rx="8" fill="#FBFBFF"/>
</svg>
