<svg width="40" height="40" viewBox="0 0 40 40" fill="none" xmlns="http://www.w3.org/2000/svg">
<path d="M31.7033 4.99838H29.9933V3.34172C29.9933 2.42172 29.2483 1.67505 28.3267 1.67505C27.405 1.67505 26.66 2.42172 26.66 3.34172V4.99838H13.3267V3.34172C13.3267 2.42172 12.58 1.67505 11.66 1.67505C10.74 1.67505 9.99333 2.42172 9.99333 3.34172V4.99838H8.29667C6.45 4.99838 4.95167 6.49505 4.95167 8.34338V31.6234C4.95167 33.4701 6.44833 34.9684 8.29667 34.9684H31.7033C33.5517 34.9684 35.0483 33.4701 35.0483 31.6234V8.34338C35.0483 6.49672 33.5517 4.99838 31.7033 4.99838ZM28.5617 16.3984L19.255 25.705C18.9617 25.9984 18.5783 26.145 18.195 26.145C17.8117 26.145 17.4283 25.9984 17.135 25.705L11.4417 20.01C10.855 19.425 10.855 18.475 11.4417 17.89C12.0283 17.3034 12.9767 17.3034 13.5617 17.89L18.195 22.5234L26.44 14.2767C27.0267 13.69 27.9767 13.69 28.5617 14.2767C29.1483 14.8617 29.1483 15.8134 28.5617 16.3984Z" fill="#1E2124"/>
</svg>
