<svg width="54" height="16" viewBox="0 0 54 16" fill="none" xmlns="http://www.w3.org/2000/svg">
<rect width="54" height="16" rx="4" fill="#252525"/>
<path d="M2.85099 5.50827C2.56511 4.44134 3.19827 3.34467 4.26521 3.05879L8.77286 1.85096C9.83979 1.56508 10.9365 2.19824 11.2224 3.26518L12.4302 7.77283C12.7161 8.83976 12.0829 9.93644 11.016 10.2223L6.50831 11.4301C5.44137 11.716 4.3447 11.0829 4.05882 10.0159L2.85099 5.50827Z" fill="white" fill-opacity="0.8"/>
<path d="M5.66669 6.66666C5.66669 5.56209 6.56212 4.66666 7.66669 4.66666H13C14.1046 4.66666 15 5.56209 15 6.66666V12C15 13.1046 14.1046 14 13 14H7.66669C6.56212 14 5.66669 13.1046 5.66669 12V6.66666Z" fill="white"/>
<path d="M8.8913 7.6014C8.8913 7.0882 9.44685 6.76732 9.8913 7.02392L12.8913 8.75569C13.3357 9.01229 13.3357 9.65403 12.8913 9.91064L9.8913 11.6424C9.44691 11.899 8.89145 11.5787 8.8913 11.0656V10.3332H8.22463C7.67235 10.3332 7.22463 9.88545 7.22463 9.33317C7.22472 8.78095 7.6724 8.33317 8.22463 8.33317H8.8913V7.6014Z" fill="#252525"/>
<path d="M22.1222 11.6222C21.5519 11.6222 20.9963 11.537 20.4556 11.3667C19.9222 11.1889 19.4963 10.963 19.1778 10.6889L19.6889 9.51111C19.9926 9.76296 20.363 9.96667 20.8 10.1222C21.2444 10.2778 21.6889 10.3556 22.1333 10.3556C22.6593 10.3556 23.0519 10.2667 23.3111 10.0889C23.5704 9.91111 23.7 9.67778 23.7 9.38889C23.7 9.16667 23.6259 8.98889 23.4778 8.85556C23.3296 8.72222 23.1444 8.61852 22.9222 8.54444C22.7074 8.46296 22.3926 8.37037 21.9778 8.26667C21.4222 8.13333 20.9667 7.9963 20.6111 7.85556C20.263 7.70741 19.963 7.48148 19.7111 7.17778C19.4593 6.87407 19.3333 6.46667 19.3333 5.95556C19.3333 5.51852 19.4444 5.12222 19.6667 4.76667C19.8963 4.41111 20.237 4.12963 20.6889 3.92222C21.1407 3.70741 21.6926 3.6 22.3444 3.6C22.8111 3.6 23.263 3.66296 23.7 3.78889C24.1444 3.90741 24.5296 4.07778 24.8556 4.3L24.3889 5.48889C24.063 5.28148 23.7222 5.12593 23.3667 5.02222C23.0185 4.91852 22.6778 4.86667 22.3444 4.86667C21.8259 4.86667 21.4407 4.96296 21.1889 5.15556C20.937 5.34074 20.8111 5.58148 20.8111 5.87778C20.8111 6.09259 20.8852 6.27037 21.0333 6.41111C21.1815 6.54444 21.3667 6.65185 21.5889 6.73333C21.8185 6.80741 22.1296 6.89259 22.5222 6.98889C23.0926 7.12963 23.5481 7.27037 23.8889 7.41111C24.237 7.55185 24.537 7.77407 24.7889 8.07778C25.0407 8.37407 25.1667 8.77407 25.1667 9.27778C25.1667 9.70741 25.0519 10.1 24.8222 10.4556C24.6 10.8111 24.2593 11.0963 23.8 11.3111C23.3407 11.5185 22.7815 11.6222 22.1222 11.6222ZM29.6254 11.6222C28.8699 11.6222 28.1884 11.4481 27.581 11.1C26.9736 10.7519 26.4958 10.2741 26.1477 9.66667C25.7995 9.05185 25.6254 8.36667 25.6254 7.61111C25.6254 6.85556 25.7995 6.17407 26.1477 5.56667C26.4958 4.95185 26.9736 4.47037 27.581 4.12222C28.1884 3.77407 28.8699 3.6 29.6254 3.6C30.381 3.6 31.0625 3.77407 31.6699 4.12222C32.2847 4.47037 32.7662 4.94815 33.1143 5.55556C33.4625 6.16296 33.6365 6.84815 33.6365 7.61111C33.6365 8.37407 33.4625 9.05926 33.1143 9.66667C32.7662 10.2741 32.2847 10.7519 31.6699 11.1C31.0625 11.4481 30.381 11.6222 29.6254 11.6222ZM29.6254 10.2778C30.0995 10.2778 30.5254 10.1667 30.9032 9.94444C31.2884 9.71481 31.5884 9.4 31.8032 9C32.0254 8.59259 32.1365 8.12963 32.1365 7.61111C32.1365 7.09259 32.0254 6.62963 31.8032 6.22222C31.5884 5.81481 31.2884 5.5 30.9032 5.27778C30.5254 5.04815 30.0995 4.93333 29.6254 4.93333C29.1588 4.93333 28.7328 5.04815 28.3477 5.27778C27.9699 5.5 27.6699 5.81481 27.4477 6.22222C27.2328 6.62963 27.1254 7.09259 27.1254 7.61111C27.1254 8.12963 27.2328 8.59259 27.4477 9C27.6699 9.4 27.9699 9.71481 28.3477 9.94444C28.7254 10.1667 29.1514 10.2778 29.6254 10.2778ZM38.1899 11.6222C37.4343 11.6222 36.7529 11.4481 36.1454 11.1C35.538 10.7519 35.0603 10.2741 34.7121 9.66667C34.364 9.05185 34.1899 8.36667 34.1899 7.61111C34.1899 6.85556 34.364 6.17407 34.7121 5.56667C35.0603 4.95185 35.538 4.47037 36.1454 4.12222C36.7529 3.77407 37.4343 3.6 38.1899 3.6C38.9454 3.6 39.6269 3.77407 40.2343 4.12222C40.8491 4.47037 41.3306 4.94815 41.6788 5.55556C42.0269 6.16296 42.201 6.84815 42.201 7.61111C42.201 8.37407 42.0269 9.05926 41.6788 9.66667C41.3306 10.2741 40.8491 10.7519 40.2343 11.1C39.6269 11.4481 38.9454 11.6222 38.1899 11.6222ZM38.1899 10.2778C38.664 10.2778 39.0899 10.1667 39.4677 9.94444C39.8529 9.71481 40.1529 9.4 40.3677 9C40.5899 8.59259 40.701 8.12963 40.701 7.61111C40.701 7.09259 40.5899 6.62963 40.3677 6.22222C40.1529 5.81481 39.8529 5.5 39.4677 5.27778C39.0899 5.04815 38.664 4.93333 38.1899 4.93333C37.7232 4.93333 37.2973 5.04815 36.9121 5.27778C36.5343 5.5 36.2343 5.81481 36.0121 6.22222C35.7973 6.62963 35.6899 7.09259 35.6899 7.61111C35.6899 8.12963 35.7973 8.59259 36.0121 9C36.2343 9.4 36.5343 9.71481 36.9121 9.94444C37.2899 10.1667 37.7158 10.2778 38.1899 10.2778ZM49.8988 11.5H48.6766L44.7321 6.37778V11.5H43.2655V3.72222H44.4877L48.4321 8.83333V3.72222H49.8988V11.5Z" fill="white"/>
</svg>
