<svg width="60" height="60" viewBox="0 0 60 60" fill="none" xmlns="http://www.w3.org/2000/svg">
<path fill-rule="evenodd" clip-rule="evenodd" d="M8 30C8 42.1503 17.8497 52 30 52C42.1503 52 52 42.1503 52 30C52 17.8497 42.1503 8 30 8C17.8497 8 8 17.8497 8 30ZM30 5C16.1929 5 5 16.1929 5 30C5 43.8071 16.1929 55 30 55C43.8071 55 55 43.8071 55 30C55 16.1929 43.8071 5 30 5Z" fill="black"/>
<path fill-rule="evenodd" clip-rule="evenodd" d="M43.5199 23.5999L26.3235 39.5456L16.4801 30.4181L18.5199 28.2183L26.3235 35.4544L41.4801 21.4001L43.5199 23.5999Z" fill="black"/>
</svg>
