<svg width="20" height="20" viewBox="0 0 20 20" fill="none" xmlns="http://www.w3.org/2000/svg">
<g clip-path="url(#clip0_2589_9917)">
<path d="M17.9579 4.89165L10.6495 10.225C10.2745 10.5 9.72453 10.5 9.3412 10.225L2.0412 4.89165C1.3162 4.35831 1.74953 3.33331 2.6912 3.33331H17.2995C18.2495 3.33331 18.6829 4.36665 17.9495 4.89165H17.9579Z" fill="#D2D7DD"/>
<path d="M9.42533 12.25L2.33366 7.08335C2.05866 6.88335 1.66699 7.08335 1.66699 7.42501V15.1667C1.66699 16.2333 2.53366 17.1 3.60033 17.1H16.4003C17.467 17.1 18.3337 16.2333 18.3337 15.1667V7.42501C18.3337 7.08335 17.942 6.88335 17.667 7.08335L10.5753 12.25C10.242 12.525 9.75866 12.525 9.41699 12.25H9.42533Z" fill="#D2D7DD"/>
</g>
<defs>
<clipPath id="clip0_2589_9917">
<rect width="20" height="20" fill="white"/>
</clipPath>
</defs>
</svg>
