<svg width="18" height="20" viewBox="0 0 18 20" fill="none" xmlns="http://www.w3.org/2000/svg">
<path d="M9.00047 19C9.79545 18.9993 10.5599 18.7061 11.1361 18.1809C11.7122 17.6556 12.0563 16.9383 12.0972 16.1769H5.90088C5.94227 16.9386 6.28684 17.6561 6.86354 18.1813C7.44025 18.7066 8.20512 18.9996 9.00047 19V19Z" stroke="#222222" stroke-width="1.5" stroke-linecap="round" stroke-linejoin="round"/>
<path d="M9.00014 1C8.00451 1.00207 7.16137 1.19245 6.24257 1.56025C5.32377 1.92806 4.48965 2.46606 3.78797 3.14344C3.08629 3.82083 2.53083 4.62429 2.1534 5.50783C1.77598 6.39137 1.584 7.33763 1.58845 8.29243V14.899C1.58922 15.237 1.72975 15.5608 1.97921 15.7995C2.22866 16.0382 2.56667 16.1723 2.91906 16.1723H15.0813C15.2561 16.1724 15.4292 16.1395 15.5907 16.0754C15.7521 16.0113 15.8989 15.9173 16.0225 15.7988C16.146 15.6803 16.2441 15.5396 16.3109 15.3847C16.3777 15.2298 16.412 15.0639 16.4119 14.8963V8.10589C16.4115 6.24459 15.6499 4.45769 14.2906 3.12903C12.9314 1.80038 11.1178 1 9.00014 1Z" stroke="#222222" stroke-width="1.5" stroke-linecap="round" stroke-linejoin="round"/>
</svg>
