<svg width="24" height="24" viewBox="0 0 24 24" fill="none" xmlns="http://www.w3.org/2000/svg">
<path fill-rule="evenodd" clip-rule="evenodd" d="M20.7148 11.8291C20.7148 10.7321 21.6038 9.8431 22.6998 9.8431V5.3301C22.6998 4.5011 22.0278 3.8291 21.1988 3.8291H2.8008C1.9718 3.8291 1.2998 4.5011 1.2998 5.3301V9.8431C2.3968 9.8081 3.3138 10.6691 3.3488 11.7661C3.3838 12.8631 2.5228 13.7801 1.4258 13.8151C1.3838 13.8161 1.3418 13.8161 1.2998 13.8151V18.3281C1.2998 19.1571 1.9718 19.8291 2.8008 19.8291H21.1998C22.0288 19.8291 22.7008 19.1571 22.7008 18.3281V13.8151C21.6038 13.8151 20.7148 12.9261 20.7148 11.8291ZM15.8288 10.9441L14.1428 12.5881L14.5408 14.9091C14.5848 15.1661 14.3148 15.3621 14.0838 15.2411L11.9998 14.1451L9.9158 15.2421C9.6848 15.3631 9.4148 15.1671 9.4588 14.9101L9.8558 12.5881L8.1698 10.9441C7.9828 10.7621 8.0858 10.4451 8.3438 10.4071L10.6748 10.0681L11.7178 7.9561C11.8328 7.7221 12.1668 7.7221 12.2818 7.9561L13.3248 10.0681L15.6548 10.4071C15.9128 10.4451 16.0158 10.7621 15.8288 10.9441Z" fill="currentColor"/>
</svg>
