<svg width="24" height="24" viewBox="0 0 24 24" fill="none" xmlns="http://www.w3.org/2000/svg">
<path fill-rule="evenodd" clip-rule="evenodd" d="M20.7148 12C20.7148 10.903 21.6038 10.014 22.6998 10.014V5.501C22.6998 4.672 22.0278 4 21.1988 4H2.8008C1.9718 4 1.2998 4.672 1.2998 5.501V10.014C2.3968 9.979 3.3138 10.84 3.3488 11.937C3.3838 13.034 2.5228 13.951 1.4258 13.986C1.3838 13.987 1.3418 13.987 1.2998 13.986V18.499C1.2998 19.328 1.9718 20 2.8008 20H21.1998C22.0288 20 22.7008 19.328 22.7008 18.499V13.986C21.6038 13.986 20.7148 13.097 20.7148 12ZM15.8288 11.115L14.1428 12.759L14.5408 15.08C14.5848 15.337 14.3148 15.533 14.0838 15.412L11.9998 14.316L9.9158 15.413C9.6848 15.534 9.4148 15.338 9.4588 15.081L9.8558 12.759L8.1698 11.115C7.9828 10.933 8.0858 10.616 8.3438 10.578L10.6748 10.239L11.7178 8.127C11.8328 7.893 12.1668 7.893 12.2818 8.127L13.3248 10.239L15.6548 10.578C15.9128 10.616 16.0158 10.933 15.8288 11.115Z" fill="#B1B8BE"/>
</svg>
