<svg width="24" height="24" viewBox="0 0 24 24" fill="none" xmlns="http://www.w3.org/2000/svg">
<path d="M18.0001 2C18.5305 2.00002 19.0391 2.21088 19.4141 2.58594C19.7892 2.96101 20.0001 3.46958 20.0001 4V21C20.0001 21.5304 19.7892 22.039 19.4141 22.4141C19.0391 22.7891 18.5305 23 18.0001 23H6.00006C5.46964 23 4.96107 22.7891 4.586 22.4141C4.21093 22.039 4.00006 21.5304 4.00006 21V4C4.00006 3.46957 4.21093 2.96101 4.586 2.58594C4.96107 2.21088 5.46964 2 6.00006 2H18.0001ZM10.5001 8H13.5001V5H10.5001V8Z" fill="currentColor"/>
</svg>
