<svg width="24" height="24" viewBox="0 0 24 24" fill="none" xmlns="http://www.w3.org/2000/svg">
<path fill-rule="evenodd" clip-rule="evenodd" d="M7.96596 11.8101H9.4477V10.2737H7.96596V11.8101ZM7.96596 8.60926H9.4477V7.07284H7.96596V8.60926ZM11.2595 11.8101H12.7413V10.2737H11.2595V11.8101ZM11.2595 8.60926H12.7413V7.07284H11.2595V8.60926ZM14.5539 11.8101H16.0357V10.2737H14.5539V11.8101ZM14.5539 8.60926H16.0357V7.07284H14.5539V8.60926ZM18.1768 4H5.82401C5.71584 3.99989 5.60871 4.02188 5.50874 4.06473C5.40877 4.10757 5.31793 4.17043 5.2414 4.2497C5.16487 4.32897 5.10416 4.42311 5.06274 4.52672C5.02132 4.63034 5 4.7414 5 4.85357L5 20.1856C5 20.3865 5.10407 20.5791 5.28933 20.7212C5.47458 20.8632 5.72584 20.943 5.98783 20.943H10.354V18.5742C10.354 18.4068 10.4408 18.2462 10.5951 18.1279C10.7495 18.0095 10.9589 17.943 11.1772 17.943H12.8236C13.0419 17.943 13.2513 18.0095 13.4057 18.1279C13.5601 18.2462 13.6468 18.4068 13.6468 18.5742V20.943H18.0122C18.2742 20.943 18.5254 20.8632 18.7107 20.7212C18.8959 20.5791 19 20.3865 19 20.1856V4.85357C19 4.62719 18.9133 4.41008 18.7589 4.25C18.6045 4.08993 18.3951 4 18.1768 4Z" fill="#33363D"/>
</svg>
