<svg width="40" height="40" viewBox="0 0 40 40" fill="none" xmlns="http://www.w3.org/2000/svg">
<path fill-rule="evenodd" clip-rule="evenodd" d="M8.33333 6.25C7.18274 6.25 6.25 7.18274 6.25 8.33333V12.5C6.25 13.1904 5.69036 13.75 5 13.75C4.30964 13.75 3.75 13.1904 3.75 12.5V8.33333C3.75 5.80203 5.80203 3.75 8.33333 3.75H11.6667C12.357 3.75 12.9167 4.30964 12.9167 5C12.9167 5.69036 12.357 6.25 11.6667 6.25H8.33333Z" fill="white"/>
<path fill-rule="evenodd" clip-rule="evenodd" d="M31.6667 33.75C32.8173 33.75 33.75 32.8173 33.75 31.6667V27.5C33.75 26.8096 34.3096 26.25 35 26.25C35.6904 26.25 36.25 26.8096 36.25 27.5V31.6667C36.25 34.198 34.198 36.25 31.6667 36.25H28.3333C27.643 36.25 27.0833 35.6904 27.0833 35C27.0833 34.3096 27.643 33.75 28.3333 33.75H31.6667Z" fill="white"/>
<path fill-rule="evenodd" clip-rule="evenodd" d="M31.6667 6.25C32.8173 6.25 33.75 7.18274 33.75 8.33333V12.5C33.75 13.1904 34.3096 13.75 35 13.75C35.6904 13.75 36.25 13.1904 36.25 12.5V8.33333C36.25 5.80203 34.198 3.75 31.6667 3.75H28.3333C27.643 3.75 27.0833 4.30964 27.0833 5C27.0833 5.69036 27.643 6.25 28.3333 6.25H31.6667Z" fill="white"/>
<path fill-rule="evenodd" clip-rule="evenodd" d="M8.33333 33.75C7.18274 33.75 6.25 32.8173 6.25 31.6667L6.25 27.5C6.25 26.8096 5.69036 26.25 5 26.25C4.30964 26.25 3.75 26.8096 3.75 27.5L3.75 31.6667C3.75 34.198 5.80203 36.25 8.33333 36.25H11.6667C12.357 36.25 12.9167 35.6904 12.9167 35C12.9167 34.3096 12.357 33.75 11.6667 33.75H8.33333Z" fill="white"/>
<path fill-rule="evenodd" clip-rule="evenodd" d="M15.8333 11.6667H12.5C12.0398 11.6667 11.6667 12.0398 11.6667 12.5V15.8333C11.6667 16.2936 12.0398 16.6667 12.5 16.6667H15.8333C16.2936 16.6667 16.6667 16.2936 16.6667 15.8333V12.5C16.6667 12.0398 16.2936 11.6667 15.8333 11.6667ZM12.5 9.16667C10.6591 9.16667 9.16667 10.6591 9.16667 12.5V15.8333C9.16667 17.6743 10.6591 19.1667 12.5 19.1667H15.8333C17.6743 19.1667 19.1667 17.6743 19.1667 15.8333V12.5C19.1667 10.6591 17.6743 9.16667 15.8333 9.16667H12.5Z" fill="white"/>
<path fill-rule="evenodd" clip-rule="evenodd" d="M15.8333 23.3333H12.5C12.0398 23.3333 11.6667 23.7064 11.6667 24.1667V27.5C11.6667 27.9602 12.0398 28.3333 12.5 28.3333H15.8333C16.2936 28.3333 16.6667 27.9602 16.6667 27.5V24.1667C16.6667 23.7064 16.2936 23.3333 15.8333 23.3333ZM12.5 20.8333C10.6591 20.8333 9.16667 22.3257 9.16667 24.1667V27.5C9.16667 29.3409 10.6591 30.8333 12.5 30.8333H15.8333C17.6743 30.8333 19.1667 29.3409 19.1667 27.5V24.1667C19.1667 22.3257 17.6743 20.8333 15.8333 20.8333H12.5Z" fill="white"/>
<path fill-rule="evenodd" clip-rule="evenodd" d="M27.5 11.6667H24.1667C23.7064 11.6667 23.3333 12.0398 23.3333 12.5V15.8333C23.3333 16.2936 23.7064 16.6667 24.1667 16.6667H27.5C27.9602 16.6667 28.3333 16.2936 28.3333 15.8333V12.5C28.3333 12.0398 27.9602 11.6667 27.5 11.6667ZM24.1667 9.16667C22.3257 9.16667 20.8333 10.6591 20.8333 12.5V15.8333C20.8333 17.6743 22.3257 19.1667 24.1667 19.1667H27.5C29.3409 19.1667 30.8333 17.6743 30.8333 15.8333V12.5C30.8333 10.6591 29.3409 9.16667 27.5 9.16667H24.1667Z" fill="white"/>
<path fill-rule="evenodd" clip-rule="evenodd" d="M27.5 23.3333H24.1667C23.7064 23.3333 23.3333 23.7064 23.3333 24.1667V27.5C23.3333 27.9602 23.7064 28.3333 24.1667 28.3333H27.5C27.9602 28.3333 28.3333 27.9602 28.3333 27.5V24.1667C28.3333 23.7064 27.9602 23.3333 27.5 23.3333ZM24.1667 20.8333C22.3257 20.8333 20.8333 22.3257 20.8333 24.1667V27.5C20.8333 29.3409 22.3257 30.8333 24.1667 30.8333H27.5C29.3409 30.8333 30.8333 29.3409 30.8333 27.5V24.1667C30.8333 22.3257 29.3409 20.8333 27.5 20.8333H24.1667Z" fill="white"/>
</svg>
