<svg width="24" height="24" viewBox="0 0 24 24" fill="none" xmlns="http://www.w3.org/2000/svg">
  <path fill-rule="evenodd" clip-rule="evenodd" d="M4.2 7.2V16.8H19.8V14.9674C18.6273 14.4927 17.8 13.3429 17.8 12C17.8 10.657 18.6273 9.50731 19.8 9.0326V7.2H4.2ZM3 6V18H21V14C19.8954 14 19 13.1046 19 12C19 10.8954 19.8954 10 21 10V6H3Z" fill="#4C4C4C"/>
  <path fill-rule="evenodd" clip-rule="evenodd" d="M14.4 8.11111V7H15.6V8.11111H14.4ZM14.4 11.4444V9.22222H15.6V11.4444H14.4ZM14.4 14.7778V12.5556H15.6V14.7778H14.4ZM14.4 17V15.8889H15.6V17H14.4Z" fill="#4C4C4C"/>
</svg>
