<svg width="24" height="24" viewBox="0 0 24 24" fill="none" xmlns="http://www.w3.org/2000/svg">
<rect width="24" height="24" rx="4" fill="#1E2124"/>
<path d="M21.0635 12.9224C21.6057 10.2751 19.7704 8.10532 17.6533 8.10504C16.4238 8.10504 15.2372 8.79271 12.3857 12.0005C15.1531 15.114 16.3494 15.8492 17.5371 15.8931C18.252 15.9197 19.0464 15.6208 19.7246 15.0601C20.4002 14.5015 20.8972 13.734 21.0635 12.9224Z" stroke="white" stroke-width="1.68421"/>
<path d="M2.93652 12.9224C2.39431 10.2751 4.22958 8.10532 6.34668 8.10504C7.57617 8.10504 8.76283 8.79272 11.6143 12.0005C8.84692 15.114 7.65062 15.8492 6.46289 15.8931C5.74798 15.9197 4.95355 15.6208 4.27539 15.0601C3.59979 14.5015 3.10278 13.734 2.93652 12.9224Z" stroke="white" stroke-width="1.68421"/>
</svg>
