<svg width="26" height="26" viewBox="0 0 26 26" fill="none" xmlns="http://www.w3.org/2000/svg">
    <path fill-rule="evenodd" clip-rule="evenodd" d="M13.0002 6.66652C16.498 6.66652 19.3336 9.50211 19.3336 13C19.3336 16.4979 16.498 19.3334 13.0002 19.3334C9.50229 19.3334 6.66671 16.4979 6.66671 13C6.66671 9.50211 9.50229 6.66652 13.0002 6.66652ZM13.0002 8.56656C10.5517 8.56656 8.56674 10.5515 8.56674 13C8.56674 15.4485 10.5517 17.4334 13.0002 17.4334C15.4487 17.4334 17.4336 15.4485 17.4336 13C17.4336 10.5515 15.4487 8.56656 13.0002 8.56656Z" fill="black"/>
    <path d="M19.7369 4.71206C20.5745 4.71206 21.2557 5.39035 21.2559 6.2311C21.2559 7.06892 20.5747 7.74766 19.7369 7.74766C18.8992 7.74752 18.2178 7.06883 18.2178 6.2311C18.218 5.39045 18.8993 4.71221 19.7369 4.71206Z" fill="black"/>
    <path fill-rule="evenodd" clip-rule="evenodd" d="M18.4578 0.342965C22.4736 0.546416 25.6671 3.86687 25.6671 7.93322V18.0667L25.6572 18.4576C25.4603 22.344 22.3441 25.4601 18.4578 25.657L18.0669 25.6669H7.9334C3.86705 25.6669 0.546599 22.4734 0.343148 18.4576L0.333252 18.0667V7.93322C0.333252 3.73577 3.73595 0.333069 7.9334 0.333069H18.0669L18.4578 0.342965ZM7.9334 2.23311C4.78532 2.23311 2.23329 4.78513 2.23329 7.93322V18.0667C2.23329 21.2148 4.78532 23.7669 7.9334 23.7669H18.0669C21.215 23.7669 23.767 21.2148 23.767 18.0667V7.93322C23.767 4.78513 21.215 2.23311 18.0669 2.23311H7.9334Z" fill="black"/>
</svg>
