<svg xmlns="http://www.w3.org/2000/svg" width="33" height="33" viewBox="0 0 33 33" fill="none">
  <path d="M16.6666 5C9.48688 5 3.66663 9.58913 3.66663 15.25C3.66663 18.9099 6.09988 22.1213 9.76013 23.9346C9.561 24.6214 8.4805 28.3526 8.4375 28.6458C8.4375 28.6458 8.41163 28.866 8.55425 28.95C8.69688 29.034 8.86463 28.9688 8.86463 28.9688C9.27363 28.9116 13.6075 25.8674 14.3576 25.3388C15.107 25.4449 15.8786 25.5 16.6666 25.5C23.8464 25.5 29.6666 20.911 29.6666 15.25C29.6666 9.58913 23.8464 5 16.6666 5Z" fill="#86898C"/>
  <path d="M9.47913 18.8281C9.0655 18.8281 8.72913 18.5069 8.72913 18.1119V13.6562H7.55888C7.153 13.6562 6.82288 13.3268 6.82288 12.9219C6.82288 12.517 7.15313 12.1875 7.55888 12.1875H11.3994C11.8053 12.1875 12.1354 12.517 12.1354 12.9219C12.1354 13.3268 11.8051 13.6562 11.3994 13.6562H10.2291V18.1119C10.2291 18.5069 9.89275 18.8281 9.47913 18.8281ZM16.0556 18.8184C15.7429 18.8184 15.5036 18.6914 15.4315 18.4871L15.0601 17.5149L12.7731 17.5147L12.4015 18.4876C12.3296 18.6915 12.0905 18.8184 11.7778 18.8184C11.6132 18.8185 11.4506 18.7832 11.301 18.7149C11.0943 18.6195 10.8955 18.3573 11.1233 17.6499L12.9173 12.9279C13.0436 12.5687 13.4275 12.1987 13.916 12.1876C14.4059 12.1986 14.7898 12.5688 14.9164 12.9286L16.7096 17.6485C16.9379 18.3575 16.7391 18.6199 16.5324 18.715C16.3827 18.7832 16.2201 18.8185 16.0556 18.8184ZM14.6658 16.1864L13.9166 14.0583L13.1675 16.1864H14.6658ZM17.9166 18.7188C17.5203 18.7188 17.1979 18.4103 17.1979 18.0312V12.9375C17.1979 12.5239 17.5414 12.1875 17.9635 12.1875C18.3856 12.1875 18.7291 12.5239 18.7291 12.9375V17.3438H20.3229C20.7193 17.3438 21.0416 17.6522 21.0416 18.0312C21.0416 18.4103 20.7193 18.7188 20.3229 18.7188H17.9166ZM22.0834 18.8184C21.6698 18.8184 21.3334 18.482 21.3334 18.0684V12.9375C21.3334 12.5239 21.6698 12.1875 22.0834 12.1875C22.497 12.1875 22.8334 12.5239 22.8334 12.9375V14.5495L24.9259 12.457C25.0335 12.3494 25.1814 12.2901 25.3419 12.2901C25.5291 12.2901 25.7171 12.3709 25.858 12.5116C25.9894 12.6429 26.0678 12.8118 26.0785 12.9871C26.0894 13.164 26.0305 13.3261 25.913 13.4438L24.2039 15.1526L26.05 17.5984C26.1096 17.6768 26.153 17.7664 26.1777 17.8617C26.2025 17.9571 26.208 18.0565 26.194 18.154C26.1806 18.2516 26.148 18.3456 26.0981 18.4305C26.0481 18.5154 25.9818 18.5895 25.903 18.6486C25.7733 18.7472 25.6148 18.8004 25.4519 18.8C25.3357 18.8005 25.2209 18.7739 25.1169 18.7221C25.0129 18.6703 24.9224 18.5949 24.8528 18.5019L23.0939 16.1714L22.8336 16.4316V18.068C22.8334 18.2669 22.7543 18.4576 22.6136 18.5983C22.473 18.739 22.2823 18.8181 22.0834 18.8184Z" fill="white"/>
</svg>