<svg xmlns="http://www.w3.org/2000/svg" width="16" height="16" viewBox="0 0 16 16" fill="none">
  <path fill-rule="evenodd" clip-rule="evenodd" d="M7.99996 2.16675C5.32563 2.16675 3.16663 4.31076 3.16663 6.94453C3.16663 8.57538 4.14081 10.308 5.31233 11.6698C5.89066 12.3421 6.49748 12.9007 7.01546 13.2869C7.27492 13.4803 7.504 13.6244 7.68944 13.7178C7.78196 13.7644 7.85737 13.7952 7.91546 13.8136C7.97053 13.8311 7.99677 13.8331 7.99978 13.8334C8.0001 13.8334 8.00016 13.8334 7.99996 13.8334C7.99976 13.8334 7.99982 13.8334 8.00014 13.8334C8.00315 13.8331 8.02938 13.8311 8.08446 13.8136C8.14255 13.7952 8.21796 13.7644 8.31048 13.7178C8.49592 13.6244 8.725 13.4803 8.98446 13.2869C9.50243 12.9007 10.1093 12.3421 10.6876 11.6698C11.8591 10.308 12.8333 8.57538 12.8333 6.94453C12.8333 4.31076 10.6743 2.16675 7.99996 2.16675ZM2.16663 6.94453C2.16663 3.74862 4.78325 1.16675 7.99996 1.16675C11.2167 1.16675 13.8333 3.74862 13.8333 6.94453C13.8333 8.93221 12.6741 10.894 11.4457 12.322C10.824 13.0447 10.1642 13.6547 9.58213 14.0886C9.29159 14.3052 9.01233 14.484 8.76027 14.6109C8.52397 14.7299 8.25412 14.8334 7.99996 14.8334C7.7458 14.8334 7.47595 14.7299 7.23965 14.6109C6.98759 14.484 6.70833 14.3052 6.41779 14.0886C5.83577 13.6547 5.17593 13.0447 4.55425 12.322C3.32577 10.894 2.16663 8.93221 2.16663 6.94453Z" fill="#86898C"/>
  <path fill-rule="evenodd" clip-rule="evenodd" d="M8 5.16675C8.82843 5.16675 9.5 5.83832 9.5 6.66675C9.5 7.49518 8.82843 8.16675 8 8.16675C7.17157 8.16675 6.5 7.49518 6.5 6.66675C6.5 5.83832 7.17157 5.16675 8 5.16675ZM10.5 6.66675C10.5 5.28604 9.38071 4.16675 8 4.16675C6.61929 4.16675 5.5 5.28604 5.5 6.66675C5.5 8.04746 6.61929 9.16675 8 9.16675C9.38071 9.16675 10.5 8.04746 10.5 6.66675Z" fill="#86898C"/>
</svg>