<svg width="18" height="20" viewBox="0 0 18 20" fill="none" xmlns="http://www.w3.org/2000/svg">
<g clip-path="url(#clip0_2188_4166)">
<path d="M16.6238 6.82353C15.2911 7.64706 14.468 9.05882 14.468 10.6275C14.468 12.3922 15.5263 14 17.1333 14.6667C16.8198 15.6863 16.3494 16.6275 15.7614 17.4902C14.8991 18.7059 13.9976 19.9608 12.6649 19.9608C11.3322 19.9608 10.9402 19.1765 9.37237 19.1765C7.8437 19.1765 7.29494 20 6.04064 20C4.78635 20 3.92402 18.8627 2.9441 17.451C1.6506 15.4902 0.905865 13.2157 0.866669 10.8235C0.866669 6.94118 3.37526 4.86274 5.88386 4.86274C7.21655 4.86274 8.31406 5.72549 9.13719 5.72549C9.92113 5.72549 11.1754 4.82353 12.6649 4.82353C14.2328 4.78431 15.7223 5.52941 16.6238 6.82353ZM11.9594 3.17647C12.6257 2.39216 12.9785 1.41176 13.0177 0.392157C13.0177 0.27451 13.0177 0.117647 12.9785 0C11.8418 0.117647 10.7835 0.666667 10.0387 1.52941C9.37237 2.27451 8.9804 3.21569 8.94121 4.23529C8.94121 4.35294 8.94121 4.47059 8.9804 4.58824C9.0588 4.58824 9.17639 4.62745 9.25478 4.62745C10.3131 4.54902 11.293 4 11.9594 3.17647Z" fill="white"/>
</g>
<defs>
<clipPath id="clip0_2188_4166">
<rect width="16.2667" height="20" fill="white" transform="translate(0.866669)"/>
</clipPath>
</defs>
</svg>
