<svg width="20" height="20" viewBox="0 0 20 20" fill="none" xmlns="http://www.w3.org/2000/svg">
<path d="M18.8 10.2085C18.8 9.5585 18.7417 8.9335 18.6333 8.3335H10V11.8793H14.9333C14.7208 13.0252 14.075 13.996 13.1042 14.646V16.946H16.0667C17.8 15.3502 18.8 13.0002 18.8 10.2085Z" fill="#4285F4"/>
<path d="M10 19.1667C12.475 19.1667 14.55 18.3459 16.0667 16.9459L13.1042 14.6459C12.2833 15.1959 11.2333 15.5209 10 15.5209C7.6125 15.5209 5.59167 13.9084 4.87083 11.7417H1.80833V14.1167C3.31667 17.1125 6.41667 19.1667 10 19.1667Z" fill="#34A853"/>
<path d="M4.87083 11.7416C4.6875 11.1916 4.58333 10.6041 4.58333 9.99997C4.58333 9.3958 4.6875 8.8083 4.87083 8.2583V5.8833H1.80833C1.16666 7.16068 0.832763 8.57048 0.833329 9.99997C0.833329 11.4791 1.1875 12.8791 1.80833 14.1166L4.87083 11.7416Z" fill="#FBBC05"/>
<path d="M10 4.47933C11.3458 4.47933 12.5542 4.94183 13.5042 5.85016L16.1333 3.221C14.5458 1.74183 12.4708 0.833496 10 0.833496C6.41667 0.833496 3.31667 2.88766 1.80833 5.8835L4.87083 8.2585C5.59167 6.09183 7.6125 4.47933 10 4.47933Z" fill="#EA4335"/>
</svg>
