<svg width="20" height="18" viewBox="0 0 20 18" fill="none" xmlns="http://www.w3.org/2000/svg">
<path opacity="0.902" d="M9.59999 0.976074C4.29759 0.976074 -7.62939e-06 4.10507 -7.62939e-06 7.96507C0.0678527 9.19547 0.494881 10.3848 1.2345 11.4032C1.97411 12.4215 2.99791 13.2299 4.19413 13.7401L3.12747 17.4071C3.10774 17.4795 3.11199 17.5559 3.13971 17.626C3.16742 17.6961 3.21728 17.7567 3.28261 17.7995C3.34794 17.8424 3.42564 17.8657 3.5054 17.8661C3.58515 17.8666 3.66315 17.8442 3.72903 17.8021L8.39784 14.9021C8.79144 14.9381 9.19253 14.9591 9.59999 14.9591C14.9024 14.9591 19.2 11.8301 19.2 7.97008C19.2 4.11008 14.9024 0.981079 9.59999 0.981079" fill="#222222"/>
</svg>
