<svg width="52" height="17" viewBox="0 0 52 17" fill="none" xmlns="http://www.w3.org/2000/svg">
<rect width="52" height="17" rx="4" fill="#FFEAEC"/>
<circle cx="8.99998" cy="8.49998" r="6.66667" fill="#FACFD4"/>
<path fill-rule="evenodd" clip-rule="evenodd" d="M11.3608 5.13937C11.9555 4.98002 12.5003 5.52416 12.3412 6.11886L11.0405 10.9734C10.8811 11.5682 10.1371 11.7672 9.70159 11.3318L8.82171 10.4519L7.76995 11.5046C7.27452 12 6.47046 12 5.97503 11.5046C5.48004 11.0092 5.4798 10.206 5.97503 9.71066L7.02679 8.65793L6.14788 7.77902C5.71242 7.34356 5.9124 6.59954 6.50726 6.44015L11.3608 5.13937Z" fill="#F85251"/>
<path d="M27.1644 13H25.82L21.4811 7.36556V13H19.8678V4.44444H21.2122L25.5511 10.0667V4.44444H27.1644V13ZM35.0131 13H28.8531V4.44444H34.8542V5.82556H30.4786V7.98889H34.3531V9.33333H30.4786V11.6067H35.0131V13ZM45.5859 13H43.8381L41.9192 6.84L39.9392 13H38.1915L35.5026 4.44444H37.2015L39.157 10.7756L41.1981 4.44444H42.7137L44.7059 10.8244L46.7104 4.44444H48.2748L45.5859 13Z" fill="#F85251"/>
</svg>
