<svg width="20" height="20" viewBox="0 0 20 20" fill="none" xmlns="http://www.w3.org/2000/svg">
<path d="M14.1406 1.89429C13.9404 1.91382 13.7353 1.96753 13.5351 2.05054V2.03101C13.5254 2.03345 13.5058 2.0481 13.4961 2.05054C11.9751 2.58521 9.06247 3.92554 6.42576 6.56226C3.76951 9.21851 2.48777 12.1848 1.91404 13.6521V13.6716C1.66013 14.4309 1.8408 15.2537 2.34373 15.8396L2.36326 15.8591V15.8787L4.23826 17.7341L4.31638 17.8123C4.83396 18.3298 5.7324 18.3298 6.24997 17.8123L8.80857 15.2537C9.32615 14.7361 9.32615 13.8181 8.80857 13.3005L7.5781 12.0701C7.79294 11.6233 8.34958 10.5247 9.33591 9.49195C10.3149 8.46656 11.438 7.9441 11.875 7.75367L13.164 9.04273L13.2226 9.08179C13.5156 9.2771 13.8501 9.38697 14.1992 9.37476C14.5263 9.36255 14.8657 9.20142 15.1172 8.92554L15.1367 8.94507L15.1758 8.88648L17.6953 6.38648C18.2129 5.8689 18.2129 4.95093 17.6953 4.43335L15.7617 2.49976C15.4883 2.22632 15.1196 2.02124 14.7265 1.93335C14.5361 1.89185 14.3408 1.87476 14.1406 1.89429ZM14.2383 3.14429C14.4751 3.1272 14.7119 3.2273 14.8633 3.37867L16.8164 5.31226C16.9238 5.41968 16.9238 5.38062 16.8164 5.48804L14.1992 8.10523C14.2016 8.10279 14.1992 8.12232 14.1406 8.12476C14.0918 8.1272 14.0185 8.0857 13.9453 8.04664H13.9062L12.4414 6.56226L12.1484 6.26929L11.7773 6.40601C11.7773 6.40601 9.85593 7.12378 8.41794 8.63257C7.00437 10.1121 6.23044 11.9334 6.23044 11.9334L6.07419 12.324L6.36716 12.6365L7.92966 14.199C8.03708 14.3064 8.03708 14.2673 7.92966 14.3748L5.37107 16.9334C5.26365 17.0408 5.30271 17.0408 5.19529 16.9334L3.28123 15.0388C3.27634 15.0339 3.28611 15.0242 3.28123 15.0193L3.26169 14.9998C3.04441 14.7288 2.97849 14.4407 3.08591 14.1013C3.08835 14.094 3.08347 14.0891 3.08591 14.0818C3.64011 12.6707 4.86082 9.90454 7.32419 7.44117C9.79734 4.96802 12.6025 3.69605 13.9648 3.22242L13.9843 3.20289H14.0039C14.0796 3.16871 14.1601 3.14917 14.2383 3.14429Z" fill="#86898C"/>
</svg>
