<svg xmlns="http://www.w3.org/2000/svg" width="32" height="33" viewBox="0 0 32 33" fill="none">
  <path d="M22.625 3.53121C22.3047 3.56246 21.9766 3.6484 21.6563 3.78121V3.74996C21.6407 3.75386 21.6094 3.7773 21.5938 3.78121C19.1602 4.63668 14.5 6.78121 10.2813 11C6.03128 15.25 3.9805 19.9961 3.06253 22.3437V22.375C2.65628 23.5898 2.94535 24.9062 3.75003 25.8437L3.78128 25.875V25.9062L6.78128 28.875L6.90628 29C7.73441 29.8281 9.17191 29.8281 10 29L14.0938 24.9062C14.9219 24.0781 14.9219 22.6093 14.0938 21.7812L12.125 19.8125C12.4688 19.0976 13.3594 17.3398 14.9375 15.6875C16.5039 14.0468 18.3008 13.2109 19 12.9062L21.0625 14.9687L21.1563 15.0312C21.625 15.3437 22.1602 15.5195 22.7188 15.5C23.2422 15.4804 23.7852 15.2226 24.1875 14.7812L24.2188 14.8125L24.2813 14.7187L28.3125 10.7187C29.1406 9.89058 29.1406 8.42183 28.3125 7.59371L25.2188 4.49996C24.7813 4.06246 24.1914 3.73433 23.5625 3.59371C23.2578 3.5273 22.9453 3.49996 22.625 3.53121ZM22.7813 5.53121C23.1602 5.50386 23.5391 5.66402 23.7813 5.90621L26.9063 8.99996C27.0782 9.17183 27.0782 9.10933 26.9063 9.28121L22.7188 13.4687C22.7227 13.4648 22.7188 13.4961 22.625 13.5C22.5469 13.5039 22.4297 13.4375 22.3125 13.375H22.25L19.9063 11L19.4375 10.5312L18.8438 10.75C18.8438 10.75 15.7696 11.8984 13.4688 14.3125C11.2071 16.6796 9.96878 19.5937 9.96878 19.5937L9.71878 20.2187L10.1875 20.7187L12.6875 23.2187C12.8594 23.3906 12.8594 23.3281 12.6875 23.5L8.59378 27.5937C8.42191 27.7656 8.48441 27.7656 8.31253 27.5937L5.25003 24.5625C5.24222 24.5546 5.25785 24.539 5.25003 24.5312L5.21878 24.5C4.87113 24.0664 4.76566 23.6054 4.93753 23.0625C4.94144 23.0507 4.93363 23.0429 4.93753 23.0312C5.82425 20.7734 7.77738 16.3476 11.7188 12.4062C15.6758 8.44918 20.1641 6.41402 22.3438 5.65621L22.375 5.62496H22.4063C22.5274 5.57027 22.6563 5.53902 22.7813 5.53121Z" fill="#86898C"/>
</svg>