<svg xmlns="http://www.w3.org/2000/svg" width="20" height="20" viewBox="0 0 20 20" fill="none">
  <path fill-rule="evenodd" clip-rule="evenodd" d="M5.53298 7.21103L8.88698 3.85603V13.037C8.88698 13.3289 9.00293 13.6088 9.20931 13.8152C9.41569 14.0216 9.69561 14.1375 9.98748 14.1375C10.2794 14.1375 10.5593 14.0216 10.7657 13.8152C10.972 13.6088 11.088 13.3289 11.088 13.037V3.85703L14.443 7.21103C14.5448 7.31368 14.6659 7.39515 14.7993 7.45075C14.9328 7.50635 15.0759 7.53498 15.2205 7.53498C15.365 7.53498 15.5082 7.50635 15.6416 7.45075C15.7751 7.39515 15.8962 7.31368 15.998 7.21103C16.1002 7.10888 16.1813 6.98759 16.2366 6.8541C16.2919 6.72061 16.3203 6.57752 16.3203 6.43303C16.3203 6.28853 16.2919 6.14545 16.2366 6.01196C16.1813 5.87846 16.1002 5.75718 15.998 5.65503L10.765 0.422027C10.5582 0.216905 10.2787 0.101807 9.98748 0.101807C9.69622 0.101807 9.41676 0.216905 9.20998 0.422027L3.97698 5.65503C3.78298 5.86382 3.67751 6.1397 3.68274 6.42466C3.68797 6.70962 3.8035 6.98145 4.00503 7.18298C4.20656 7.38451 4.47839 7.50004 4.76335 7.50527C5.04831 7.5105 5.32419 7.40503 5.53298 7.21103" fill="black"/>
  <path fill-rule="evenodd" clip-rule="evenodd" d="M18.381 11.093C17.774 11.093 17.28 11.586 17.28 12.193V16.4C17.28 17.117 16.697 17.7 15.981 17.7H3.99597C3.27897 17.7 2.69597 17.117 2.69597 16.4V12.192C2.69597 11.9003 2.58008 11.6205 2.37379 11.4142C2.1675 11.2079 1.88771 11.092 1.59597 11.092C1.30423 11.092 1.02444 11.2079 0.818154 11.4142C0.611864 11.6205 0.495972 11.9003 0.495972 12.192V16.4C0.495972 18.33 2.06597 19.9 3.99597 19.9H15.981C17.91 19.9 19.481 18.33 19.481 16.4V12.192C19.481 11.9003 19.3651 11.6205 19.1588 11.4142C18.9525 11.2079 18.6727 11.092 18.381 11.092" fill="black"/>
</svg>