<svg width="20" height="20" viewBox="0 0 20 20" fill="none" xmlns="http://www.w3.org/2000/svg">
<g clip-path="url(#clip0_3_5671)">
<path d="M19.8126 16.7188L1.12506 2.10969C1.0738 2.06865 1.01497 2.03811 0.951907 2.01981C0.888848 2.00151 0.822802 1.99581 0.757539 2.00304C0.692277 2.01026 0.629077 2.03027 0.571548 2.06192C0.514019 2.09357 0.463287 2.13624 0.422249 2.1875L0.109749 2.57781C0.0686143 2.62909 0.0379942 2.68797 0.0196405 2.75109C0.00128684 2.81421 -0.00444019 2.88033 0.00278716 2.94567C0.0100145 3.011 0.0300544 3.07427 0.06176 3.13186C0.0934657 3.18944 0.136215 3.24021 0.187561 3.28125L18.8751 17.8903C18.9263 17.9314 18.9852 17.9619 19.0482 17.9802C19.1113 17.9985 19.1773 18.0042 19.2426 17.997C19.3078 17.9897 19.371 17.9697 19.4286 17.9381C19.4861 17.9064 19.5368 17.8638 19.5779 17.8125L19.8904 17.4222C19.9315 17.3709 19.9621 17.312 19.9805 17.2489C19.9988 17.1858 20.0046 17.1197 19.9973 17.0543C19.9901 16.989 19.9701 16.9257 19.9384 16.8681C19.9067 16.8106 19.8639 16.7598 19.8126 16.7188ZM9.27475 6.57719L13.4869 9.87031C13.4176 7.99719 11.8901 6.5 10.0001 6.5C9.75626 6.50046 9.51318 6.52633 9.27475 6.57719ZM10.7254 13.4231L6.51319 10.13C6.58287 12.0028 8.11037 13.5 10.0001 13.5C10.2438 13.4995 10.4869 13.4737 10.7254 13.4231ZM10.0001 5.5C13.0829 5.5 15.9091 7.21875 17.4354 10C17.0612 10.6845 16.599 11.317 16.0604 11.8813L17.2397 12.8031C17.8964 12.1007 18.4527 11.3108 18.8929 10.4559C18.9644 10.3145 19.0016 10.1583 19.0016 9.99984C19.0016 9.84139 18.9644 9.68516 18.8929 9.54375C17.1966 6.23719 13.8416 4 10.0001 4C8.85319 4 7.75912 4.21875 6.73037 4.58781L8.18069 5.72188C8.77256 5.5875 9.37881 5.5 10.0001 5.5ZM10.0001 14.5C6.91725 14.5 4.09131 12.7812 2.56475 10C2.93937 9.31552 3.40217 8.68314 3.94131 8.11906L2.76194 7.19719C2.10542 7.89952 1.54921 8.6893 1.10912 9.54406C1.03764 9.68547 1.00039 9.8417 1.00039 10.0002C1.00039 10.1586 1.03764 10.3148 1.10912 10.4563C2.80381 13.7628 6.15881 16 10.0001 16C11.1469 16 12.241 15.7797 13.2697 15.4122L11.8194 14.2784C11.2276 14.4125 10.6216 14.5 10.0001 14.5Z" fill="#BCBFC2"/>
</g>
<defs>
<clipPath id="clip0_3_5671">
<rect width="20" height="20" fill="white"/>
</clipPath>
</defs>
</svg>
