<svg width="60" height="8" viewBox="0 0 60 8" fill="none" xmlns="http://www.w3.org/2000/svg">
<path d="M1.3231 2.69141C1.6431 1.79145 2.35068 1.37939 3.33641 1.37939C3.82509 1.37939 4.21268 1.4636 4.55843 1.58124C4.50757 1.8673 4.43159 2.48956 4.41485 2.8264C4.06975 2.68305 3.69053 2.60784 3.17674 2.60784C2.0983 2.6162 1.43256 3.06168 1.43256 4.26505C1.43256 5.04737 1.43256 6.27518 1.46604 6.7798H0C0.01674 6.08169 0.0251109 5.07244 0.0251109 4.00406C0.0251109 2.91897 0.01674 2.10322 0 1.38004H1.29735C1.28061 1.75031 1.27224 2.22086 1.26387 2.68369L1.3231 2.69141Z" fill="white"/>
<path d="M9.41046 3.51046C9.41046 2.76606 9.07373 2.38937 7.7429 2.38937C6.40306 2.38937 6.01546 2.74871 6.03285 3.45903C5.86416 3.44232 5.63688 3.44232 5.4096 3.44232C5.16559 3.44232 4.92929 3.44232 4.75288 3.46803C4.74451 2.07309 5.62079 1.38013 7.75192 1.38013C10.0344 1.38013 10.7844 2.20166 10.7844 3.44296C10.7844 4.04208 10.7509 4.51263 10.7509 5.13746C10.7509 5.73658 10.7934 6.51504 10.8778 6.78053H9.74011C9.47935 6.78053 9.42012 6.60954 9.42012 6.29262C9.42012 6.10427 9.42012 5.8735 9.43686 5.63372H9.37763C9.05764 6.37812 8.18973 6.78053 6.85053 6.78053C5.31753 6.78053 4.55908 6.35305 4.55908 5.30009C4.55908 4.25614 5.40123 3.79395 7.27161 3.79395C8.16462 3.79395 8.9147 3.83637 9.41111 3.93087V3.51046H9.41046ZM9.40209 4.50363C8.81233 4.43485 8.15496 4.40914 7.46476 4.40914C6.35284 4.40914 5.8809 4.64055 5.8809 5.11946C5.8809 5.59001 6.26849 5.82979 7.33857 5.82979C8.6694 5.82979 9.40274 5.31617 9.40274 4.60584V4.50363H9.40209Z" fill="white"/>
<path d="M28.1773 2.69141C28.4973 1.79145 29.2048 1.37939 30.1906 1.37939C30.6792 1.37939 31.0668 1.4636 31.4126 1.58124C31.3617 1.8673 31.2857 2.48956 31.269 2.8264C30.9239 2.68305 30.5447 2.60784 30.0309 2.60784C28.9524 2.6162 28.2867 3.06168 28.2867 4.26505C28.2867 5.04737 28.2867 6.27518 28.3202 6.7798H26.8542C26.8709 6.08169 26.8793 5.07244 26.8793 4.00406C26.8793 2.91897 26.8709 2.10322 26.8542 1.38004H28.1515C28.1348 1.75031 28.1264 2.22086 28.118 2.68369L28.1773 2.69141Z" fill="white"/>
<path d="M36.2646 3.51046C36.2646 2.76606 35.9279 2.38937 34.5971 2.38937C33.2572 2.38937 32.8696 2.74871 32.887 3.45903C32.7183 3.44232 32.491 3.44232 32.2638 3.44232C32.0197 3.44232 31.7835 3.44232 31.607 3.46803C31.5987 2.07309 32.4749 1.38013 34.6061 1.38013C36.8885 1.38013 37.6386 2.20166 37.6386 3.44296C37.6386 4.04208 37.6051 4.51263 37.6051 5.13746C37.6051 5.73658 37.6476 6.51504 37.732 6.78053H36.593C36.3322 6.78053 36.273 6.60954 36.273 6.29262C36.273 6.10427 36.273 5.8735 36.2897 5.63372H36.2305C35.9105 6.37812 35.0426 6.78053 33.7034 6.78053C32.1704 6.78053 31.412 6.35305 31.412 5.30009C31.412 4.25614 32.2541 3.79395 34.1245 3.79395C35.0175 3.79395 35.7676 3.83637 36.264 3.93087V3.51046H36.2646ZM36.2563 4.50363C35.6665 4.43485 35.0091 4.40914 34.3189 4.40914C33.207 4.40914 32.7351 4.64055 32.7351 5.11946C32.7351 5.59001 33.1227 5.82979 34.1927 5.82979C35.5236 5.82979 36.2569 5.31617 36.2569 4.60584V4.50363H36.2563Z" fill="white"/>
<path d="M20.2618 1.37939C19.7474 2.64834 18.6529 5.7892 18.282 6.77916C18.0799 6.77016 17.8101 6.77016 17.4985 6.77016C17.1199 6.77016 16.7825 6.77016 16.6389 6.77916C16.4451 6.20318 16.0492 4.95224 15.7124 3.82729C15.5779 3.3953 15.4594 2.99932 15.3673 2.67534H15.3338C15.2411 3.00832 15.1227 3.4223 14.9714 3.84528C14.6256 4.92524 14.2129 6.14918 13.994 6.77916C13.8176 6.77916 13.4802 6.76116 13.2021 6.76116C12.848 6.76116 12.6291 6.77016 12.4945 6.77916C12.0818 5.6722 11.0961 2.62134 10.5314 1.37939H12.0734C12.1745 1.78438 12.705 3.4223 13.0418 4.48426C13.1931 4.93424 13.2941 5.26722 13.3701 5.52821H13.3952C13.4879 5.25822 13.5974 4.89824 13.7493 4.44826C14.0944 3.38631 14.5496 1.96437 14.6842 1.37939C14.8864 1.38839 15.3165 1.38839 15.5605 1.38839C15.7878 1.38839 16.0826 1.38839 16.2848 1.37939C16.4194 1.93737 16.8495 3.38631 17.2113 4.48426C17.38 4.93424 17.4894 5.28522 17.5738 5.54621H17.6073C17.6832 5.28522 17.776 4.94324 17.9279 4.49326C18.2563 3.4223 18.7533 1.90137 18.8801 1.37939H20.2618Z" fill="white"/>
<path d="M26.4531 1.37955C26.4363 1.86746 26.428 2.56557 26.428 3.35625C26.428 4.06272 26.4447 4.76083 26.4447 5.34966C26.4447 6.99787 25.6946 7.87276 23.2351 7.87276C21.9461 7.87276 20.7582 7.68827 20.0255 7.36814C20.135 7.08208 20.2528 6.56075 20.3037 6.25798C21.104 6.64496 22.1406 6.8211 23.1089 6.8211C24.3728 6.8211 25.1055 6.52668 25.1222 5.69422C25.1306 5.42487 25.139 5.14717 25.1647 4.81933L25.1139 4.81097C24.7597 5.37409 23.9936 5.74436 22.7883 5.74436C20.8258 5.74436 20.0165 5.02953 20.0249 3.59924C20.0333 2.10209 20.9765 1.37891 22.6788 1.37891C23.8918 1.37891 24.6329 1.66496 25.0714 2.1278L25.1048 2.11945L25.0881 1.82503C25.0881 1.69068 25.0881 1.49719 25.0797 1.37955H26.4531ZM25.1139 2.79313C24.6084 2.44857 23.8584 2.28851 23.0922 2.28851C21.8541 2.28851 21.3821 2.70056 21.3821 3.61724C21.3821 4.46641 21.9384 4.8624 23.0838 4.8624C24.3052 4.8624 25.1145 4.40856 25.1145 3.57545V2.79313H25.1139Z" fill="white"/>
<path d="M39.5721 2.54236C39.9597 1.81339 40.8109 1.38013 42.0741 1.38013C43.8852 1.38013 44.7956 2.35144 44.7956 4.07808C44.7956 5.80472 43.759 6.80238 42.049 6.80238C40.8109 6.80238 39.9938 6.39483 39.5805 5.90885L39.5212 5.92621C39.538 6.22127 39.538 6.48997 39.538 6.80238C39.538 7.19258 39.5463 7.56606 39.5463 7.99997H38.1318C38.1569 6.8371 38.1569 5.12782 38.1569 3.80937C38.1569 2.77699 38.1485 1.94389 38.1402 1.38013H39.547C39.5386 1.56205 39.5386 1.83139 39.5386 2.01331C39.5386 2.16116 39.5302 2.32573 39.5219 2.52565L39.5721 2.54236ZM39.5135 5.25767C40.0273 5.57844 40.7265 5.74365 41.5693 5.74365C42.8499 5.74365 43.448 5.18824 43.448 4.07808C43.448 2.96791 42.8248 2.43822 41.6453 2.43822C40.4657 2.43822 39.5141 2.93256 39.5141 4.01701V5.25767H39.5135Z" fill="white"/>
<path d="M50.0739 6.77991C50.0906 6.10687 50.099 4.92921 50.099 3.8274C50.099 2.84323 49.6444 2.45625 48.4565 2.45625C47.3446 2.45625 46.4599 2.9358 46.4599 4.06267C46.4599 5.50068 46.4683 6.32543 46.4767 6.77927H45.0448C45.0699 6.04773 45.0699 5.13041 45.0699 3.91097C45.0699 2.53146 45.0615 1.07674 45.0448 0H46.4941C46.4773 0.580474 46.4773 1.03495 46.469 1.55629C46.469 1.88413 46.4606 2.17854 46.4522 2.54046L46.4947 2.54881C46.8907 1.72471 47.7418 1.34608 49.0385 1.34608C50.5889 1.34608 51.4987 1.99341 51.4987 3.45713C51.4987 4.10446 51.4819 4.45801 51.4819 4.89514C51.4819 5.46726 51.4819 6.25793 51.5071 6.77927H50.0739V6.77991Z" fill="white"/>
<path d="M58.2745 1.37955C58.2578 1.98252 58.2578 2.58485 58.2578 3.48417C58.2578 4.33142 58.2745 4.98646 58.2745 5.58043C58.2745 7.16115 57.5251 7.9994 55.0901 7.9994C52.8411 7.9994 52.0234 7.47485 52.0234 6.3049C52.0234 6.22648 52.0234 6.14805 52.0318 6.05998C52.2088 6.07734 52.4194 6.08634 52.7059 6.08634C52.9499 6.08634 53.1695 6.07734 53.3542 6.05998C53.3459 6.1037 53.3459 6.15577 53.3459 6.19948C53.3459 6.78445 53.8603 6.97666 55.0559 6.97666C56.2438 6.97666 56.943 6.65331 56.9598 5.73664C56.9682 5.38758 56.9682 5.09895 56.9933 4.7319L56.9598 4.71454C56.5806 5.35223 55.8221 5.71929 54.6265 5.71929C52.8405 5.71929 51.9893 5.13431 51.9893 3.85058C51.9893 3.32668 52.006 3.02969 52.006 2.63628C52.006 2.1908 52.006 1.77167 51.9809 1.37891H53.3794C53.3626 1.93752 53.3542 2.61057 53.3542 3.62366C53.3542 4.40084 53.8854 4.7589 55.0476 4.7589C56.0919 4.7589 56.9347 4.32242 56.9347 3.43146V1.37891H58.2745V1.37955Z" fill="white"/>
<path d="M59.5609 6.18786C59.6015 6.14929 59.6221 6.09915 59.6221 6.03616C59.6221 5.97316 59.6021 5.92302 59.5615 5.88445C59.521 5.84652 59.463 5.82788 59.3871 5.82788H59.0993V6.46814H59.2139V6.24443H59.3935L59.4881 6.46685H59.6188L59.5055 6.22193C59.5268 6.21486 59.5454 6.20265 59.5609 6.18786ZM59.4759 6.1178C59.4547 6.13708 59.4263 6.14672 59.3903 6.14672H59.2132V5.92688H59.3903C59.4263 5.92688 59.4547 5.93587 59.4759 5.95516C59.4972 5.9738 59.5081 6.00144 59.5081 6.0368C59.5088 6.07151 59.4978 6.09851 59.4759 6.1178Z" fill="white"/>
<path d="M59.3607 6.78691C59.0079 6.78691 58.7214 6.50085 58.7214 6.14858C58.7214 5.79695 59.0079 5.51025 59.3607 5.51025C59.7129 5.51025 60.0001 5.79631 60.0001 6.14858C60.0001 6.50021 59.7135 6.78691 59.3607 6.78691ZM59.3607 5.59511C59.0555 5.59511 58.807 5.84324 58.807 6.14794C58.807 6.45264 59.0555 6.70077 59.3607 6.70077C59.6659 6.70077 59.9144 6.45264 59.9144 6.14794C59.9144 5.84324 59.6665 5.59511 59.3607 5.59511Z" fill="white"/>
</svg>
