<svg width="258" height="258" viewBox="0 0 258 258" fill="none" xmlns="http://www.w3.org/2000/svg">
<path d="M81.8428 26.1163C84.3465 25.0489 86.8121 23.8784 89.3615 22.9291C100.081 18.9444 111.202 16.8042 122.59 16.1886C135.624 15.484 148.426 17.0573 160.932 20.8539C174.723 25.0414 187.284 31.6234 198.605 40.5722C208.416 48.3277 216.714 57.4823 223.543 67.9742C224.004 68.6825 224.729 69.3191 224.118 70.4005C223.869 70.8433 224.113 71.5688 224.135 72.2885C224.784 72.1548 225.32 72.045 226.043 71.8955C227.632 74.878 229.238 77.8845 230.928 81.0567C229.348 81.2792 228.02 81.5349 226.685 81.6064C226.339 81.6259 225.835 81.1489 225.621 80.7739C223.495 77.033 221.59 73.1526 219.268 69.5424C217.278 66.447 214.904 63.5857 212.567 60.7296C201.532 47.2371 188.027 36.9754 172.128 29.9129C159.642 24.3688 146.563 21.3333 132.914 20.7423C125.422 20.4177 118.008 21.0168 110.591 22.0531C105.66 22.742 100.887 24.0308 96.1874 25.5211C91.4804 27.0151 86.8205 28.7699 82.3476 30.8611C77.8402 32.9704 73.5013 35.4901 69.2442 38.0858C63.5177 41.5819 58.3681 45.8626 53.4554 50.4408C50.1919 53.4817 47.2005 56.7701 44.4072 60.2293C43.468 61.3941 42.6227 61.987 41.1881 61.3497C40.963 61.249 40.6874 61.2587 40.369 61.2082C39.6649 62.3372 40.361 63.4068 40.4213 64.4759C40.4377 64.7807 40.4779 65.1616 40.3245 65.3844C38.9377 67.4382 37.51 69.4634 36.0155 71.6145C35.0503 70.8263 34.1974 71.3647 33.7798 72.186C33.581 72.5741 34.1783 73.3716 34.5046 74.2126C30.8632 80.4255 27.5302 87.1827 25.2529 94.395C23.8012 98.9943 22.6758 103.701 21.4364 108.366C21.2347 109.128 20.7519 109.466 20.2237 109.988C19.0497 111.151 17.6487 110.66 16.1912 111.326C16.6275 109.096 16.9754 107.064 17.4294 105.054C20.8678 89.8549 27.1197 75.9275 36.2053 63.285C42.755 54.1686 50.4912 46.2143 59.3706 39.3779C59.8442 39.012 60.3665 38.6552 60.9251 38.4627C62.0222 38.0858 63.2865 37.9979 63.4392 36.4355C63.4528 36.288 63.7568 36.1604 63.9347 36.0374C69.3895 32.2963 75.1214 29.0456 81.1302 26.2828C81.3631 26.1758 81.6288 26.1331 81.8772 26.0611C81.8297 26.1737 81.7686 26.2829 81.7377 26.4011C81.6279 26.8031 81.5288 27.2063 81.4246 27.6101C81.8242 27.6571 82.307 27.8645 82.605 27.714C83.0358 27.4945 83.3319 27.0106 83.6862 26.6404C83.4074 26.4017 83.1587 26.0581 82.8387 25.9575C82.5466 25.8689 82.1739 26.0511 81.8365 26.1092L81.8428 26.1163ZM69.1476 36.908C70.0331 35.9255 70.9335 34.9541 71.7626 33.9266C71.8123 33.8667 71.3291 33.1299 71.0226 33.0698C70.16 32.9 68.0506 34.4095 67.7626 35.2708C67.4285 36.2736 67.857 36.809 69.1476 36.908ZM90.1036 24.9665C91.5875 25.7478 92.974 25.6479 93.7848 24.5647C94.0804 24.171 94.1909 23.3982 94.0078 22.958C93.8821 22.6633 93.0701 22.4784 92.6042 22.5414C91.2765 22.723 90.5454 23.6599 90.1036 24.9665ZM19.2456 103.843C20.6534 104.195 21.6188 103.781 21.6497 102.705C21.6635 102.276 21.1688 101.589 20.7553 101.443C20.0783 101.205 19.3104 102.462 19.2456 103.843ZM116.918 20.0371C117.264 19.4799 117.583 19.1411 117.661 18.7517C117.688 18.6101 117.054 18.1276 116.863 18.1968C116.486 18.3319 116.209 18.7443 115.892 19.0404C116.17 19.3111 116.448 19.5817 116.918 20.0371Z" fill="#5A5C64"/>
<path d="M108.375 242.19C108.936 241.624 109.379 241.262 109.711 240.813C109.946 240.497 110.026 240.067 110.176 239.689C109.713 239.513 109.183 239.1 108.803 239.209C108.083 239.419 107.34 239.818 106.801 240.338C105.693 241.408 104.582 241.556 103.077 241.204C88.5577 237.81 75.1932 231.837 62.9994 223.246C55.8576 218.215 49.3631 212.439 43.5686 205.882C43.4558 205.754 43.3615 205.609 43.3162 205.549C44.4917 204.621 45.6438 203.715 46.7216 202.862C49.8991 205.92 53.1266 209.278 56.6152 212.334C72.283 226.059 90.4152 234.599 110.931 238.023C112.258 238.244 113.603 238.362 114.926 238.596C115.719 238.736 116.659 238.445 116.993 239.788C117.164 240.481 118.124 240.185 118.754 239.693C119.13 239.4 119.673 239.114 120.12 239.144C128.611 239.725 137.053 239.378 145.464 238.08C145.97 238.001 146.563 238.259 147.072 238.466C147.936 238.815 148.635 238.876 149.075 237.85C149.168 237.633 149.442 237.406 149.674 237.347C152.117 236.731 154.57 236.144 157.02 235.564C157.263 235.506 157.582 235.453 157.774 235.561C158.557 236.007 158.934 235.633 159.52 235.085C160.077 234.564 160.98 234.384 161.755 234.135C174.216 230.151 185.561 224.066 195.809 215.925C210.081 204.586 220.833 190.507 228.2 173.817C229.061 171.866 229.818 169.872 230.663 167.797C231.671 168.192 232.496 167.827 232.656 166.772C232.726 166.309 232.135 165.747 231.812 165.175C232.99 160.313 234.216 155.197 235.492 150.096C235.57 149.788 236.015 149.424 236.343 149.356C237.574 149.109 238.827 148.977 240.361 148.761C239.887 151.192 239.445 153.457 238.986 155.809C238.255 155.693 237.635 155.595 236.893 155.474C236.629 156.851 236.685 158.04 237.539 159.161C237.766 159.46 237.862 160.018 237.762 160.39C234.893 170.926 230.561 180.829 224.822 190.101C217.244 202.344 207.703 212.794 196.197 221.422C186.701 228.542 176.395 234.178 165.093 237.795C159.436 239.605 153.599 240.845 147.841 242.331C147.383 242.449 146.901 242.472 146.443 242.536C145.612 240.733 145.339 240.74 143.815 242.059C143.173 242.615 142.304 243.137 141.489 243.228C130.639 244.462 119.814 244.26 109.042 242.363C108.886 242.335 108.733 242.283 108.369 242.186L108.375 242.19ZM215.919 198.146C217.436 198.464 218.305 198.08 218.324 196.955C218.332 196.519 217.825 195.839 217.402 195.686C216.758 195.457 215.95 196.825 215.919 198.146ZM224.021 183.905C223.56 184.867 223.211 185.422 223.056 186.029C223.014 186.199 223.757 186.756 223.785 186.734C224.331 186.247 224.851 185.718 225.288 185.135C225.322 185.091 224.692 184.552 224.022 183.907L224.021 183.905ZM101.535 237.32C100.523 237.458 99.6499 237.684 99.545 238.816C99.5352 238.915 100.393 239.279 100.78 239.198C101.717 238.997 102.244 238.444 101.535 237.32ZM174.935 230.481L175.133 231.121C175.749 231.1 176.369 231.079 176.986 231.058L176.893 229.139C176.751 229.085 176.607 229.033 176.465 228.979C175.955 229.48 175.444 229.978 174.934 230.479L174.935 230.481Z" fill="#5A5C64"/>
<path d="M56.9735 179.316L56.3423 174.817C56.8987 174.714 57.4082 174.598 57.9239 174.525C109.469 167.266 161.018 160.013 212.559 152.723C214.032 152.515 214.395 152.888 214.523 154.096C214.836 157.075 214.9 157.082 211.545 157.554C168.594 163.601 125.645 169.643 82.6938 175.687C74.7471 176.806 66.8011 177.93 58.8547 179.051C58.2804 179.132 57.7061 179.213 56.9735 179.316ZM111.186 171.517C113.01 169.822 113.095 169.196 111.761 167.777C109.77 168.838 109.529 170.228 111.186 171.517ZM82.4078 174.692C83.3283 174.096 84.6359 173.854 84.2263 172.596C84.1525 172.368 82.9295 172.17 82.5484 172.393C81.6068 172.944 81.49 173.773 82.4078 174.692ZM96.1596 171.48C96.324 171.502 96.488 171.521 96.6525 171.543C96.7919 171.152 97.1732 170.612 97.013 170.407C96.7722 170.096 96.1607 170.018 95.706 169.844C95.6165 169.952 95.5271 170.06 95.4409 170.17C95.6816 170.607 95.9189 171.042 96.1596 171.48Z" fill="#5A5C64"/>
<path d="M201.604 84.5439L47.6364 106.22L47.023 101.848C47.5231 101.757 48.0628 101.636 48.6087 101.559C85.1856 96.4146 121.766 91.2751 158.343 86.1283C171.992 84.2066 185.646 82.2897 199.288 80.3135C200.687 80.1112 201.19 80.4348 201.222 81.68C201.244 82.585 201.455 83.482 201.604 84.5439ZM158.262 88.459C158.828 87.818 159.197 87.3954 159.569 86.975C159.208 86.7716 158.744 86.326 158.503 86.4155C157.957 86.6168 157.518 87.0811 157.037 87.4373C157.364 87.7116 157.691 87.9859 158.259 88.462L158.262 88.459Z" fill="#5A5C64"/>
<path d="M213.762 177.581L214.03 179.487C214.36 179.512 214.688 179.537 215.08 179.569C215.032 179.735 215.015 179.909 214.936 180.045C211.517 186.041 207.503 191.608 202.927 196.761C198.285 201.987 193.179 206.714 187.543 210.851C186.631 211.52 185.717 212.183 184.772 212.801C183.994 213.307 183.363 214.092 182.14 213.574C181.708 213.391 180.662 213.98 180.265 214.499C177.116 218.655 172.267 220.002 167.898 222.123C166.679 222.716 165.281 222.926 164.001 223.411C162.158 224.11 160.387 225.024 158.515 225.629C151.417 227.925 144.145 229.412 136.701 229.952C133.654 230.172 130.593 230.338 127.538 230.313C124.372 230.285 121.196 230.115 118.048 229.788C114.943 229.468 111.844 228.98 108.783 228.368C105.722 227.758 102.669 227.036 99.6803 226.131C87.3146 222.388 76.0604 216.491 65.9606 208.387C59.8585 203.49 54.3652 197.989 49.5925 191.777C49.1504 191.201 48.8572 190.409 48.7744 189.687C48.6803 188.866 48.3438 188.479 47.6323 188.145C47.0111 187.854 46.3319 187.431 45.9717 186.875C43.9211 183.709 41.9575 180.485 39.9447 177.25C42.0414 176.364 42.2555 176.443 43.195 178.082C54.9197 198.538 71.7188 213.107 93.6486 221.605C110.201 228.02 127.311 229.633 144.766 226.614C164.947 223.124 182.375 214.099 197.006 199.683C197.794 198.905 198.789 198.323 199.505 197.491C201.165 195.56 202.814 193.607 204.279 191.529C207.29 187.266 210.177 182.918 213.112 178.602C213.277 178.356 213.429 178.099 213.756 177.577L213.762 177.581Z" fill="#5A5C64"/>
<path d="M216.453 82.9992C214.255 83.5364 214.267 83.5294 213.256 81.7523C212.633 80.6566 211.992 79.566 211.317 78.5013C210.686 77.502 209.859 76.5648 211.193 75.0188C208.841 75.5166 208.389 73.8938 207.526 72.7815C205.552 70.2371 203.567 67.7023 201.734 65.3525C201.814 64.629 201.881 64.0318 201.947 63.4321C201.353 63.3913 200.759 63.3531 199.939 63.2965C197.529 61.0253 194.941 58.4456 192.205 56.0375C183.595 48.4545 173.923 42.5751 163.191 38.579C158.566 36.8579 153.74 35.6814 148.995 34.2897C148.181 34.0522 147.336 33.9859 147.591 32.7637C147.629 32.5836 147.295 32.3236 147.132 32.1004C146.925 32.283 146.653 32.4299 146.532 32.6587C146.394 32.9138 146.392 33.2423 146.294 33.7222C144.797 33.1915 143.019 33.7728 142.056 32.4893C141.067 32.565 140.271 32.7194 139.489 32.6707C135.519 32.4274 131.553 32.1332 127.602 31.8555C127.739 31.2351 127.895 30.5407 128.054 29.8274C163.924 29.0585 199.795 50.4628 216.453 82.9992Z" fill="#5A5C64"/>
<path d="M42.3396 83.2444C42.1322 82.6118 41.9512 82.0548 41.7672 81.4956C41.4722 81.9872 41.2151 82.5052 40.8699 82.9589C40.5936 83.3208 40.2107 83.5997 39.6176 83.7336C40.216 82.6221 40.7945 81.5001 41.4162 80.4039C46.3107 71.7853 52.3463 64.0625 59.4995 57.2175C60.0621 56.6777 60.557 56.3512 61.4067 56.5413C62.4088 56.7656 63.4212 56.6866 64.0532 55.4195C63.6418 55.1385 63.2043 54.84 62.5712 54.4076C80.874 38.6327 102.062 30.5611 126.143 29.8607C125.171 30.9798 124.435 32.1821 122.576 32.2797C107.298 33.0645 93.0294 37.3794 79.7558 44.9695C70.0862 50.4981 61.6385 57.5359 54.3484 65.9808C53.9378 66.4569 53.2856 66.734 52.7194 67.06C51.9871 67.4808 51.2568 67.8404 51.5926 68.9369C51.6649 69.1703 51.4326 69.5445 51.2596 69.7966C49.1266 72.9245 47.1365 76.1673 44.7657 79.1036C43.7117 80.409 43.5867 82.1316 42.3455 83.2489L42.3396 83.2444Z" fill="#5A5C64"/>
<path d="M44.7275 200.286C43.588 201.301 42.5 202.27 41.3343 203.305C35.1978 195.983 29.9988 187.954 25.7341 178.988C27.2731 178.772 28.6577 178.545 30.0499 178.41C30.2868 178.387 30.6759 178.698 30.801 178.95C34.5858 186.638 39.3513 193.682 44.7326 200.322C44.758 200.353 44.7597 200.403 44.7219 200.284L44.7275 200.286Z" fill="#5A5C64"/>
<path d="M226.3 150.778C225.103 154.878 224.024 158.678 222.874 162.454C222.391 164.034 221.793 165.58 221.158 167.107C220.923 167.672 220.422 168.118 220.073 168.639C219.865 168.946 219.547 169.309 219.572 169.62C219.72 171.431 218.985 172.657 217.525 173.721C216.314 174.603 215.355 175.832 214.021 177.171C215.175 174.769 216.2 172.7 217.17 170.604C219.882 164.742 221.98 158.656 223.344 152.343C223.707 150.666 224.828 151.02 226.303 150.778L226.3 150.778Z" fill="#5A5C64"/>
<path d="M38.7921 85.3324C39.6816 87.1982 40.3286 85.643 41.3307 85.3219C40.808 86.4095 40.3625 87.3326 39.9233 88.2444C39.4309 88.2316 38.9784 88.2212 38.1602 88.1987C39.6582 89.8702 38.5766 91.1662 38.0504 92.5297C37.4544 94.0724 37.099 95.7692 36.2182 97.1244C35.2378 98.6338 35.2994 100.333 34.7492 101.901C34.177 103.538 33.8053 105.251 33.3882 106.94C32.8691 109.049 32.8905 109.052 30.5149 109.172C32.241 100.888 34.9955 93.0339 38.7891 85.3302L38.7921 85.3324Z" fill="#5A5C64"/>
<path d="M90.6741 119.017L98.3376 117.939L101.269 138.896C102.286 146.166 97.4325 151.654 89.2761 152.801C81.0748 153.955 74.9482 150.013 73.9313 142.743L71 121.786L78.6187 120.714L81.4621 141.043C81.9454 144.498 84.7555 146.619 88.3408 146.115C91.9261 145.61 94.0009 142.802 93.5176 139.346L90.6741 119.017Z" fill="#5A5C64"/>
<path d="M123.058 124.299C122.546 121.945 120.603 120.8 117.466 121.242C114.374 121.677 112.994 123.244 113.206 125.09C113.444 127.116 115.554 127.826 118.555 128.044L121.472 128.32C127.896 128.834 131.96 131.42 132.732 136.619C133.548 142.773 129.318 147.167 121.251 148.302C113.184 149.437 107.426 146.495 106.25 139.065L113.6 138.03C114.218 141.146 116.775 142.434 120.27 141.942C123.497 141.488 125.223 139.781 124.979 137.71C124.671 135.832 122.875 135.078 119.176 134.775L115.657 134.446C109.873 133.933 106.078 131.63 105.394 126.738C104.508 120.731 109.276 115.942 116.626 114.908C124.11 113.855 129.477 117.264 130.408 123.264L123.058 124.299Z" fill="#5A5C64"/>
<path d="M138.912 145.359L134.368 112.869L156.82 109.709L157.693 115.947L142.859 118.034L143.819 124.9L157.488 122.977L158.361 129.215L144.692 131.138L145.658 138.049L160.537 135.955L161.41 142.193L138.912 145.359Z" fill="#5A5C64"/>
<path d="M179.044 139.712L167.168 141.383L162.623 108.893L174.499 107.221C184.404 105.828 191.352 111.073 192.771 121.215C194.189 131.357 188.948 138.318 179.044 139.712ZM173.87 133.759L177.859 133.198C183.416 132.416 186.093 129.339 185.107 122.294C184.122 115.248 180.698 112.984 175.051 113.779L171.152 114.328L173.87 133.759Z" fill="#5A5C64"/>
</svg>
