<svg width="258" height="258" viewBox="0 0 258 258" fill="none" xmlns="http://www.w3.org/2000/svg">
<path d="M81.8427 26.1163C84.3465 25.049 86.8121 23.8785 89.3614 22.9292C100.081 18.9445 111.202 16.8043 122.59 16.1886C135.624 15.4841 148.426 17.0573 160.932 20.854C174.723 25.0414 187.284 31.6235 198.605 40.5722C208.416 48.3278 216.714 57.4824 223.543 67.9743C224.004 68.6825 224.729 69.3191 224.118 70.4006C223.869 70.8434 224.113 71.5689 224.135 72.2886C224.784 72.1549 225.32 72.045 226.042 71.8956C227.632 74.878 229.238 77.8846 230.928 81.0567C229.348 81.2792 228.02 81.535 226.685 81.6065C226.339 81.626 225.835 81.149 225.621 80.774C223.495 77.0331 221.59 73.1526 219.268 69.5425C217.278 66.4471 214.904 63.5857 212.567 60.7297C201.532 47.2372 188.027 36.9755 172.128 29.913C159.642 24.3689 146.563 21.3334 132.914 20.7424C125.422 20.4178 118.007 21.0169 110.591 22.0531C105.66 22.742 100.887 24.0308 96.1874 25.5212C91.4804 27.0152 86.8204 28.77 82.3475 30.8612C77.8402 32.9704 73.5013 35.4902 69.2442 38.0858C63.5176 41.582 58.368 45.8626 53.4554 50.4409C50.1919 53.4817 47.2005 56.7702 44.4071 60.2294C43.468 61.3941 42.6227 61.987 41.1881 61.3497C40.9629 61.2491 40.6873 61.2587 40.369 61.2082C39.6649 62.3373 40.3609 63.4069 40.4212 64.4759C40.4376 64.7807 40.4779 65.1616 40.3245 65.3844C38.9377 67.4383 37.51 69.4634 36.0155 71.6145C35.0503 70.8264 34.1974 71.3648 33.7798 72.1861C33.581 72.5741 34.1782 73.3717 34.5046 74.2127C30.8632 80.4256 27.5302 87.1828 25.2528 94.395C23.8011 98.9944 22.6758 103.701 21.4364 108.366C21.2347 109.128 20.7519 109.466 20.2237 109.988C19.0496 111.151 17.6487 110.66 16.1911 111.326C16.6274 109.096 16.9754 107.064 17.4293 105.054C20.8677 89.8549 27.1196 75.9275 36.2053 63.285C42.755 54.1687 50.4911 46.2144 59.3706 39.3779C59.8442 39.0121 60.3665 38.6553 60.925 38.4628C62.0222 38.0859 63.2865 37.9979 63.4392 36.4355C63.4528 36.288 63.7567 36.1605 63.9347 36.0375C69.3894 32.2963 75.1214 29.0456 81.1302 26.2828C81.3631 26.1759 81.6288 26.1332 81.8772 26.0612C81.8297 26.1738 81.7685 26.283 81.7376 26.4012C81.6279 26.8032 81.5288 27.2063 81.4245 27.6102C81.8242 27.6572 82.3069 27.8646 82.605 27.714C83.0358 27.4945 83.3319 27.0107 83.6862 26.6405C83.4074 26.4017 83.1587 26.0581 82.8386 25.9576C82.5466 25.869 82.1739 26.0512 81.8365 26.1093L81.8427 26.1163ZM69.1475 36.908C70.0331 35.9255 70.9335 34.9542 71.7626 33.9267C71.8122 33.8668 71.329 33.1299 71.0225 33.0698C70.1599 32.9 68.0505 34.4096 67.7625 35.2709C67.4284 36.2737 67.857 36.8091 69.1475 36.908ZM90.1036 24.9666C91.5874 25.7478 92.974 25.6479 93.7848 24.5648C94.0804 24.171 94.1909 23.3983 94.0078 22.9581C93.8821 22.6634 93.0701 22.4785 92.6041 22.5415C91.2765 22.7231 90.5454 23.66 90.1036 24.9666ZM19.2455 103.843C20.6534 104.195 21.6188 103.781 21.6497 102.705C21.6635 102.276 21.1687 101.589 20.7553 101.443C20.0783 101.205 19.3103 102.462 19.2455 103.843ZM116.918 20.0371C117.264 19.48 117.583 19.1412 117.661 18.7517C117.688 18.6102 117.054 18.1277 116.863 18.1969C116.486 18.332 116.209 18.7443 115.892 19.0405C116.17 19.3111 116.448 19.5817 116.918 20.0371Z" fill="#94969F"/>
<path d="M108.375 242.19C108.936 241.624 109.379 241.262 109.711 240.813C109.946 240.497 110.026 240.067 110.176 239.689C109.713 239.513 109.183 239.1 108.803 239.209C108.083 239.419 107.34 239.818 106.801 240.339C105.693 241.408 104.582 241.556 103.077 241.204C88.5577 237.81 75.1932 231.837 62.9994 223.246C55.8576 218.215 49.3631 212.439 43.5686 205.882C43.4558 205.755 43.3615 205.609 43.3162 205.549C44.4917 204.621 45.6438 203.715 46.7216 202.862C49.8991 205.92 53.1266 209.278 56.6152 212.334C72.283 226.059 90.4152 234.599 110.931 238.023C112.258 238.244 113.603 238.362 114.926 238.596C115.719 238.736 116.659 238.445 116.993 239.788C117.164 240.481 118.124 240.185 118.754 239.694C119.13 239.4 119.673 239.114 120.12 239.144C128.611 239.725 137.053 239.378 145.464 238.08C145.97 238.001 146.563 238.259 147.072 238.466C147.936 238.815 148.635 238.876 149.075 237.85C149.168 237.633 149.442 237.406 149.674 237.347C152.117 236.731 154.57 236.144 157.02 235.564C157.263 235.506 157.582 235.453 157.774 235.561C158.557 236.007 158.934 235.633 159.52 235.085C160.077 234.564 160.98 234.384 161.755 234.135C174.216 230.151 185.561 224.066 195.809 215.925C210.081 204.586 220.833 190.507 228.2 173.817C229.061 171.866 229.818 169.872 230.663 167.797C231.671 168.192 232.496 167.827 232.656 166.772C232.726 166.31 232.135 165.747 231.812 165.175C232.99 160.313 234.216 155.197 235.492 150.096C235.57 149.788 236.015 149.424 236.343 149.356C237.574 149.109 238.827 148.977 240.361 148.761C239.887 151.192 239.445 153.457 238.986 155.809C238.255 155.693 237.635 155.595 236.893 155.474C236.629 156.851 236.685 158.04 237.539 159.161C237.766 159.46 237.862 160.019 237.762 160.39C234.893 170.926 230.561 180.829 224.822 190.101C217.244 202.344 207.703 212.794 196.197 221.422C186.701 228.542 176.395 234.178 165.093 237.795C159.436 239.605 153.599 240.846 147.841 242.331C147.383 242.449 146.901 242.472 146.443 242.536C145.612 240.734 145.339 240.74 143.815 242.059C143.173 242.615 142.304 243.137 141.489 243.228C130.639 244.462 119.814 244.26 109.042 242.363C108.886 242.335 108.733 242.283 108.369 242.186L108.375 242.19ZM215.919 198.146C217.436 198.464 218.305 198.08 218.324 196.955C218.332 196.519 217.825 195.839 217.402 195.687C216.758 195.457 215.95 196.826 215.919 198.146ZM224.021 183.905C223.56 184.867 223.211 185.422 223.056 186.029C223.014 186.199 223.757 186.757 223.785 186.734C224.331 186.247 224.851 185.718 225.288 185.135C225.322 185.091 224.692 184.552 224.022 183.908L224.021 183.905ZM101.535 237.32C100.523 237.458 99.6499 237.684 99.545 238.816C99.5352 238.915 100.393 239.279 100.78 239.198C101.717 238.997 102.244 238.444 101.535 237.32ZM174.935 230.482L175.133 231.121C175.749 231.1 176.369 231.079 176.986 231.058L176.893 229.139C176.751 229.085 176.607 229.033 176.465 228.979C175.955 229.48 175.444 229.978 174.934 230.479L174.935 230.482Z" fill="#94969F"/>
<path d="M56.9735 179.316L56.3423 174.817C56.8987 174.715 57.4082 174.598 57.9239 174.525C109.469 167.266 161.018 160.014 212.559 152.723C214.032 152.515 214.395 152.888 214.523 154.096C214.836 157.075 214.9 157.082 211.545 157.554C168.594 163.601 125.645 169.643 82.6938 175.687C74.7471 176.806 66.8011 177.93 58.8547 179.051C58.2804 179.132 57.7061 179.213 56.9735 179.316ZM111.186 171.517C113.01 169.822 113.095 169.196 111.761 167.777C109.77 168.838 109.529 170.228 111.186 171.517ZM82.4078 174.692C83.3283 174.097 84.6359 173.854 84.2263 172.596C84.1525 172.368 82.9294 172.17 82.5484 172.393C81.6067 172.944 81.49 173.773 82.4078 174.692ZM96.1595 171.48C96.324 171.502 96.488 171.521 96.6524 171.543C96.7919 171.153 97.1732 170.612 97.013 170.407C96.7722 170.096 96.1607 170.018 95.7059 169.844C95.6165 169.952 95.527 170.06 95.4409 170.17C95.6815 170.607 95.9189 171.043 96.1595 171.48Z" fill="#94969F"/>
<path d="M201.604 84.544L47.6364 106.22L47.023 101.848C47.5231 101.757 48.0628 101.636 48.6086 101.559C85.1856 96.4146 121.766 91.2752 158.343 86.1283C171.992 84.2067 185.646 82.2898 199.288 80.3136C200.687 80.1112 201.19 80.4349 201.222 81.6801C201.244 82.5851 201.455 83.4821 201.604 84.544ZM158.262 88.459C158.828 87.8181 159.197 87.3955 159.569 86.975C159.208 86.7716 158.744 86.3261 158.503 86.4156C157.957 86.6169 157.518 87.0812 157.037 87.4374C157.364 87.7117 157.691 87.986 158.259 88.462L158.262 88.459Z" fill="#94969F"/>
<path d="M213.762 177.581L214.03 179.487C214.36 179.512 214.688 179.537 215.08 179.569C215.032 179.735 215.015 179.91 214.936 180.045C211.517 186.041 207.503 191.608 202.927 196.761C198.284 201.987 193.179 206.714 187.542 210.851C186.631 211.52 185.717 212.183 184.772 212.801C183.994 213.307 183.363 214.093 182.14 213.574C181.708 213.391 180.662 213.98 180.265 214.5C177.116 218.655 172.267 220.002 167.898 222.124C166.679 222.716 165.281 222.926 164.001 223.411C162.158 224.11 160.387 225.024 158.515 225.629C151.417 227.925 144.145 229.413 136.701 229.952C133.654 230.172 130.593 230.338 127.538 230.313C124.372 230.285 121.196 230.115 118.048 229.788C114.943 229.468 111.844 228.98 108.783 228.368C105.722 227.758 102.669 227.036 99.6802 226.131C87.3146 222.389 76.0604 216.491 65.9606 208.387C59.8584 203.49 54.3651 197.989 49.5925 191.777C49.1504 191.201 48.8572 190.409 48.7744 189.687C48.6803 188.866 48.3438 188.479 47.6323 188.145C47.0111 187.854 46.3319 187.431 45.9717 186.875C43.9211 183.709 41.9575 180.485 39.9447 177.25C42.0414 176.364 42.2555 176.443 43.195 178.082C54.9196 198.538 71.7188 213.107 93.6486 221.605C110.201 228.02 127.311 229.633 144.766 226.614C164.947 223.124 182.375 214.099 197.006 199.683C197.794 198.905 198.789 198.323 199.505 197.491C201.165 195.561 202.814 193.607 204.279 191.529C207.29 187.267 210.177 182.918 213.111 178.602C213.277 178.356 213.429 178.1 213.756 177.577L213.762 177.581Z" fill="#94969F"/>
<path d="M216.453 82.9992C214.255 83.5363 214.267 83.5293 213.256 81.7523C212.633 80.6565 211.992 79.566 211.317 78.5013C210.686 77.5019 209.859 76.5647 211.193 75.0187C208.841 75.5166 208.389 73.8937 207.526 72.7814C205.552 70.237 203.567 67.7022 201.734 65.3524C201.814 64.6289 201.881 64.0318 201.947 63.432C201.353 63.3912 200.759 63.353 199.939 63.2964C197.529 61.0252 194.941 58.4455 192.205 56.0375C183.595 48.4545 173.923 42.575 163.191 38.5789C158.566 36.8579 153.74 35.6814 148.995 34.2896C148.181 34.0521 147.336 33.9858 147.591 32.7637C147.629 32.5836 147.295 32.3235 147.132 32.1003C146.925 32.2829 146.653 32.4298 146.532 32.6586C146.394 32.9137 146.392 33.2422 146.294 33.7221C144.797 33.1914 143.019 33.7727 142.056 32.4892C141.067 32.565 140.271 32.7194 139.489 32.6707C135.519 32.4273 131.553 32.1332 127.602 31.8554C127.739 31.2351 127.895 30.5407 128.054 29.8274C163.924 29.0584 199.795 50.4627 216.453 82.9992Z" fill="#94969F"/>
<path d="M42.3396 83.2446C42.1322 82.6119 41.9512 82.0549 41.7672 81.4957C41.4722 81.9873 41.2151 82.5053 40.8699 82.959C40.5936 83.3209 40.2107 83.5999 39.6176 83.7337C40.216 82.6222 40.7945 81.5002 41.4162 80.404C46.3107 71.7854 52.3463 64.0626 59.4995 57.2177C60.0621 56.6778 60.557 56.3513 61.4067 56.5414C62.4088 56.7657 63.4212 56.6867 64.0532 55.4196C63.6418 55.1386 63.2043 54.8401 62.5712 54.4077C80.874 38.6328 102.062 30.5612 126.143 29.8608C125.171 30.9799 124.435 32.1822 122.576 32.2798C107.298 33.0646 93.0294 37.3795 79.7558 44.9696C70.0862 50.4983 61.6385 57.5361 54.3484 65.9809C53.9378 66.457 53.2856 66.7342 52.7194 67.0601C51.9871 67.4809 51.2568 67.8405 51.5926 68.937C51.6649 69.1704 51.4326 69.5447 51.2596 69.7967C49.1266 72.9246 47.1365 76.1674 44.7657 79.1037C43.7117 80.4091 43.5867 82.1317 42.3455 83.249L42.3396 83.2446Z" fill="#94969F"/>
<path d="M44.7274 200.286C43.588 201.301 42.5 202.27 41.3343 203.305C35.1978 195.983 29.9988 187.954 25.7341 178.989C27.2731 178.772 28.6577 178.545 30.0499 178.41C30.2868 178.387 30.6759 178.698 30.801 178.95C34.5858 186.638 39.3512 193.682 44.7325 200.322C44.758 200.353 44.7597 200.403 44.7219 200.284L44.7274 200.286Z" fill="#94969F"/>
<path d="M226.3 150.778C225.103 154.878 224.024 158.678 222.874 162.454C222.391 164.034 221.793 165.58 221.158 167.107C220.923 167.672 220.422 168.119 220.073 168.639C219.865 168.946 219.547 169.309 219.572 169.62C219.72 171.431 218.985 172.658 217.525 173.721C216.314 174.604 215.355 175.832 214.021 177.172C215.175 174.769 216.2 172.7 217.17 170.604C219.882 164.742 221.98 158.657 223.344 152.343C223.707 150.667 224.828 151.02 226.303 150.778L226.3 150.778Z" fill="#94969F"/>
<path d="M38.7921 85.3324C39.6816 87.1982 40.3286 85.643 41.3307 85.3219C40.808 86.4095 40.3625 87.3326 39.9233 88.2444C39.4309 88.2316 38.9784 88.2212 38.1602 88.1987C39.6582 89.8702 38.5766 91.1662 38.0504 92.5297C37.4544 94.0724 37.099 95.7692 36.2182 97.1244C35.2377 98.6338 35.2994 100.333 34.7492 101.901C34.177 103.538 33.8053 105.251 33.3882 106.94C32.8691 109.049 32.8905 109.052 30.5149 109.172C32.241 100.888 34.9955 93.0339 38.7891 85.3302L38.7921 85.3324Z" fill="#94969F"/>
<path d="M63.5045 123.331L67.427 151.339L61.818 152.127L48.1428 137.284L47.9494 137.311L50.252 153.753L43.676 154.677L39.7535 126.669L45.4398 125.87L58.9989 140.729L59.231 140.696L56.9285 124.255L63.5045 123.331ZM96.7783 132.934C98.0732 142.18 92.9914 148.14 85.487 149.195C77.944 150.255 71.4543 145.881 70.1649 136.674C68.87 127.429 73.9131 121.474 81.4561 120.413C88.9605 119.359 95.4834 123.688 96.7783 132.934ZM90.0476 133.88C89.2674 128.309 86.3691 125.64 82.2688 126.216C78.1685 126.792 76.1154 130.158 76.8956 135.728C77.6757 141.299 80.574 143.969 84.6743 143.392C88.7747 142.816 90.8277 139.451 90.0476 133.88ZM98.0257 123.962L97.2726 118.585L120.83 115.274L121.583 120.651L113.073 121.847L116.243 144.478L109.705 145.397L106.536 122.766L98.0257 123.962ZM138.483 141.352L134.561 113.345L146.011 111.735C152.316 110.849 156.737 114.251 157.533 119.938C158.346 125.741 154.931 130.086 148.51 130.989L143.829 131.647L145.059 140.428L138.483 141.352ZM143.098 126.424L146.58 125.935C149.674 125.5 151.094 123.525 150.725 120.895C150.357 118.264 148.46 116.835 145.366 117.27L141.884 117.759L143.098 126.424ZM166.663 137.392L159.545 138.392L165.138 109.047L173.881 107.818L187.28 134.494L180.201 135.489L177.466 129.76L167.718 131.13L166.663 137.392ZM168.6 125.878L175.176 124.953L170.595 115.341L170.363 115.374L168.6 125.878ZM193.705 105.032L197.627 133.04L191.051 133.964L187.129 105.957L193.705 105.032ZM212.925 130.89L202.674 132.331L198.752 104.323L209.003 102.882C217.551 101.681 223.549 106.203 224.774 114.946C225.998 123.688 221.474 129.689 212.925 130.89ZM208.459 125.759L211.902 125.275C216.699 124.601 219.009 121.949 218.159 115.875C217.308 109.802 214.353 107.85 209.479 108.535L206.113 109.008L208.459 125.759Z" fill="#94969F"/>
</svg>
