<svg width="350" height="52" viewBox="0 0 350 52" fill="none" xmlns="http://www.w3.org/2000/svg">
<path d="M350 0C349.999 10.6534 349.971 18.993 349.359 25.6465C348.267 25.4412 347.145 25.333 346 25.333C334.954 25.333 326 35.2827 326 47.5557C326 48.8277 326.098 50.0745 326.282 51.2881C322.505 51.717 318.125 51.8874 312.999 51.9541C312.977 44.6114 307.614 38.667 301 38.667C294.373 38.667 289 44.6362 289 52H271C271 44.6362 265.627 38.667 259 38.667C252.373 38.667 247 44.6362 247 52H229C229 44.6362 223.627 38.667 217 38.667C210.373 38.667 205 44.6362 205 52H187C187 44.6362 181.627 38.667 175 38.667C168.373 38.667 163 44.6362 163 52H145C145 44.6362 139.627 38.667 133 38.667C126.373 38.667 121 44.6362 121 52H103C103 44.6362 97.6274 38.667 91 38.667C84.3726 38.667 79 44.6362 79 52H61C61 44.6362 55.6274 38.667 49 38.667C42.3864 38.667 37.0223 44.6114 37 51.9541C31.874 51.8874 27.4936 51.717 23.7168 51.2881C23.9016 50.0744 24 48.8277 24 47.5557C24 35.2827 15.0457 25.333 4 25.333C2.85482 25.333 1.73222 25.4411 0.639648 25.6465C0.0277135 18.993 0.00113825 10.6533 0 0H350Z" fill="black"/>
</svg>
