<svg width="22" height="26" viewBox="0 0 22 26" fill="none" xmlns="http://www.w3.org/2000/svg">
    <path d="M16.7247 1.27843C16.7686 1.62069 16.8538 1.95697 16.9864 2.27713C17.1828 2.75122 17.4699 3.18245 17.8328 3.54536C18.1958 3.90838 18.628 4.19655 19.1023 4.39302C19.5598 4.58242 20.0489 4.68044 20.5437 4.68729H21.2755V9.40083H20.5971V9.40343C20.5658 9.40343 20.5346 9.40117 20.5033 9.40083H20.4005V9.39692C19.3356 9.37254 18.2841 9.1539 17.2989 8.74588C17.1038 8.66505 16.9128 8.5749 16.7247 8.48025V17.2185L16.7195 17.5141C16.6648 18.9925 16.201 20.4292 15.377 21.6625C14.498 22.9781 13.2477 24.0037 11.7859 24.6092C10.3241 25.2146 8.71528 25.3736 7.16349 25.0649C5.61185 24.7562 4.18714 23.9934 3.06844 22.8748C1.94962 21.756 1.18702 20.3303 0.878334 18.7784C0.569826 17.2269 0.728737 15.6189 1.33406 14.1573C1.93956 12.6955 2.96508 11.4452 4.28068 10.5662C5.59615 9.68737 7.14265 9.21854 8.72469 9.21854V14.0102C8.09006 14.0102 7.46981 14.198 6.94214 14.5506C6.41448 14.9031 6.0027 15.4044 5.75984 15.9907C5.51712 16.5769 5.45377 17.2225 5.57755 17.8448C5.70138 18.4668 6.00682 19.0382 6.45516 19.4868C6.90385 19.9355 7.47605 20.2418 8.09839 20.3657C8.72072 20.4895 9.36631 20.4261 9.95255 20.1834C10.5388 19.9405 11.0401 19.5287 11.3927 19.0011C11.7452 18.4735 11.933 17.8531 11.933 17.2185H11.976V0.781036H16.7247V1.27843Z" fill="black"/>
</svg>
