<svg width="20" height="20" viewBox="0 0 20 20" fill="none" xmlns="http://www.w3.org/2000/svg">
<g id="Layer_1-2">
<g id="Group">
<path id="Vector" d="M7.78756 7.87519V7.0946C7.48439 7.05798 7.17668 7.0354 6.86272 7.0354C3.0788 7.0354 0 9.75595 0 13.1001C0 15.1519 1.15987 16.9674 2.93006 18.0651C1.78778 16.9815 1.0872 15.5301 1.0872 13.9358C1.0872 10.6399 4.07857 7.95195 7.78812 7.87519H7.78756Z" fill="#25F4EE"/>
<path id="Vector_2" d="M7.94941 16.7055C9.63784 16.7055 11.0151 15.5186 11.0776 14.0402L11.0838 0.836281H13.8135C13.7567 0.564878 13.7255 0.285951 13.7255 0H9.99721L9.99096 13.2039C9.92851 14.6823 8.5512 15.8693 6.86277 15.8693C6.33819 15.8693 5.84369 15.7534 5.40881 15.5512C5.97825 16.249 6.90365 16.7055 7.94941 16.7055Z" fill="#25F4EE"/>
<path id="Vector_3" d="M18.9128 5.31766V4.58372C17.8716 4.58372 16.9013 4.31031 16.0878 3.84125C16.8122 4.57619 17.7961 5.10645 18.9128 5.31766Z" fill="#25F4EE"/>
<path id="Vector_4" d="M16.0883 3.84125C15.2946 3.03607 14.8126 1.98508 14.8126 0.835754H13.814C14.0768 2.09093 14.9199 3.16801 16.0883 3.84125Z" fill="#FE2C55"/>
<path id="Vector_5" d="M6.86271 10.3303C5.13454 10.3303 3.72827 11.573 3.72827 13.1C3.72827 14.1636 4.41125 15.0876 5.40875 15.5512C5.03689 15.0957 4.81547 14.5388 4.81547 13.9358C4.81547 12.4087 6.22174 11.1661 7.94991 11.1661C8.27238 11.1661 8.5818 11.2133 8.87475 11.294V7.93035C8.57158 7.89373 8.26387 7.87115 7.94991 7.87115C7.89541 7.87115 7.84204 7.87366 7.78811 7.87467V10.4578C7.49516 10.377 7.18575 10.3298 6.86328 10.3298L6.86271 10.3303Z" fill="#FE2C55"/>
<path id="Vector_6" d="M18.9128 5.31769V7.8782C16.9796 7.8782 15.1879 7.33189 13.7254 6.4043V13.1001C13.7254 16.4442 10.6466 19.1642 6.86268 19.1642C5.40021 19.1642 4.04447 18.7569 2.92944 18.0651C4.18299 19.2545 5.96907 20 7.94931 20C11.7338 20 14.812 17.2795 14.812 13.9358V7.24058C16.2745 8.16817 18.0663 8.71448 19.9994 8.71448V5.41953C19.6264 5.41953 19.263 5.38391 18.9128 5.31769Z" fill="#FE2C55"/>
<path id="Vector_7" d="M13.7255 13.1V6.40427C15.188 7.33185 16.9797 7.87817 18.9128 7.87817V5.31766C17.7961 5.10645 16.8122 4.57669 16.0878 3.84125C14.9194 3.16801 14.0763 2.09143 13.8135 0.835754H11.0838L11.0776 14.0397C11.0151 15.5181 9.63782 16.705 7.94939 16.705C6.90363 16.705 5.97823 16.2485 5.4088 15.5507C4.4113 15.0866 3.72832 14.1626 3.72832 13.0995C3.72832 11.5725 5.13459 10.3298 6.86276 10.3298C7.18523 10.3298 7.49464 10.377 7.78759 10.4577V7.87466C4.07804 7.95141 1.08667 10.6394 1.08667 13.9353C1.08667 15.5296 1.78725 16.9809 2.92952 18.0645C4.04398 18.7558 5.40028 19.1637 6.86276 19.1637C10.6467 19.1637 13.7255 16.4431 13.7255 13.0995V13.1Z" fill="black"/>
</g>
</g>
</svg>
