<svg xmlns="http://www.w3.org/2000/svg" width="16" height="16" viewBox="0 0 16 16" fill="none">
  <path fill-rule="evenodd" clip-rule="evenodd" d="M8.00004 1.83325C4.59428 1.83325 1.83337 4.59416 1.83337 7.99992C1.83337 11.4057 4.59428 14.1666 8.00004 14.1666C11.4058 14.1666 14.1667 11.4057 14.1667 7.99992C14.1667 4.59416 11.4058 1.83325 8.00004 1.83325ZM0.833374 7.99992C0.833374 4.04188 4.042 0.833252 8.00004 0.833252C11.9581 0.833252 15.1667 4.04188 15.1667 7.99992C15.1667 11.958 11.9581 15.1666 8.00004 15.1666C4.042 15.1666 0.833374 11.958 0.833374 7.99992Z" fill="#86898C"/>
  <path fill-rule="evenodd" clip-rule="evenodd" d="M8 4.83325C8.27614 4.83325 8.5 5.05711 8.5 5.33325V7.73233L10.2773 8.91723C10.5071 9.0704 10.5692 9.38084 10.416 9.6106C10.2628 9.84037 9.95241 9.90245 9.72265 9.74928L7.87108 8.5149C7.63925 8.36034 7.5 8.10015 7.5 7.82152V5.33325C7.5 5.05711 7.72386 4.83325 8 4.83325Z" fill="#86898C"/>
</svg>