<svg xmlns="http://www.w3.org/2000/svg" width="16" height="16" viewBox="0 0 16 16" fill="none">
  <path fill-rule="evenodd" clip-rule="evenodd" d="M8.14187 3.83325C9.11914 3.83325 9.91138 4.62549 9.91138 5.60276C9.91138 6.58003 9.11914 7.37226 8.14187 7.37226C7.1646 7.37226 6.37237 6.58003 6.37237 5.60276C6.37237 4.62549 7.1646 3.83325 8.14187 3.83325ZM10.9114 5.60276C10.9114 4.0732 9.67143 2.83325 8.14187 2.83325C6.61232 2.83325 5.37237 4.0732 5.37237 5.60276C5.37237 7.13231 6.61232 8.37226 8.14187 8.37226C9.67143 8.37226 10.9114 7.13231 10.9114 5.60276Z" fill="#86898C"/>
  <path fill-rule="evenodd" clip-rule="evenodd" d="M11.1788 10.6227C9.21496 9.92134 7.06888 9.92134 5.10503 10.6227C4.84432 10.7158 4.67029 10.9628 4.67029 11.2396V11.986C4.67029 12.3555 4.99751 12.6392 5.36324 12.587L5.58561 12.5552C7.28121 12.313 9.00263 12.313 10.6982 12.5552L10.9206 12.587C11.2863 12.6392 11.6136 12.3555 11.6136 11.986V11.2396C11.6136 10.9628 11.4395 10.7158 11.1788 10.6227ZM4.7687 9.68097C6.95004 8.90192 9.3338 8.90192 11.5151 9.68097C12.1738 9.91622 12.6136 10.5402 12.6136 11.2396V11.986C12.6136 12.964 11.7473 13.7153 10.7792 13.5769L10.5568 13.5452C8.95501 13.3164 7.32882 13.3164 5.72703 13.5452L5.50466 13.5769C4.53649 13.7153 3.67029 12.964 3.67029 11.986V11.2396C3.67029 10.5402 4.10999 9.91622 4.7687 9.68097Z" fill="#86898C"/>
  <path fill-rule="evenodd" clip-rule="evenodd" d="M11.5462 4.86865C12.2548 4.86865 12.8293 5.44315 12.8293 6.15183C12.8293 6.86052 12.2548 7.43502 11.5462 7.43502C11.27 7.43502 11.0462 7.65887 11.0462 7.93502C11.0462 8.21116 11.27 8.43502 11.5462 8.43502C12.8071 8.43502 13.8293 7.4128 13.8293 6.15183C13.8293 4.89087 12.8071 3.86865 11.5462 3.86865C11.27 3.86865 11.0462 4.09251 11.0462 4.36865C11.0462 4.64479 11.27 4.86865 11.5462 4.86865Z" fill="#86898C"/>
  <path fill-rule="evenodd" clip-rule="evenodd" d="M12.4736 9.33066C12.5259 9.05952 12.7882 8.88213 13.0593 8.93444C13.456 9.01097 13.8482 9.11787 14.2326 9.25514C14.7928 9.45521 15.1667 9.98584 15.1667 10.5807V11.1671C15.1667 12.0008 14.4284 12.6411 13.6031 12.5232L13.4284 12.4983C13.155 12.4592 12.9651 12.206 13.0041 11.9326C13.0432 11.6592 13.2964 11.4693 13.5698 11.5083L13.7445 11.5333C13.9673 11.5651 14.1667 11.3922 14.1667 11.1671V10.5807C14.1667 10.4085 14.0584 10.2548 13.8962 10.1969C13.56 10.0768 13.2168 9.98328 12.8698 9.91633C12.5987 9.86402 12.4213 9.60181 12.4736 9.33066Z" fill="#86898C"/>
  <path fill-rule="evenodd" clip-rule="evenodd" d="M4.45396 4.86865C3.74528 4.86865 3.17078 5.44315 3.17078 6.15183C3.17078 6.86052 3.74528 7.43502 4.45396 7.43502C4.7301 7.43502 4.95396 7.65887 4.95396 7.93502C4.95396 8.21116 4.7301 8.43502 4.45396 8.43502C3.19299 8.43502 2.17078 7.4128 2.17078 6.15183C2.17078 4.89087 3.19299 3.86865 4.45396 3.86865C4.7301 3.86865 4.95396 4.09251 4.95396 4.36865C4.95396 4.64479 4.7301 4.86865 4.45396 4.86865Z" fill="#86898C"/>
  <path fill-rule="evenodd" clip-rule="evenodd" d="M3.5265 9.33066C3.47418 9.05952 3.21197 8.88213 2.94083 8.93444C2.54417 9.01097 2.15191 9.11787 1.76757 9.25514C1.20737 9.45521 0.833424 9.98584 0.833424 10.5807V11.1671C0.833424 12.0008 1.57176 12.6411 2.39701 12.5232L2.57173 12.4983C2.8451 12.4592 3.03505 12.206 2.996 11.9326C2.95694 11.6592 2.70368 11.4693 2.43031 11.5083L2.25559 11.5333C2.03278 11.5651 1.83342 11.3922 1.83342 11.1671V10.5807C1.83342 10.4085 1.9417 10.2548 2.1039 10.1969C2.44016 10.0768 2.78329 9.98328 3.13027 9.91633C3.40142 9.86402 3.57881 9.60181 3.5265 9.33066Z" fill="#86898C"/>
</svg>