<svg width="20" height="16" viewBox="0 0 20 16" fill="none" xmlns="http://www.w3.org/2000/svg">
<g id="g10">
<g id="g12">
<path id="path14" d="M19.582 3.17148C19.352 2.30831 18.6744 1.62861 17.8139 1.39793C16.2542 0.978689 10 0.978688 10 0.978688C10 0.978688 3.74583 0.978689 2.18612 1.39793C1.32564 1.62861 0.647904 2.30831 0.417924 3.17148C0 4.7359 0 7.99996 0 7.99996C0 7.99996 0 11.264 0.417924 12.8286C0.647904 13.6916 1.32564 14.3713 2.18612 14.6021C3.74583 15.0212 10 15.0212 10 15.0212C10 15.0212 16.2542 15.0212 17.8139 14.6021C18.6744 14.3713 19.352 13.6916 19.582 12.8286C20 11.264 20 7.99996 20 7.99996C20 7.99996 20 4.7359 19.582 3.17148Z" fill="#ED1D24"/>
<path id="path16" d="M7.95459 10.9635L13.1819 8.00013L7.95459 5.03647V10.9635Z" fill="white"/>
</g>
</g>
</svg>
