<svg width="28" height="22" viewBox="0 0 28 22" fill="none" xmlns="http://www.w3.org/2000/svg">
    <path fill-rule="evenodd" clip-rule="evenodd" d="M14.0001 0.333344C14.0001 0.333344 22.3376 0.33332 24.418 0.970062C25.5653 1.32047 26.4693 2.35301 26.7761 3.66407C27.194 5.44634 27.2982 8.68121 27.3243 10.1875L27.3334 11C27.3334 11 27.3334 15.9591 26.7761 18.3359C26.4694 19.6469 25.5654 20.6794 24.418 21.03C22.3377 21.6666 14.0001 21.6667 14.0001 21.6667C13.998 21.6667 5.66229 21.6665 3.58211 21.03L3.36987 20.9557C2.32411 20.5487 1.51161 19.5651 1.22404 18.3359L1.12638 17.862C0.667133 15.3588 0.666748 11 0.666748 11L0.675863 10.1875C0.701999 8.68121 0.806168 5.44634 1.22404 3.66407C1.5308 2.35301 2.43495 1.32047 3.58211 0.970062C5.14234 0.492554 10.2214 0.373622 12.6641 0.34376L14.0001 0.333344ZM13.9115 2.33334C13.8517 2.33349 13.7625 2.33403 13.6485 2.33465C13.4204 2.33587 13.0909 2.33885 12.6889 2.34376C11.884 2.3536 10.7915 2.3723 9.6381 2.41147C8.48105 2.45076 7.28022 2.50939 6.25269 2.59506C5.16246 2.68597 4.45395 2.79486 4.16675 2.88282C3.79595 2.99623 3.34024 3.40061 3.17196 4.1198L3.17065 4.1211L3.08862 4.52084C2.90678 5.52093 2.79569 6.96303 2.73446 8.31381C2.70068 9.05893 2.68304 9.73402 2.67456 10.2227C2.67033 10.4666 2.66909 10.6636 2.66805 10.7982C2.66753 10.8649 2.66687 10.9163 2.66675 10.9505V11.0495C2.66687 11.0838 2.66753 11.1351 2.66805 11.2018C2.66909 11.3364 2.67033 11.5334 2.67456 11.7774C2.68304 12.266 2.70068 12.9411 2.73446 13.6862C2.80442 15.2297 2.93945 16.8925 3.17065 17.8789L3.17196 17.8802C3.34015 18.5991 3.7944 19.0035 4.16545 19.1172C4.45269 19.2052 5.16244 19.3141 6.25269 19.405C7.28023 19.4906 8.48104 19.5493 9.6381 19.5886C10.7916 19.6277 11.884 19.6464 12.6889 19.6563C13.0909 19.6612 13.4204 19.6642 13.6485 19.6654C13.7625 19.666 13.8517 19.6665 13.9115 19.6667H14.0886C14.1484 19.6665 14.2376 19.666 14.3516 19.6654C14.5798 19.6642 14.9093 19.6612 15.3113 19.6563C16.1161 19.6464 17.2086 19.6277 18.3621 19.5886C19.5191 19.5493 20.7199 19.4906 21.7475 19.405C22.8377 19.3141 23.5462 19.2051 23.8334 19.1172C24.2044 19.0036 24.66 18.5992 24.8282 17.8802L24.8295 17.8789C25.0607 16.8925 25.1957 15.2297 25.2657 13.6862C25.2995 12.9411 25.3171 12.266 25.3256 11.7774C25.3298 11.5334 25.3311 11.3364 25.3321 11.2018C25.3326 11.1351 25.3333 11.0838 25.3334 11.0495V10.9505C25.3333 10.9163 25.3326 10.8649 25.3321 10.7982C25.3311 10.6636 25.3298 10.4666 25.3256 10.2227C25.3171 9.73402 25.2995 9.05893 25.2657 8.31381C25.1957 6.77022 25.0607 5.10733 24.8295 4.1211L24.8282 4.1198C24.6599 3.40045 24.2055 2.99619 23.8347 2.88282C23.5475 2.79487 22.8377 2.68597 21.7475 2.59506C20.7199 2.50939 19.5191 2.45076 18.3621 2.41147C17.2086 2.3723 16.1161 2.3536 15.3113 2.34376C14.9093 2.33885 14.5798 2.33587 14.3516 2.33465C14.2376 2.33403 14.1484 2.33349 14.0886 2.33334H13.9115Z" fill="black"/>
</svg>
